solid OpenSCAD_Model
  facet normal -1 0 0
    outer loop
      vertex 0 10.3 0
      vertex 0 10.3 2
      vertex 0 13.6364 0
    endloop
  endfacet
  facet normal -1 0 0
    outer loop
      vertex 0 13.6364 0
      vertex 0 10.3 2
      vertex 0 13.6364 2
    endloop
  endfacet
  facet normal 0 -1 0
    outer loop
      vertex 2 10.3 0
      vertex 2 10.3 2
      vertex 0 10.3 2
    endloop
  endfacet
  facet normal 0 -1 0
    outer loop
      vertex 0 10.3 0
      vertex 2 10.3 0
      vertex 0 10.3 2
    endloop
  endfacet
  facet normal 0 0 -1
    outer loop
      vertex 0 10.3 0
      vertex 0 13.6364 0
      vertex 2 10.3 0
    endloop
  endfacet
  facet normal 0 0 -1
    outer loop
      vertex 2 10.3 0
      vertex 0 13.6364 0
      vertex 2 13.6364 0
    endloop
  endfacet
  facet normal 0 0 -1
    outer loop
      vertex 2 13.6364 0
      vertex 20 155 0
      vertex 2 10.3 0
    endloop
  endfacet
  facet normal 0 0 -1
    outer loop
      vertex 2 23.9364 0
      vertex 0 23.9364 0
      vertex 0 27.2727 0
    endloop
  endfacet
  facet normal 0 0 -1
    outer loop
      vertex 2 23.9364 0
      vertex 0 27.2727 0
      vertex 2 27.2727 0
    endloop
  endfacet
  facet normal 0 0 -1
    outer loop
      vertex 2 23.9364 0
      vertex 20 155 0
      vertex 2 13.6364 0
    endloop
  endfacet
  facet normal 0 0 -1
    outer loop
      vertex 2 27.2727 0
      vertex 20 155 0
      vertex 2 23.9364 0
    endloop
  endfacet
  facet normal 0 0 -1
    outer loop
      vertex 2 37.5727 0
      vertex 0 37.5727 0
      vertex 0 40.9091 0
    endloop
  endfacet
  facet normal 0 0 -1
    outer loop
      vertex 2 37.5727 0
      vertex 0 40.9091 0
      vertex 2 40.9091 0
    endloop
  endfacet
  facet normal 0 0 -1
    outer loop
      vertex 2 37.5727 0
      vertex 20 155 0
      vertex 2 27.2727 0
    endloop
  endfacet
  facet normal 0 0 -1
    outer loop
      vertex 2 40.9091 0
      vertex 20 155 0
      vertex 2 37.5727 0
    endloop
  endfacet
  facet normal 0 0 -1
    outer loop
      vertex 2 51.2091 0
      vertex 0 51.2091 0
      vertex 0 54.5455 0
    endloop
  endfacet
  facet normal 0 0 -1
    outer loop
      vertex 2 51.2091 0
      vertex 0 54.5455 0
      vertex 2 54.5455 0
    endloop
  endfacet
  facet normal 0 0 -1
    outer loop
      vertex 2 51.2091 0
      vertex 20 155 0
      vertex 2 40.9091 0
    endloop
  endfacet
  facet normal 0 0 -1
    outer loop
      vertex 2 54.5455 0
      vertex 20 155 0
      vertex 2 51.2091 0
    endloop
  endfacet
  facet normal 0 0 -1
    outer loop
      vertex 2 64.8455 0
      vertex 0 64.8455 0
      vertex 0 68.1818 0
    endloop
  endfacet
  facet normal 0 0 -1
    outer loop
      vertex 2 64.8455 0
      vertex 0 68.1818 0
      vertex 2 68.1818 0
    endloop
  endfacet
  facet normal 0 0 -1
    outer loop
      vertex 2 64.8455 0
      vertex 20 155 0
      vertex 2 54.5455 0
    endloop
  endfacet
  facet normal 0 0 -1
    outer loop
      vertex 2 68.1818 0
      vertex 20 155 0
      vertex 2 64.8455 0
    endloop
  endfacet
  facet normal 0 0 -1
    outer loop
      vertex 2 78.4818 0
      vertex 0 78.4818 0
      vertex 0 81.8182 0
    endloop
  endfacet
  facet normal 0 0 -1
    outer loop
      vertex 2 78.4818 0
      vertex 0 81.8182 0
      vertex 2 81.8182 0
    endloop
  endfacet
  facet normal 0 0 -1
    outer loop
      vertex 2 78.4818 0
      vertex 20 155 0
      vertex 2 68.1818 0
    endloop
  endfacet
  facet normal 0 0 -1
    outer loop
      vertex 2 81.8182 0
      vertex 20 155 0
      vertex 2 78.4818 0
    endloop
  endfacet
  facet normal 0 0 -1
    outer loop
      vertex 2 92.1182 0
      vertex 0 92.1182 0
      vertex 0 95.4545 0
    endloop
  endfacet
  facet normal 0 0 -1
    outer loop
      vertex 2 92.1182 0
      vertex 0 95.4545 0
      vertex 2 95.4545 0
    endloop
  endfacet
  facet normal 0 0 -1
    outer loop
      vertex 2 92.1182 0
      vertex 20 155 0
      vertex 2 81.8182 0
    endloop
  endfacet
  facet normal 0 0 -1
    outer loop
      vertex 2 95.4545 0
      vertex 20 155 0
      vertex 2 92.1182 0
    endloop
  endfacet
  facet normal 0 0 -1
    outer loop
      vertex 2 105.755 0
      vertex 0 105.755 0
      vertex 0 109.091 0
    endloop
  endfacet
  facet normal 0 0 -1
    outer loop
      vertex 2 105.755 0
      vertex 0 109.091 0
      vertex 2 109.091 0
    endloop
  endfacet
  facet normal 0 0 -1
    outer loop
      vertex 2 105.755 0
      vertex 20 155 0
      vertex 2 95.4545 0
    endloop
  endfacet
  facet normal 0 0 -1
    outer loop
      vertex 2 109.091 0
      vertex 20 155 0
      vertex 2 105.755 0
    endloop
  endfacet
  facet normal 0 0 -1
    outer loop
      vertex 2 119.391 0
      vertex 0 119.391 0
      vertex 0 122.727 0
    endloop
  endfacet
  facet normal 0 0 -1
    outer loop
      vertex 2 119.391 0
      vertex 0 122.727 0
      vertex 2 122.727 0
    endloop
  endfacet
  facet normal 0 0 -1
    outer loop
      vertex 2 119.391 0
      vertex 20 155 0
      vertex 2 109.091 0
    endloop
  endfacet
  facet normal 0 0 -1
    outer loop
      vertex 2 122.727 0
      vertex 20 155 0
      vertex 2 119.391 0
    endloop
  endfacet
  facet normal 0 0 -1
    outer loop
      vertex 2 133.027 0
      vertex 0 133.027 0
      vertex 0 136.364 0
    endloop
  endfacet
  facet normal 0 0 -1
    outer loop
      vertex 2 133.027 0
      vertex 0 136.364 0
      vertex 2 136.364 0
    endloop
  endfacet
  facet normal 0 0 -1
    outer loop
      vertex 2 133.027 0
      vertex 20 155 0
      vertex 2 122.727 0
    endloop
  endfacet
  facet normal 0 0 -1
    outer loop
      vertex 2 136.364 0
      vertex 20 155 0
      vertex 2 133.027 0
    endloop
  endfacet
  facet normal 0 0 -1
    outer loop
      vertex 2 146.664 0
      vertex 0 146.664 0
      vertex 0 150 0
    endloop
  endfacet
  facet normal 0 0 -1
    outer loop
      vertex 2 146.664 0
      vertex 0 150 0
      vertex 2 150 0
    endloop
  endfacet
  facet normal 0 0 -1
    outer loop
      vertex 2 146.664 0
      vertex 20 155 0
      vertex 2 136.364 0
    endloop
  endfacet
  facet normal 0 0 -1
    outer loop
      vertex 2 150 0
      vertex 2 155 0
      vertex 20 155 0
    endloop
  endfacet
  facet normal 0 0 -1
    outer loop
      vertex 2 150 0
      vertex 20 155 0
      vertex 2 146.664 0
    endloop
  endfacet
  facet normal 0 0 -1
    outer loop
      vertex 2 10.3 0
      vertex 20 155 0
      vertex 20 5 0
    endloop
  endfacet
  facet normal 0 0 -1
    outer loop
      vertex 2 10.3 0
      vertex 20 5 0
      vertex 2 5 0
    endloop
  endfacet
  facet normal 0 1 0
    outer loop
      vertex 2 13.6364 2
      vertex 2 13.6364 0
      vertex 0 13.6364 2
    endloop
  endfacet
  facet normal 0 1 0
    outer loop
      vertex 0 13.6364 2
      vertex 2 13.6364 0
      vertex 0 13.6364 0
    endloop
  endfacet
  facet normal 0 0 1
    outer loop
      vertex 0 13.6364 2
      vertex 0 10.3 2
      vertex 2 10.3 2
    endloop
  endfacet
  facet normal 0 0 1
    outer loop
      vertex 20 5 2
      vertex 0 13.6364 2
      vertex 2 10.3 2
    endloop
  endfacet
  facet normal 0 0 1
    outer loop
      vertex 2 5 2
      vertex 20 5 2
      vertex 2 10.3 2
    endloop
  endfacet
  facet normal 0 0 1
    outer loop
      vertex 20 155 2
      vertex 2 155 2
      vertex 2 150 2
    endloop
  endfacet
  facet normal 0 0 1
    outer loop
      vertex 0 133.027 2
      vertex 2 133.027 2
      vertex 2 136.364 2
    endloop
  endfacet
  facet normal 0 0 1
    outer loop
      vertex 20 155 2
      vertex 2 150 2
      vertex 2 146.664 2
    endloop
  endfacet
  facet normal 0 0 1
    outer loop
      vertex 20 155 2
      vertex 2 146.664 2
      vertex 2 136.364 2
    endloop
  endfacet
  facet normal 0 0 1
    outer loop
      vertex 0 105.755 2
      vertex 2 105.755 2
      vertex 2 109.091 2
    endloop
  endfacet
  facet normal 0 0 1
    outer loop
      vertex 20 155 2
      vertex 2 136.364 2
      vertex 2 133.027 2
    endloop
  endfacet
  facet normal 0 0 1
    outer loop
      vertex 20 155 2
      vertex 2 133.027 2
      vertex 2 122.727 2
    endloop
  endfacet
  facet normal 0 0 1
    outer loop
      vertex 0 78.4818 2
      vertex 2 78.4818 2
      vertex 2 81.8182 2
    endloop
  endfacet
  facet normal 0 0 1
    outer loop
      vertex 20 155 2
      vertex 2 122.727 2
      vertex 2 119.391 2
    endloop
  endfacet
  facet normal 0 0 1
    outer loop
      vertex 20 155 2
      vertex 2 119.391 2
      vertex 2 109.091 2
    endloop
  endfacet
  facet normal 0 0 1
    outer loop
      vertex 0 51.2091 2
      vertex 2 51.2091 2
      vertex 2 54.5455 2
    endloop
  endfacet
  facet normal 0 0 1
    outer loop
      vertex 20 155 2
      vertex 2 109.091 2
      vertex 2 105.755 2
    endloop
  endfacet
  facet normal 0 0 1
    outer loop
      vertex 20 155 2
      vertex 2 105.755 2
      vertex 2 95.4545 2
    endloop
  endfacet
  facet normal 0 0 1
    outer loop
      vertex 0 23.9364 2
      vertex 2 23.9364 2
      vertex 2 27.2727 2
    endloop
  endfacet
  facet normal 0 0 1
    outer loop
      vertex 20 155 2
      vertex 2 95.4545 2
      vertex 2 92.1182 2
    endloop
  endfacet
  facet normal 0 0 1
    outer loop
      vertex 20 155 2
      vertex 2 92.1182 2
      vertex 2 81.8182 2
    endloop
  endfacet
  facet normal 0 0 1
    outer loop
      vertex 20 155 2
      vertex 2 81.8182 2
      vertex 2 78.4818 2
    endloop
  endfacet
  facet normal 0 0 1
    outer loop
      vertex 20 155 2
      vertex 2 78.4818 2
      vertex 2 68.1818 2
    endloop
  endfacet
  facet normal 0 0 1
    outer loop
      vertex 0 37.5727 2
      vertex 2 37.5727 2
      vertex 2 40.9091 2
    endloop
  endfacet
  facet normal 0 0 1
    outer loop
      vertex 20 155 2
      vertex 2 68.1818 2
      vertex 2 64.8455 2
    endloop
  endfacet
  facet normal 0 0 1
    outer loop
      vertex 20 155 2
      vertex 2 64.8455 2
      vertex 2 54.5455 2
    endloop
  endfacet
  facet normal 0 0 1
    outer loop
      vertex 0 64.8455 2
      vertex 2 64.8455 2
      vertex 2 68.1818 2
    endloop
  endfacet
  facet normal 0 0 1
    outer loop
      vertex 20 155 2
      vertex 2 54.5455 2
      vertex 2 51.2091 2
    endloop
  endfacet
  facet normal 0 0 1
    outer loop
      vertex 20 155 2
      vertex 2 51.2091 2
      vertex 2 40.9091 2
    endloop
  endfacet
  facet normal 0 0 1
    outer loop
      vertex 0 92.1182 2
      vertex 2 92.1182 2
      vertex 2 95.4545 2
    endloop
  endfacet
  facet normal 0 0 1
    outer loop
      vertex 20 155 2
      vertex 2 40.9091 2
      vertex 2 37.5727 2
    endloop
  endfacet
  facet normal 0 0 1
    outer loop
      vertex 20 5 2
      vertex 20 155 2
      vertex 2 27.2727 2
    endloop
  endfacet
  facet normal 0 0 1
    outer loop
      vertex 0 119.391 2
      vertex 2 119.391 2
      vertex 2 122.727 2
    endloop
  endfacet
  facet normal 0 0 1
    outer loop
      vertex 0 146.664 2
      vertex 2 146.664 2
      vertex 2 150 2
    endloop
  endfacet
  facet normal 0 0 1
    outer loop
      vertex 20 5 2
      vertex 2 27.2727 2
      vertex 2 23.9364 2
    endloop
  endfacet
  facet normal 0 0 1
    outer loop
      vertex 20 5 2
      vertex 2 13.6364 2
      vertex 0 13.6364 2
    endloop
  endfacet
  facet normal 0 0 1
    outer loop
      vertex 20 5 2
      vertex 2 23.9364 2
      vertex 2 13.6364 2
    endloop
  endfacet
  facet normal 0 0 1
    outer loop
      vertex 2 37.5727 2
      vertex 2 27.2727 2
      vertex 20 155 2
    endloop
  endfacet
  facet normal 0 0 1
    outer loop
      vertex 2 27.2727 2
      vertex 0 27.2727 2
      vertex 0 23.9364 2
    endloop
  endfacet
  facet normal 0 0 1
    outer loop
      vertex 2 40.9091 2
      vertex 0 40.9091 2
      vertex 0 37.5727 2
    endloop
  endfacet
  facet normal 0 0 1
    outer loop
      vertex 2 54.5455 2
      vertex 0 54.5455 2
      vertex 0 51.2091 2
    endloop
  endfacet
  facet normal 0 0 1
    outer loop
      vertex 2 68.1818 2
      vertex 0 68.1818 2
      vertex 0 64.8455 2
    endloop
  endfacet
  facet normal 0 0 1
    outer loop
      vertex 2 81.8182 2
      vertex 0 81.8182 2
      vertex 0 78.4818 2
    endloop
  endfacet
  facet normal 0 0 1
    outer loop
      vertex 2 95.4545 2
      vertex 0 95.4545 2
      vertex 0 92.1182 2
    endloop
  endfacet
  facet normal 0 0 1
    outer loop
      vertex 2 109.091 2
      vertex 0 109.091 2
      vertex 0 105.755 2
    endloop
  endfacet
  facet normal 0 0 1
    outer loop
      vertex 2 122.727 2
      vertex 0 122.727 2
      vertex 0 119.391 2
    endloop
  endfacet
  facet normal 0 0 1
    outer loop
      vertex 2 136.364 2
      vertex 0 136.364 2
      vertex 0 133.027 2
    endloop
  endfacet
  facet normal 0 0 1
    outer loop
      vertex 2 150 2
      vertex 0 150 2
      vertex 0 146.664 2
    endloop
  endfacet
  facet normal -1 0 -2.22045e-016
    outer loop
      vertex 2 10.3 0
      vertex 2 5 0
      vertex 2 10.3 2
    endloop
  endfacet
  facet normal -1 0 -2.22045e-016
    outer loop
      vertex 2 10.3 2
      vertex 2 5 0
      vertex 2 5 2
    endloop
  endfacet
  facet normal 0 -1 0
    outer loop
      vertex 20 5 2
      vertex 2 5 2
      vertex 2 5 0
    endloop
  endfacet
  facet normal 0 -1 0
    outer loop
      vertex 20 5 0
      vertex 20 5 2
      vertex 2 5 0
    endloop
  endfacet
  facet normal 1 0 0
    outer loop
      vertex 20 5 2
      vertex 20 5 0
      vertex 20 155 0
    endloop
  endfacet
  facet normal 1 0 0
    outer loop
      vertex 20 155 2
      vertex 20 5 2
      vertex 20 155 0
    endloop
  endfacet
  facet normal 0 1 0
    outer loop
      vertex 2 155 2
      vertex 20 155 2
      vertex 2 155 0
    endloop
  endfacet
  facet normal 0 1 0
    outer loop
      vertex 2 155 0
      vertex 20 155 2
      vertex 20 155 0
    endloop
  endfacet
  facet normal -1 0 -2.22045e-016
    outer loop
      vertex 2 155 0
      vertex 2 150 0
      vertex 2 155 2
    endloop
  endfacet
  facet normal -1 0 -2.22045e-016
    outer loop
      vertex 2 155 2
      vertex 2 150 0
      vertex 2 150 2
    endloop
  endfacet
  facet normal 0 1 0
    outer loop
      vertex 2 150 2
      vertex 2 150 0
      vertex 0 150 2
    endloop
  endfacet
  facet normal 0 1 0
    outer loop
      vertex 0 150 2
      vertex 2 150 0
      vertex 0 150 0
    endloop
  endfacet
  facet normal -1 0 0
    outer loop
      vertex 0 146.664 0
      vertex 0 146.664 2
      vertex 0 150 0
    endloop
  endfacet
  facet normal -1 0 0
    outer loop
      vertex 0 150 0
      vertex 0 146.664 2
      vertex 0 150 2
    endloop
  endfacet
  facet normal 0 -1 0
    outer loop
      vertex 2 146.664 0
      vertex 2 146.664 2
      vertex 0 146.664 2
    endloop
  endfacet
  facet normal 0 -1 0
    outer loop
      vertex 0 146.664 0
      vertex 2 146.664 0
      vertex 0 146.664 2
    endloop
  endfacet
  facet normal -1 0 -2.22045e-016
    outer loop
      vertex 2 146.664 0
      vertex 2 136.364 0
      vertex 2 146.664 2
    endloop
  endfacet
  facet normal -1 0 -2.22045e-016
    outer loop
      vertex 2 146.664 2
      vertex 2 136.364 0
      vertex 2 136.364 2
    endloop
  endfacet
  facet normal 0 1 0
    outer loop
      vertex 2 136.364 2
      vertex 2 136.364 0
      vertex 0 136.364 2
    endloop
  endfacet
  facet normal 0 1 0
    outer loop
      vertex 0 136.364 2
      vertex 2 136.364 0
      vertex 0 136.364 0
    endloop
  endfacet
  facet normal -1 0 0
    outer loop
      vertex 0 133.027 0
      vertex 0 133.027 2
      vertex 0 136.364 0
    endloop
  endfacet
  facet normal -1 0 0
    outer loop
      vertex 0 136.364 0
      vertex 0 133.027 2
      vertex 0 136.364 2
    endloop
  endfacet
  facet normal 0 -1 0
    outer loop
      vertex 2 133.027 0
      vertex 2 133.027 2
      vertex 0 133.027 2
    endloop
  endfacet
  facet normal 0 -1 0
    outer loop
      vertex 0 133.027 0
      vertex 2 133.027 0
      vertex 0 133.027 2
    endloop
  endfacet
  facet normal -1 0 -2.22045e-016
    outer loop
      vertex 2 133.027 0
      vertex 2 122.727 0
      vertex 2 133.027 2
    endloop
  endfacet
  facet normal -1 0 -2.22045e-016
    outer loop
      vertex 2 133.027 2
      vertex 2 122.727 0
      vertex 2 122.727 2
    endloop
  endfacet
  facet normal 0 1 0
    outer loop
      vertex 2 122.727 2
      vertex 2 122.727 0
      vertex 0 122.727 2
    endloop
  endfacet
  facet normal 0 1 0
    outer loop
      vertex 0 122.727 2
      vertex 2 122.727 0
      vertex 0 122.727 0
    endloop
  endfacet
  facet normal -1 0 0
    outer loop
      vertex 0 119.391 0
      vertex 0 119.391 2
      vertex 0 122.727 0
    endloop
  endfacet
  facet normal -1 0 0
    outer loop
      vertex 0 122.727 0
      vertex 0 119.391 2
      vertex 0 122.727 2
    endloop
  endfacet
  facet normal 0 -1 0
    outer loop
      vertex 2 119.391 0
      vertex 2 119.391 2
      vertex 0 119.391 2
    endloop
  endfacet
  facet normal 0 -1 0
    outer loop
      vertex 0 119.391 0
      vertex 2 119.391 0
      vertex 0 119.391 2
    endloop
  endfacet
  facet normal -1 0 -2.22045e-016
    outer loop
      vertex 2 119.391 0
      vertex 2 109.091 0
      vertex 2 119.391 2
    endloop
  endfacet
  facet normal -1 0 -2.22045e-016
    outer loop
      vertex 2 119.391 2
      vertex 2 109.091 0
      vertex 2 109.091 2
    endloop
  endfacet
  facet normal 0 1 0
    outer loop
      vertex 2 109.091 2
      vertex 2 109.091 0
      vertex 0 109.091 2
    endloop
  endfacet
  facet normal 0 1 0
    outer loop
      vertex 0 109.091 2
      vertex 2 109.091 0
      vertex 0 109.091 0
    endloop
  endfacet
  facet normal -1 0 0
    outer loop
      vertex 0 105.755 0
      vertex 0 105.755 2
      vertex 0 109.091 0
    endloop
  endfacet
  facet normal -1 0 0
    outer loop
      vertex 0 109.091 0
      vertex 0 105.755 2
      vertex 0 109.091 2
    endloop
  endfacet
  facet normal 0 -1 0
    outer loop
      vertex 2 105.755 0
      vertex 2 105.755 2
      vertex 0 105.755 2
    endloop
  endfacet
  facet normal 0 -1 0
    outer loop
      vertex 0 105.755 0
      vertex 2 105.755 0
      vertex 0 105.755 2
    endloop
  endfacet
  facet normal -1 0 -2.22045e-016
    outer loop
      vertex 2 105.755 0
      vertex 2 95.4545 0
      vertex 2 105.755 2
    endloop
  endfacet
  facet normal -1 0 -2.22045e-016
    outer loop
      vertex 2 105.755 2
      vertex 2 95.4545 0
      vertex 2 95.4545 2
    endloop
  endfacet
  facet normal 0 1 0
    outer loop
      vertex 2 95.4545 2
      vertex 2 95.4545 0
      vertex 0 95.4545 2
    endloop
  endfacet
  facet normal 0 1 0
    outer loop
      vertex 0 95.4545 2
      vertex 2 95.4545 0
      vertex 0 95.4545 0
    endloop
  endfacet
  facet normal -1 0 0
    outer loop
      vertex 0 92.1182 0
      vertex 0 92.1182 2
      vertex 0 95.4545 0
    endloop
  endfacet
  facet normal -1 0 0
    outer loop
      vertex 0 95.4545 0
      vertex 0 92.1182 2
      vertex 0 95.4545 2
    endloop
  endfacet
  facet normal 0 -1 0
    outer loop
      vertex 2 92.1182 0
      vertex 2 92.1182 2
      vertex 0 92.1182 2
    endloop
  endfacet
  facet normal 0 -1 0
    outer loop
      vertex 0 92.1182 0
      vertex 2 92.1182 0
      vertex 0 92.1182 2
    endloop
  endfacet
  facet normal -1 0 -2.22045e-016
    outer loop
      vertex 2 92.1182 0
      vertex 2 81.8182 0
      vertex 2 92.1182 2
    endloop
  endfacet
  facet normal -1 0 -2.22045e-016
    outer loop
      vertex 2 92.1182 2
      vertex 2 81.8182 0
      vertex 2 81.8182 2
    endloop
  endfacet
  facet normal 0 1 0
    outer loop
      vertex 2 81.8182 2
      vertex 2 81.8182 0
      vertex 0 81.8182 2
    endloop
  endfacet
  facet normal 0 1 0
    outer loop
      vertex 0 81.8182 2
      vertex 2 81.8182 0
      vertex 0 81.8182 0
    endloop
  endfacet
  facet normal -1 0 0
    outer loop
      vertex 0 78.4818 0
      vertex 0 78.4818 2
      vertex 0 81.8182 0
    endloop
  endfacet
  facet normal -1 0 0
    outer loop
      vertex 0 81.8182 0
      vertex 0 78.4818 2
      vertex 0 81.8182 2
    endloop
  endfacet
  facet normal 0 -1 0
    outer loop
      vertex 2 78.4818 0
      vertex 2 78.4818 2
      vertex 0 78.4818 2
    endloop
  endfacet
  facet normal 0 -1 0
    outer loop
      vertex 0 78.4818 0
      vertex 2 78.4818 0
      vertex 0 78.4818 2
    endloop
  endfacet
  facet normal -1 0 -2.22045e-016
    outer loop
      vertex 2 78.4818 0
      vertex 2 68.1818 0
      vertex 2 78.4818 2
    endloop
  endfacet
  facet normal -1 0 -2.22045e-016
    outer loop
      vertex 2 78.4818 2
      vertex 2 68.1818 0
      vertex 2 68.1818 2
    endloop
  endfacet
  facet normal 0 1 0
    outer loop
      vertex 2 68.1818 2
      vertex 2 68.1818 0
      vertex 0 68.1818 2
    endloop
  endfacet
  facet normal 0 1 0
    outer loop
      vertex 0 68.1818 2
      vertex 2 68.1818 0
      vertex 0 68.1818 0
    endloop
  endfacet
  facet normal -1 0 0
    outer loop
      vertex 0 64.8455 0
      vertex 0 64.8455 2
      vertex 0 68.1818 0
    endloop
  endfacet
  facet normal -1 0 0
    outer loop
      vertex 0 68.1818 0
      vertex 0 64.8455 2
      vertex 0 68.1818 2
    endloop
  endfacet
  facet normal 0 -1 0
    outer loop
      vertex 2 64.8455 0
      vertex 2 64.8455 2
      vertex 0 64.8455 2
    endloop
  endfacet
  facet normal 0 -1 0
    outer loop
      vertex 0 64.8455 0
      vertex 2 64.8455 0
      vertex 0 64.8455 2
    endloop
  endfacet
  facet normal -1 0 -2.22045e-016
    outer loop
      vertex 2 64.8455 0
      vertex 2 54.5455 0
      vertex 2 64.8455 2
    endloop
  endfacet
  facet normal -1 0 -2.22045e-016
    outer loop
      vertex 2 64.8455 2
      vertex 2 54.5455 0
      vertex 2 54.5455 2
    endloop
  endfacet
  facet normal 0 1 0
    outer loop
      vertex 2 54.5455 2
      vertex 2 54.5455 0
      vertex 0 54.5455 2
    endloop
  endfacet
  facet normal 0 1 0
    outer loop
      vertex 0 54.5455 2
      vertex 2 54.5455 0
      vertex 0 54.5455 0
    endloop
  endfacet
  facet normal -1 0 0
    outer loop
      vertex 0 51.2091 0
      vertex 0 51.2091 2
      vertex 0 54.5455 0
    endloop
  endfacet
  facet normal -1 0 0
    outer loop
      vertex 0 54.5455 0
      vertex 0 51.2091 2
      vertex 0 54.5455 2
    endloop
  endfacet
  facet normal 0 -1 0
    outer loop
      vertex 2 51.2091 0
      vertex 2 51.2091 2
      vertex 0 51.2091 2
    endloop
  endfacet
  facet normal 0 -1 0
    outer loop
      vertex 0 51.2091 0
      vertex 2 51.2091 0
      vertex 0 51.2091 2
    endloop
  endfacet
  facet normal -1 0 -2.22045e-016
    outer loop
      vertex 2 51.2091 0
      vertex 2 40.9091 0
      vertex 2 51.2091 2
    endloop
  endfacet
  facet normal -1 0 -2.22045e-016
    outer loop
      vertex 2 51.2091 2
      vertex 2 40.9091 0
      vertex 2 40.9091 2
    endloop
  endfacet
  facet normal 0 1 0
    outer loop
      vertex 2 40.9091 2
      vertex 2 40.9091 0
      vertex 0 40.9091 2
    endloop
  endfacet
  facet normal 0 1 0
    outer loop
      vertex 0 40.9091 2
      vertex 2 40.9091 0
      vertex 0 40.9091 0
    endloop
  endfacet
  facet normal -1 0 0
    outer loop
      vertex 0 37.5727 0
      vertex 0 37.5727 2
      vertex 0 40.9091 0
    endloop
  endfacet
  facet normal -1 0 0
    outer loop
      vertex 0 40.9091 0
      vertex 0 37.5727 2
      vertex 0 40.9091 2
    endloop
  endfacet
  facet normal 0 -1 0
    outer loop
      vertex 2 37.5727 0
      vertex 2 37.5727 2
      vertex 0 37.5727 2
    endloop
  endfacet
  facet normal 0 -1 0
    outer loop
      vertex 0 37.5727 0
      vertex 2 37.5727 0
      vertex 0 37.5727 2
    endloop
  endfacet
  facet normal -1 0 -2.22045e-016
    outer loop
      vertex 2 37.5727 0
      vertex 2 27.2727 0
      vertex 2 37.5727 2
    endloop
  endfacet
  facet normal -1 0 -2.22045e-016
    outer loop
      vertex 2 37.5727 2
      vertex 2 27.2727 0
      vertex 2 27.2727 2
    endloop
  endfacet
  facet normal 0 1 0
    outer loop
      vertex 2 27.2727 2
      vertex 2 27.2727 0
      vertex 0 27.2727 2
    endloop
  endfacet
  facet normal 0 1 0
    outer loop
      vertex 0 27.2727 2
      vertex 2 27.2727 0
      vertex 0 27.2727 0
    endloop
  endfacet
  facet normal -1 0 0
    outer loop
      vertex 0 23.9364 0
      vertex 0 23.9364 2
      vertex 0 27.2727 0
    endloop
  endfacet
  facet normal -1 0 0
    outer loop
      vertex 0 27.2727 0
      vertex 0 23.9364 2
      vertex 0 27.2727 2
    endloop
  endfacet
  facet normal 0 -1 0
    outer loop
      vertex 2 23.9364 0
      vertex 2 23.9364 2
      vertex 0 23.9364 2
    endloop
  endfacet
  facet normal 0 -1 0
    outer loop
      vertex 0 23.9364 0
      vertex 2 23.9364 0
      vertex 0 23.9364 2
    endloop
  endfacet
  facet normal -1 0 -2.22045e-016
    outer loop
      vertex 2 23.9364 0
      vertex 2 13.6364 0
      vertex 2 23.9364 2
    endloop
  endfacet
  facet normal -1 0 -2.22045e-016
    outer loop
      vertex 2 23.9364 2
      vertex 2 13.6364 0
      vertex 2 13.6364 2
    endloop
  endfacet
endsolid OpenSCAD_Model
