solid OpenSCAD_Model
  facet normal -1 2.22045e-016 2.22045e-016
    outer loop
      vertex -50 3.66374e-014 3.66374e-014
      vertex -50 0.380602 1.91342
      vertex -50 10 3.66374e-014
    endloop
  endfacet
  facet normal -1 2.22045e-016 2.22045e-016
    outer loop
      vertex -50 10 3.66374e-014
      vertex -50 0.380602 1.91342
      vertex -50 1.46447 3.53553
    endloop
  endfacet
  facet normal -1 2.22045e-016 2.22045e-016
    outer loop
      vertex -50 10 3.66374e-014
      vertex -50 1.46447 3.53553
      vertex -50 3.08658 4.6194
    endloop
  endfacet
  facet normal -1 2.22045e-016 2.22045e-016
    outer loop
      vertex -50 10 3.66374e-014
      vertex -50 3.08658 4.6194
      vertex -50 5 5
    endloop
  endfacet
  facet normal -1 2.22045e-016 2.22045e-016
    outer loop
      vertex -50 10 3.66374e-014
      vertex -50 5 5
      vertex -50 6.91342 4.6194
    endloop
  endfacet
  facet normal -1 2.22045e-016 2.22045e-016
    outer loop
      vertex -50 10 3.66374e-014
      vertex -50 6.91342 4.6194
      vertex -50 8.53553 3.53553
    endloop
  endfacet
  facet normal -1 2.22045e-016 2.22045e-016
    outer loop
      vertex -50 10 3.66374e-014
      vertex -50 8.53553 3.53553
      vertex -50 9.6194 1.91342
    endloop
  endfacet
  facet normal -1.74459e-016 -0.980785 0.19509
    outer loop
      vertex -50 0.380602 1.91342
      vertex -50 3.66374e-014 3.66374e-014
      vertex -1.5 2.58682e-014 2.58682e-014
    endloop
  endfacet
  facet normal -1.74459e-016 -0.980785 0.19509
    outer loop
      vertex -1.5 0.380602 1.91342
      vertex -50 0.380602 1.91342
      vertex -1.5 2.58682e-014 2.58682e-014
    endloop
  endfacet
  facet normal -2.22045e-016 4.93038e-032 -1
    outer loop
      vertex -1.5 10 2.58682e-014
      vertex -1.5 2.58682e-014 2.58682e-014
      vertex -50 10 3.66374e-014
    endloop
  endfacet
  facet normal -2.22045e-016 4.93038e-032 -1
    outer loop
      vertex -50 10 3.66374e-014
      vertex -1.5 2.58682e-014 2.58682e-014
      vertex -50 3.66374e-014 3.66374e-014
    endloop
  endfacet
  facet normal 2.61097e-016 0.980785 0.19509
    outer loop
      vertex -50 10 3.66374e-014
      vertex -50 9.6194 1.91342
      vertex -1.5 10 2.58682e-014
    endloop
  endfacet
  facet normal 2.61097e-016 0.980785 0.19509
    outer loop
      vertex -1.5 10 2.58682e-014
      vertex -50 9.6194 1.91342
      vertex -1.5 9.6194 1.91342
    endloop
  endfacet
  facet normal 3.07985e-016 0.83147 0.55557
    outer loop
      vertex -50 9.6194 1.91342
      vertex -50 8.53553 3.53553
      vertex -1.5 9.6194 1.91342
    endloop
  endfacet
  facet normal 3.07985e-016 0.83147 0.55557
    outer loop
      vertex 2 8.89337 3
      vertex -50 8.53553 3.53553
      vertex 115 8.53553 3.53553
    endloop
  endfacet
  facet normal 3.07985e-016 0.83147 0.55557
    outer loop
      vertex 20 9.6194 1.91342
      vertex 115 8.53553 3.53553
      vertex 115 9.6194 1.91342
    endloop
  endfacet
  facet normal 3.07985e-016 0.83147 0.55557
    outer loop
      vertex 20 9.56155 2
      vertex 115 8.53553 3.53553
      vertex 20 9.6194 1.91342
    endloop
  endfacet
  facet normal 3.07985e-016 0.83147 0.55557
    outer loop
      vertex 2 9.56155 2
      vertex 115 8.53553 3.53553
      vertex 20 9.56155 2
    endloop
  endfacet
  facet normal 3.07985e-016 0.83147 0.55557
    outer loop
      vertex -1.5 8.89337 3
      vertex -50 8.53553 3.53553
      vertex 2 8.89337 3
    endloop
  endfacet
  facet normal 3.07985e-016 0.83147 0.55557
    outer loop
      vertex 2 9.56155 2
      vertex 2 8.89337 3
      vertex 115 8.53553 3.53553
    endloop
  endfacet
  facet normal 3.07985e-016 0.83147 0.55557
    outer loop
      vertex -1.5 9.6194 1.91342
      vertex -50 8.53553 3.53553
      vertex -1.5 8.89337 3
    endloop
  endfacet
  facet normal 3.07985e-016 0.55557 0.83147
    outer loop
      vertex -50 8.53553 3.53553
      vertex -50 6.91342 4.6194
      vertex 115 6.91342 4.6194
    endloop
  endfacet
  facet normal 3.07985e-016 0.55557 0.83147
    outer loop
      vertex 115 8.53553 3.53553
      vertex -50 8.53553 3.53553
      vertex 115 6.91342 4.6194
    endloop
  endfacet
  facet normal 2.61097e-016 0.19509 0.980785
    outer loop
      vertex -50 6.91342 4.6194
      vertex -50 5 5
      vertex 115 5 5
    endloop
  endfacet
  facet normal 2.61097e-016 0.19509 0.980785
    outer loop
      vertex 115 6.91342 4.6194
      vertex -50 6.91342 4.6194
      vertex 115 5 5
    endloop
  endfacet
  facet normal 1.74459e-016 -0.19509 0.980785
    outer loop
      vertex -50 5 5
      vertex -50 3.08658 4.6194
      vertex 115 3.08658 4.6194
    endloop
  endfacet
  facet normal 1.74459e-016 -0.19509 0.980785
    outer loop
      vertex 115 5 5
      vertex -50 5 5
      vertex 115 3.08658 4.6194
    endloop
  endfacet
  facet normal 6.1262e-017 -0.55557 0.83147
    outer loop
      vertex -50 3.08658 4.6194
      vertex -50 1.46447 3.53553
      vertex 115 1.46447 3.53553
    endloop
  endfacet
  facet normal 6.1262e-017 -0.55557 0.83147
    outer loop
      vertex 115 3.08658 4.6194
      vertex -50 3.08658 4.6194
      vertex 115 1.46447 3.53553
    endloop
  endfacet
  facet normal -6.1262e-017 -0.83147 0.55557
    outer loop
      vertex -50 1.46447 3.53553
      vertex -50 0.380602 1.91342
      vertex -1.5 0.380602 1.91342
    endloop
  endfacet
  facet normal -6.1262e-017 -0.83147 0.55557
    outer loop
      vertex 2 1.10663 3
      vertex -50 1.46447 3.53553
      vertex -1.5 1.10663 3
    endloop
  endfacet
  facet normal -6.1262e-017 -0.83147 0.55557
    outer loop
      vertex -1.5 1.10663 3
      vertex -50 1.46447 3.53553
      vertex -1.5 0.380602 1.91342
    endloop
  endfacet
  facet normal -6.1262e-017 -0.83147 0.55557
    outer loop
      vertex 115 0.380602 1.91342
      vertex -50 1.46447 3.53553
      vertex 2 1.10663 3
    endloop
  endfacet
  facet normal -6.1262e-017 -0.83147 0.55557
    outer loop
      vertex 115 0.380602 1.91342
      vertex 2 1.10663 3
      vertex 2 0.380602 1.91342
    endloop
  endfacet
  facet normal -6.1262e-017 -0.83147 0.55557
    outer loop
      vertex 115 1.46447 3.53553
      vertex -50 1.46447 3.53553
      vertex 115 0.380602 1.91342
    endloop
  endfacet
  facet normal 1 0 2.22045e-016
    outer loop
      vertex -1.5 0.380602 1.91342
      vertex -1.5 2.58682e-014 2.58682e-014
      vertex -1.5 10 2.58682e-014
    endloop
  endfacet
  facet normal 1 0 2.22045e-016
    outer loop
      vertex -1.5 8.89337 3
      vertex -1.5 0.380602 1.91342
      vertex -1.5 9.6194 1.91342
    endloop
  endfacet
  facet normal 1 0 2.22045e-016
    outer loop
      vertex -1.5 9.6194 1.91342
      vertex -1.5 0.380602 1.91342
      vertex -1.5 10 2.58682e-014
    endloop
  endfacet
  facet normal 1 0 2.22045e-016
    outer loop
      vertex -1.5 1.10663 3
      vertex -1.5 0.380602 1.91342
      vertex -1.5 8.89337 3
    endloop
  endfacet
  facet normal 2.22045e-016 0 -1
    outer loop
      vertex 2 8.89337 3
      vertex 2 1.10663 3
      vertex -1.5 8.89337 3
    endloop
  endfacet
  facet normal 2.22045e-016 0 -1
    outer loop
      vertex -1.5 8.89337 3
      vertex 2 1.10663 3
      vertex -1.5 1.10663 3
    endloop
  endfacet
  facet normal -1 0 -2.22045e-016
    outer loop
      vertex 2 9.56155 2
      vertex 2 10.2 2
      vertex 2 10.2 0
    endloop
  endfacet
  facet normal -1 0 -2.22045e-016
    outer loop
      vertex 2 9.56155 2
      vertex 2 10.2 0
      vertex 2 8.89337 3
    endloop
  endfacet
  facet normal -1 0 -2.22045e-016
    outer loop
      vertex 2 10.2 0
      vertex 2 5 0
      vertex 2 8.89337 3
    endloop
  endfacet
  facet normal -1 0 -2.22045e-016
    outer loop
      vertex 2 5 0
      vertex 2 5 2.5091e-014
      vertex 2 8.89337 3
    endloop
  endfacet
  facet normal -1 0 -2.22045e-016
    outer loop
      vertex 2 5 2.5091e-014
      vertex 2 2.5091e-014 2.5091e-014
      vertex 2 8.89337 3
    endloop
  endfacet
  facet normal -1 0 -2.22045e-016
    outer loop
      vertex 2 2.5091e-014 2.5091e-014
      vertex 2 0.380602 1.91342
      vertex 2 8.89337 3
    endloop
  endfacet
  facet normal -1 0 -2.22045e-016
    outer loop
      vertex 2 0.380602 1.91342
      vertex 2 1.10663 3
      vertex 2 8.89337 3
    endloop
  endfacet
  facet normal 0 0 1
    outer loop
      vertex 0 13.6364 2
      vertex 0 10.2 2
      vertex 2 10.2 2
    endloop
  endfacet
  facet normal 0 0 1
    outer loop
      vertex 20 9.56155 2
      vertex 0 13.6364 2
      vertex 2 10.2 2
    endloop
  endfacet
  facet normal 0 0 1
    outer loop
      vertex 2 9.56155 2
      vertex 20 9.56155 2
      vertex 2 10.2 2
    endloop
  endfacet
  facet normal 0 0 1
    outer loop
      vertex 20 150.438 2
      vertex 2 150.438 2
      vertex 2 150 2
    endloop
  endfacet
  facet normal 0 0 1
    outer loop
      vertex 0 132.927 2
      vertex 2 132.927 2
      vertex 2 136.364 2
    endloop
  endfacet
  facet normal 0 0 1
    outer loop
      vertex 20 150.438 2
      vertex 2 150 2
      vertex 2 146.564 2
    endloop
  endfacet
  facet normal 0 0 1
    outer loop
      vertex 20 150.438 2
      vertex 2 146.564 2
      vertex 2 136.364 2
    endloop
  endfacet
  facet normal 0 0 1
    outer loop
      vertex 0 105.655 2
      vertex 2 105.655 2
      vertex 2 109.091 2
    endloop
  endfacet
  facet normal 0 0 1
    outer loop
      vertex 20 150.438 2
      vertex 2 136.364 2
      vertex 2 132.927 2
    endloop
  endfacet
  facet normal 0 0 1
    outer loop
      vertex 20 150.438 2
      vertex 2 132.927 2
      vertex 2 122.727 2
    endloop
  endfacet
  facet normal 0 0 1
    outer loop
      vertex 0 78.3818 2
      vertex 2 78.3818 2
      vertex 2 81.8182 2
    endloop
  endfacet
  facet normal 0 0 1
    outer loop
      vertex 20 150.438 2
      vertex 2 122.727 2
      vertex 2 119.291 2
    endloop
  endfacet
  facet normal 0 0 1
    outer loop
      vertex 20 150.438 2
      vertex 2 119.291 2
      vertex 2 109.091 2
    endloop
  endfacet
  facet normal 0 0 1
    outer loop
      vertex 0 51.1091 2
      vertex 2 51.1091 2
      vertex 2 54.5455 2
    endloop
  endfacet
  facet normal 0 0 1
    outer loop
      vertex 20 150.438 2
      vertex 2 109.091 2
      vertex 2 105.655 2
    endloop
  endfacet
  facet normal 0 0 1
    outer loop
      vertex 20 150.438 2
      vertex 2 105.655 2
      vertex 2 95.4545 2
    endloop
  endfacet
  facet normal 0 0 1
    outer loop
      vertex 0 23.8364 2
      vertex 2 23.8364 2
      vertex 2 27.2727 2
    endloop
  endfacet
  facet normal 0 0 1
    outer loop
      vertex 20 150.438 2
      vertex 2 95.4545 2
      vertex 2 92.0182 2
    endloop
  endfacet
  facet normal 0 0 1
    outer loop
      vertex 20 150.438 2
      vertex 2 92.0182 2
      vertex 2 81.8182 2
    endloop
  endfacet
  facet normal 0 0 1
    outer loop
      vertex 20 150.438 2
      vertex 2 81.8182 2
      vertex 2 78.3818 2
    endloop
  endfacet
  facet normal 0 0 1
    outer loop
      vertex 20 150.438 2
      vertex 2 78.3818 2
      vertex 2 68.1818 2
    endloop
  endfacet
  facet normal 0 0 1
    outer loop
      vertex 0 37.4727 2
      vertex 2 37.4727 2
      vertex 2 40.9091 2
    endloop
  endfacet
  facet normal 0 0 1
    outer loop
      vertex 20 150.438 2
      vertex 2 68.1818 2
      vertex 2 64.7455 2
    endloop
  endfacet
  facet normal 0 0 1
    outer loop
      vertex 20 150.438 2
      vertex 2 64.7455 2
      vertex 2 54.5455 2
    endloop
  endfacet
  facet normal 0 0 1
    outer loop
      vertex 0 64.7455 2
      vertex 2 64.7455 2
      vertex 2 68.1818 2
    endloop
  endfacet
  facet normal 0 0 1
    outer loop
      vertex 20 150.438 2
      vertex 2 54.5455 2
      vertex 2 51.1091 2
    endloop
  endfacet
  facet normal 0 0 1
    outer loop
      vertex 20 150.438 2
      vertex 2 51.1091 2
      vertex 2 40.9091 2
    endloop
  endfacet
  facet normal 0 0 1
    outer loop
      vertex 0 92.0182 2
      vertex 2 92.0182 2
      vertex 2 95.4545 2
    endloop
  endfacet
  facet normal 0 0 1
    outer loop
      vertex 20 150.438 2
      vertex 2 40.9091 2
      vertex 2 37.4727 2
    endloop
  endfacet
  facet normal 0 0 1
    outer loop
      vertex 20 9.56155 2
      vertex 20 150.438 2
      vertex 2 27.2727 2
    endloop
  endfacet
  facet normal 0 0 1
    outer loop
      vertex 0 119.291 2
      vertex 2 119.291 2
      vertex 2 122.727 2
    endloop
  endfacet
  facet normal 0 0 1
    outer loop
      vertex 0 146.564 2
      vertex 2 146.564 2
      vertex 2 150 2
    endloop
  endfacet
  facet normal 0 0 1
    outer loop
      vertex 20 9.56155 2
      vertex 2 27.2727 2
      vertex 2 23.8364 2
    endloop
  endfacet
  facet normal 0 0 1
    outer loop
      vertex 20 9.56155 2
      vertex 2 13.6364 2
      vertex 0 13.6364 2
    endloop
  endfacet
  facet normal 0 0 1
    outer loop
      vertex 20 9.56155 2
      vertex 2 23.8364 2
      vertex 2 13.6364 2
    endloop
  endfacet
  facet normal 0 0 1
    outer loop
      vertex 2 37.4727 2
      vertex 2 27.2727 2
      vertex 20 150.438 2
    endloop
  endfacet
  facet normal 0 0 1
    outer loop
      vertex 2 27.2727 2
      vertex 0 27.2727 2
      vertex 0 23.8364 2
    endloop
  endfacet
  facet normal 0 0 1
    outer loop
      vertex 2 40.9091 2
      vertex 0 40.9091 2
      vertex 0 37.4727 2
    endloop
  endfacet
  facet normal 0 0 1
    outer loop
      vertex 2 54.5455 2
      vertex 0 54.5455 2
      vertex 0 51.1091 2
    endloop
  endfacet
  facet normal 0 0 1
    outer loop
      vertex 2 68.1818 2
      vertex 0 68.1818 2
      vertex 0 64.7455 2
    endloop
  endfacet
  facet normal 0 0 1
    outer loop
      vertex 2 81.8182 2
      vertex 0 81.8182 2
      vertex 0 78.3818 2
    endloop
  endfacet
  facet normal 0 0 1
    outer loop
      vertex 2 95.4545 2
      vertex 0 95.4545 2
      vertex 0 92.0182 2
    endloop
  endfacet
  facet normal 0 0 1
    outer loop
      vertex 2 109.091 2
      vertex 0 109.091 2
      vertex 0 105.655 2
    endloop
  endfacet
  facet normal 0 0 1
    outer loop
      vertex 2 122.727 2
      vertex 0 122.727 2
      vertex 0 119.291 2
    endloop
  endfacet
  facet normal 0 0 1
    outer loop
      vertex 2 136.364 2
      vertex 0 136.364 2
      vertex 0 132.927 2
    endloop
  endfacet
  facet normal 0 0 1
    outer loop
      vertex 2 150 2
      vertex 0 150 2
      vertex 0 146.564 2
    endloop
  endfacet
  facet normal 1 0 0
    outer loop
      vertex 20 5 2.10942e-014
      vertex 20 5 0
      vertex 20 155 0
    endloop
  endfacet
  facet normal 1 0 0
    outer loop
      vertex 20 9.6194 1.91342
      vertex 20 150.381 1.91342
      vertex 20 150.438 2
    endloop
  endfacet
  facet normal 1 0 0
    outer loop
      vertex 20 150 2.10942e-014
      vertex 20 5 2.10942e-014
      vertex 20 155 0
    endloop
  endfacet
  facet normal 1 0 0
    outer loop
      vertex 20 155 2.10942e-014
      vertex 20 150 2.10942e-014
      vertex 20 155 0
    endloop
  endfacet
  facet normal 1 0 0
    outer loop
      vertex 20 9.6194 1.91342
      vertex 20 10 2.10942e-014
      vertex 20 150.381 1.91342
    endloop
  endfacet
  facet normal 1 0 0
    outer loop
      vertex 20 9.56155 2
      vertex 20 9.6194 1.91342
      vertex 20 150.438 2
    endloop
  endfacet
  facet normal 1 0 0
    outer loop
      vertex 20 150 2.10942e-014
      vertex 20 10 2.10942e-014
      vertex 20 5 2.10942e-014
    endloop
  endfacet
  facet normal 1 0 0
    outer loop
      vertex 20 150 2.10942e-014
      vertex 20 150.381 1.91342
      vertex 20 10 2.10942e-014
    endloop
  endfacet
  facet normal 2.61097e-016 0.980785 0.19509
    outer loop
      vertex 20 9.6194 1.91342
      vertex 115 9.6194 1.91342
      vertex 20 10 2.10942e-014
    endloop
  endfacet
  facet normal 2.61097e-016 0.980785 0.19509
    outer loop
      vertex 20 10 2.10942e-014
      vertex 115 9.6194 1.91342
      vertex 115 10 0
    endloop
  endfacet
  facet normal 1 -2.22045e-016 -2.22045e-016
    outer loop
      vertex 115 0.380602 1.91342
      vertex 115 0 0
      vertex 115 10 0
    endloop
  endfacet
  facet normal 1 -2.22045e-016 -2.22045e-016
    outer loop
      vertex 115 8.53553 3.53553
      vertex 115 0.380602 1.91342
      vertex 115 9.6194 1.91342
    endloop
  endfacet
  facet normal 1 -2.22045e-016 -2.22045e-016
    outer loop
      vertex 115 9.6194 1.91342
      vertex 115 0.380602 1.91342
      vertex 115 10 0
    endloop
  endfacet
  facet normal 1 -2.22045e-016 -2.22045e-016
    outer loop
      vertex 115 6.91342 4.6194
      vertex 115 0.380602 1.91342
      vertex 115 8.53553 3.53553
    endloop
  endfacet
  facet normal 1 -2.22045e-016 -2.22045e-016
    outer loop
      vertex 115 5 5
      vertex 115 0.380602 1.91342
      vertex 115 6.91342 4.6194
    endloop
  endfacet
  facet normal 1 -2.22045e-016 -2.22045e-016
    outer loop
      vertex 115 3.08658 4.6194
      vertex 115 0.380602 1.91342
      vertex 115 5 5
    endloop
  endfacet
  facet normal 1 -2.22045e-016 -2.22045e-016
    outer loop
      vertex 115 1.46447 3.53553
      vertex 115 0.380602 1.91342
      vertex 115 3.08658 4.6194
    endloop
  endfacet
  facet normal -1.74459e-016 -0.980785 0.19509
    outer loop
      vertex 115 0.380602 1.91342
      vertex 2 0.380602 1.91342
      vertex 2 2.5091e-014 2.5091e-014
    endloop
  endfacet
  facet normal -1.74459e-016 -0.980785 0.19509
    outer loop
      vertex 115 0 0
      vertex 115 0.380602 1.91342
      vertex 2 2.5091e-014 2.5091e-014
    endloop
  endfacet
  facet normal -2.22045e-016 4.93038e-032 -1
    outer loop
      vertex 20 10 2.10942e-014
      vertex 115 10 0
      vertex 20 5 2.10942e-014
    endloop
  endfacet
  facet normal -2.22045e-016 4.93038e-032 -1
    outer loop
      vertex 20 5 2.10942e-014
      vertex 115 10 0
      vertex 115 0 0
    endloop
  endfacet
  facet normal -2.22045e-016 4.93038e-032 -1
    outer loop
      vertex 20 5 2.10942e-014
      vertex 115 0 0
      vertex 2 2.5091e-014 2.5091e-014
    endloop
  endfacet
  facet normal -2.22045e-016 4.93038e-032 -1
    outer loop
      vertex 20 5 2.10942e-014
      vertex 2 2.5091e-014 2.5091e-014
      vertex 2 5 2.5091e-014
    endloop
  endfacet
  facet normal 0 -1 0
    outer loop
      vertex 20 5 2.10942e-014
      vertex 2 5 2.5091e-014
      vertex 2 5 0
    endloop
  endfacet
  facet normal 0 -1 0
    outer loop
      vertex 20 5 0
      vertex 20 5 2.10942e-014
      vertex 2 5 0
    endloop
  endfacet
  facet normal 0 0 -1
    outer loop
      vertex 0 10.2 0
      vertex 0 13.6364 0
      vertex 2 10.2 0
    endloop
  endfacet
  facet normal 0 0 -1
    outer loop
      vertex 2 10.2 0
      vertex 0 13.6364 0
      vertex 2 13.6364 0
    endloop
  endfacet
  facet normal 0 0 -1
    outer loop
      vertex 2 13.6364 0
      vertex 20 155 0
      vertex 2 10.2 0
    endloop
  endfacet
  facet normal 0 0 -1
    outer loop
      vertex 2 23.8364 0
      vertex 0 23.8364 0
      vertex 0 27.2727 0
    endloop
  endfacet
  facet normal 0 0 -1
    outer loop
      vertex 2 23.8364 0
      vertex 0 27.2727 0
      vertex 2 27.2727 0
    endloop
  endfacet
  facet normal 0 0 -1
    outer loop
      vertex 2 23.8364 0
      vertex 20 155 0
      vertex 2 13.6364 0
    endloop
  endfacet
  facet normal 0 0 -1
    outer loop
      vertex 2 27.2727 0
      vertex 20 155 0
      vertex 2 23.8364 0
    endloop
  endfacet
  facet normal 0 0 -1
    outer loop
      vertex 2 37.4727 0
      vertex 0 37.4727 0
      vertex 0 40.9091 0
    endloop
  endfacet
  facet normal 0 0 -1
    outer loop
      vertex 2 37.4727 0
      vertex 0 40.9091 0
      vertex 2 40.9091 0
    endloop
  endfacet
  facet normal 0 0 -1
    outer loop
      vertex 2 37.4727 0
      vertex 20 155 0
      vertex 2 27.2727 0
    endloop
  endfacet
  facet normal 0 0 -1
    outer loop
      vertex 2 40.9091 0
      vertex 20 155 0
      vertex 2 37.4727 0
    endloop
  endfacet
  facet normal 0 0 -1
    outer loop
      vertex 2 51.1091 0
      vertex 0 51.1091 0
      vertex 0 54.5455 0
    endloop
  endfacet
  facet normal 0 0 -1
    outer loop
      vertex 2 51.1091 0
      vertex 0 54.5455 0
      vertex 2 54.5455 0
    endloop
  endfacet
  facet normal 0 0 -1
    outer loop
      vertex 2 51.1091 0
      vertex 20 155 0
      vertex 2 40.9091 0
    endloop
  endfacet
  facet normal 0 0 -1
    outer loop
      vertex 2 54.5455 0
      vertex 20 155 0
      vertex 2 51.1091 0
    endloop
  endfacet
  facet normal 0 0 -1
    outer loop
      vertex 2 64.7455 0
      vertex 0 64.7455 0
      vertex 0 68.1818 0
    endloop
  endfacet
  facet normal 0 0 -1
    outer loop
      vertex 2 64.7455 0
      vertex 0 68.1818 0
      vertex 2 68.1818 0
    endloop
  endfacet
  facet normal 0 0 -1
    outer loop
      vertex 2 64.7455 0
      vertex 20 155 0
      vertex 2 54.5455 0
    endloop
  endfacet
  facet normal 0 0 -1
    outer loop
      vertex 2 68.1818 0
      vertex 20 155 0
      vertex 2 64.7455 0
    endloop
  endfacet
  facet normal 0 0 -1
    outer loop
      vertex 2 78.3818 0
      vertex 0 78.3818 0
      vertex 0 81.8182 0
    endloop
  endfacet
  facet normal 0 0 -1
    outer loop
      vertex 2 78.3818 0
      vertex 0 81.8182 0
      vertex 2 81.8182 0
    endloop
  endfacet
  facet normal 0 0 -1
    outer loop
      vertex 2 78.3818 0
      vertex 20 155 0
      vertex 2 68.1818 0
    endloop
  endfacet
  facet normal 0 0 -1
    outer loop
      vertex 2 81.8182 0
      vertex 20 155 0
      vertex 2 78.3818 0
    endloop
  endfacet
  facet normal 0 0 -1
    outer loop
      vertex 2 92.0182 0
      vertex 0 92.0182 0
      vertex 0 95.4545 0
    endloop
  endfacet
  facet normal 0 0 -1
    outer loop
      vertex 2 92.0182 0
      vertex 0 95.4545 0
      vertex 2 95.4545 0
    endloop
  endfacet
  facet normal 0 0 -1
    outer loop
      vertex 2 92.0182 0
      vertex 20 155 0
      vertex 2 81.8182 0
    endloop
  endfacet
  facet normal 0 0 -1
    outer loop
      vertex 2 95.4545 0
      vertex 20 155 0
      vertex 2 92.0182 0
    endloop
  endfacet
  facet normal 0 0 -1
    outer loop
      vertex 2 105.655 0
      vertex 0 105.655 0
      vertex 0 109.091 0
    endloop
  endfacet
  facet normal 0 0 -1
    outer loop
      vertex 2 105.655 0
      vertex 0 109.091 0
      vertex 2 109.091 0
    endloop
  endfacet
  facet normal 0 0 -1
    outer loop
      vertex 2 105.655 0
      vertex 20 155 0
      vertex 2 95.4545 0
    endloop
  endfacet
  facet normal 0 0 -1
    outer loop
      vertex 2 109.091 0
      vertex 20 155 0
      vertex 2 105.655 0
    endloop
  endfacet
  facet normal 0 0 -1
    outer loop
      vertex 2 119.291 0
      vertex 0 119.291 0
      vertex 0 122.727 0
    endloop
  endfacet
  facet normal 0 0 -1
    outer loop
      vertex 2 119.291 0
      vertex 0 122.727 0
      vertex 2 122.727 0
    endloop
  endfacet
  facet normal 0 0 -1
    outer loop
      vertex 2 119.291 0
      vertex 20 155 0
      vertex 2 109.091 0
    endloop
  endfacet
  facet normal 0 0 -1
    outer loop
      vertex 2 122.727 0
      vertex 20 155 0
      vertex 2 119.291 0
    endloop
  endfacet
  facet normal 0 0 -1
    outer loop
      vertex 2 132.927 0
      vertex 0 132.927 0
      vertex 0 136.364 0
    endloop
  endfacet
  facet normal 0 0 -1
    outer loop
      vertex 2 132.927 0
      vertex 0 136.364 0
      vertex 2 136.364 0
    endloop
  endfacet
  facet normal 0 0 -1
    outer loop
      vertex 2 132.927 0
      vertex 20 155 0
      vertex 2 122.727 0
    endloop
  endfacet
  facet normal 0 0 -1
    outer loop
      vertex 2 136.364 0
      vertex 20 155 0
      vertex 2 132.927 0
    endloop
  endfacet
  facet normal 0 0 -1
    outer loop
      vertex 2 146.564 0
      vertex 0 146.564 0
      vertex 0 150 0
    endloop
  endfacet
  facet normal 0 0 -1
    outer loop
      vertex 2 146.564 0
      vertex 0 150 0
      vertex 2 150 0
    endloop
  endfacet
  facet normal 0 0 -1
    outer loop
      vertex 2 146.564 0
      vertex 20 155 0
      vertex 2 136.364 0
    endloop
  endfacet
  facet normal 0 0 -1
    outer loop
      vertex 2 150 0
      vertex 2 155 0
      vertex 20 155 0
    endloop
  endfacet
  facet normal 0 0 -1
    outer loop
      vertex 2 150 0
      vertex 20 155 0
      vertex 2 146.564 0
    endloop
  endfacet
  facet normal 0 0 -1
    outer loop
      vertex 2 10.2 0
      vertex 20 155 0
      vertex 20 5 0
    endloop
  endfacet
  facet normal 0 0 -1
    outer loop
      vertex 2 10.2 0
      vertex 20 5 0
      vertex 2 5 0
    endloop
  endfacet
  facet normal 0 -1 0
    outer loop
      vertex 2 10.2 0
      vertex 2 10.2 2
      vertex 0 10.2 2
    endloop
  endfacet
  facet normal 0 -1 0
    outer loop
      vertex 0 10.2 0
      vertex 2 10.2 0
      vertex 0 10.2 2
    endloop
  endfacet
  facet normal -1 0 0
    outer loop
      vertex 0 10.2 0
      vertex 0 10.2 2
      vertex 0 13.6364 0
    endloop
  endfacet
  facet normal -1 0 0
    outer loop
      vertex 0 13.6364 0
      vertex 0 10.2 2
      vertex 0 13.6364 2
    endloop
  endfacet
  facet normal 0 1 0
    outer loop
      vertex 2 13.6364 2
      vertex 2 13.6364 0
      vertex 0 13.6364 2
    endloop
  endfacet
  facet normal 0 1 0
    outer loop
      vertex 0 13.6364 2
      vertex 2 13.6364 0
      vertex 0 13.6364 0
    endloop
  endfacet
  facet normal -1 0 -2.22045e-016
    outer loop
      vertex 2 23.8364 0
      vertex 2 13.6364 0
      vertex 2 23.8364 2
    endloop
  endfacet
  facet normal -1 0 -2.22045e-016
    outer loop
      vertex 2 23.8364 2
      vertex 2 13.6364 0
      vertex 2 13.6364 2
    endloop
  endfacet
  facet normal 0 -1 0
    outer loop
      vertex 2 23.8364 0
      vertex 2 23.8364 2
      vertex 0 23.8364 2
    endloop
  endfacet
  facet normal 0 -1 0
    outer loop
      vertex 0 23.8364 0
      vertex 2 23.8364 0
      vertex 0 23.8364 2
    endloop
  endfacet
  facet normal -1 0 0
    outer loop
      vertex 0 23.8364 0
      vertex 0 23.8364 2
      vertex 0 27.2727 0
    endloop
  endfacet
  facet normal -1 0 0
    outer loop
      vertex 0 27.2727 0
      vertex 0 23.8364 2
      vertex 0 27.2727 2
    endloop
  endfacet
  facet normal 0 1 0
    outer loop
      vertex 2 27.2727 2
      vertex 2 27.2727 0
      vertex 0 27.2727 2
    endloop
  endfacet
  facet normal 0 1 0
    outer loop
      vertex 0 27.2727 2
      vertex 2 27.2727 0
      vertex 0 27.2727 0
    endloop
  endfacet
  facet normal -1 0 -2.22045e-016
    outer loop
      vertex 2 37.4727 0
      vertex 2 27.2727 0
      vertex 2 37.4727 2
    endloop
  endfacet
  facet normal -1 0 -2.22045e-016
    outer loop
      vertex 2 37.4727 2
      vertex 2 27.2727 0
      vertex 2 27.2727 2
    endloop
  endfacet
  facet normal 0 -1 0
    outer loop
      vertex 2 37.4727 0
      vertex 2 37.4727 2
      vertex 0 37.4727 2
    endloop
  endfacet
  facet normal 0 -1 0
    outer loop
      vertex 0 37.4727 0
      vertex 2 37.4727 0
      vertex 0 37.4727 2
    endloop
  endfacet
  facet normal -1 0 0
    outer loop
      vertex 0 37.4727 0
      vertex 0 37.4727 2
      vertex 0 40.9091 0
    endloop
  endfacet
  facet normal -1 0 0
    outer loop
      vertex 0 40.9091 0
      vertex 0 37.4727 2
      vertex 0 40.9091 2
    endloop
  endfacet
  facet normal 0 1 0
    outer loop
      vertex 2 40.9091 2
      vertex 2 40.9091 0
      vertex 0 40.9091 2
    endloop
  endfacet
  facet normal 0 1 0
    outer loop
      vertex 0 40.9091 2
      vertex 2 40.9091 0
      vertex 0 40.9091 0
    endloop
  endfacet
  facet normal -1 0 -2.22045e-016
    outer loop
      vertex 2 51.1091 0
      vertex 2 40.9091 0
      vertex 2 51.1091 2
    endloop
  endfacet
  facet normal -1 0 -2.22045e-016
    outer loop
      vertex 2 51.1091 2
      vertex 2 40.9091 0
      vertex 2 40.9091 2
    endloop
  endfacet
  facet normal 0 -1 0
    outer loop
      vertex 2 51.1091 0
      vertex 2 51.1091 2
      vertex 0 51.1091 2
    endloop
  endfacet
  facet normal 0 -1 0
    outer loop
      vertex 0 51.1091 0
      vertex 2 51.1091 0
      vertex 0 51.1091 2
    endloop
  endfacet
  facet normal -1 0 0
    outer loop
      vertex 0 51.1091 0
      vertex 0 51.1091 2
      vertex 0 54.5455 0
    endloop
  endfacet
  facet normal -1 0 0
    outer loop
      vertex 0 54.5455 0
      vertex 0 51.1091 2
      vertex 0 54.5455 2
    endloop
  endfacet
  facet normal 0 1 0
    outer loop
      vertex 2 54.5455 2
      vertex 2 54.5455 0
      vertex 0 54.5455 2
    endloop
  endfacet
  facet normal 0 1 0
    outer loop
      vertex 0 54.5455 2
      vertex 2 54.5455 0
      vertex 0 54.5455 0
    endloop
  endfacet
  facet normal -1 0 -2.22045e-016
    outer loop
      vertex 2 64.7455 0
      vertex 2 54.5455 0
      vertex 2 64.7455 2
    endloop
  endfacet
  facet normal -1 0 -2.22045e-016
    outer loop
      vertex 2 64.7455 2
      vertex 2 54.5455 0
      vertex 2 54.5455 2
    endloop
  endfacet
  facet normal 0 -1 0
    outer loop
      vertex 2 64.7455 0
      vertex 2 64.7455 2
      vertex 0 64.7455 2
    endloop
  endfacet
  facet normal 0 -1 0
    outer loop
      vertex 0 64.7455 0
      vertex 2 64.7455 0
      vertex 0 64.7455 2
    endloop
  endfacet
  facet normal -1 0 0
    outer loop
      vertex 0 64.7455 0
      vertex 0 64.7455 2
      vertex 0 68.1818 0
    endloop
  endfacet
  facet normal -1 0 0
    outer loop
      vertex 0 68.1818 0
      vertex 0 64.7455 2
      vertex 0 68.1818 2
    endloop
  endfacet
  facet normal 0 1 0
    outer loop
      vertex 2 68.1818 2
      vertex 2 68.1818 0
      vertex 0 68.1818 2
    endloop
  endfacet
  facet normal 0 1 0
    outer loop
      vertex 0 68.1818 2
      vertex 2 68.1818 0
      vertex 0 68.1818 0
    endloop
  endfacet
  facet normal -1 0 -2.22045e-016
    outer loop
      vertex 2 78.3818 0
      vertex 2 68.1818 0
      vertex 2 78.3818 2
    endloop
  endfacet
  facet normal -1 0 -2.22045e-016
    outer loop
      vertex 2 78.3818 2
      vertex 2 68.1818 0
      vertex 2 68.1818 2
    endloop
  endfacet
  facet normal 0 -1 0
    outer loop
      vertex 2 78.3818 0
      vertex 2 78.3818 2
      vertex 0 78.3818 2
    endloop
  endfacet
  facet normal 0 -1 0
    outer loop
      vertex 0 78.3818 0
      vertex 2 78.3818 0
      vertex 0 78.3818 2
    endloop
  endfacet
  facet normal -1 0 0
    outer loop
      vertex 0 78.3818 0
      vertex 0 78.3818 2
      vertex 0 81.8182 0
    endloop
  endfacet
  facet normal -1 0 0
    outer loop
      vertex 0 81.8182 0
      vertex 0 78.3818 2
      vertex 0 81.8182 2
    endloop
  endfacet
  facet normal 0 1 0
    outer loop
      vertex 2 81.8182 2
      vertex 2 81.8182 0
      vertex 0 81.8182 2
    endloop
  endfacet
  facet normal 0 1 0
    outer loop
      vertex 0 81.8182 2
      vertex 2 81.8182 0
      vertex 0 81.8182 0
    endloop
  endfacet
  facet normal -1 0 -2.22045e-016
    outer loop
      vertex 2 92.0182 0
      vertex 2 81.8182 0
      vertex 2 92.0182 2
    endloop
  endfacet
  facet normal -1 0 -2.22045e-016
    outer loop
      vertex 2 92.0182 2
      vertex 2 81.8182 0
      vertex 2 81.8182 2
    endloop
  endfacet
  facet normal 0 -1 0
    outer loop
      vertex 2 92.0182 0
      vertex 2 92.0182 2
      vertex 0 92.0182 2
    endloop
  endfacet
  facet normal 0 -1 0
    outer loop
      vertex 0 92.0182 0
      vertex 2 92.0182 0
      vertex 0 92.0182 2
    endloop
  endfacet
  facet normal -1 0 0
    outer loop
      vertex 0 92.0182 0
      vertex 0 92.0182 2
      vertex 0 95.4545 0
    endloop
  endfacet
  facet normal -1 0 0
    outer loop
      vertex 0 95.4545 0
      vertex 0 92.0182 2
      vertex 0 95.4545 2
    endloop
  endfacet
  facet normal 0 1 0
    outer loop
      vertex 2 95.4545 2
      vertex 2 95.4545 0
      vertex 0 95.4545 2
    endloop
  endfacet
  facet normal 0 1 0
    outer loop
      vertex 0 95.4545 2
      vertex 2 95.4545 0
      vertex 0 95.4545 0
    endloop
  endfacet
  facet normal -1 0 -2.22045e-016
    outer loop
      vertex 2 105.655 0
      vertex 2 95.4545 0
      vertex 2 105.655 2
    endloop
  endfacet
  facet normal -1 0 -2.22045e-016
    outer loop
      vertex 2 105.655 2
      vertex 2 95.4545 0
      vertex 2 95.4545 2
    endloop
  endfacet
  facet normal 0 -1 0
    outer loop
      vertex 2 105.655 0
      vertex 2 105.655 2
      vertex 0 105.655 2
    endloop
  endfacet
  facet normal 0 -1 0
    outer loop
      vertex 0 105.655 0
      vertex 2 105.655 0
      vertex 0 105.655 2
    endloop
  endfacet
  facet normal -1 0 0
    outer loop
      vertex 0 105.655 0
      vertex 0 105.655 2
      vertex 0 109.091 0
    endloop
  endfacet
  facet normal -1 0 0
    outer loop
      vertex 0 109.091 0
      vertex 0 105.655 2
      vertex 0 109.091 2
    endloop
  endfacet
  facet normal 0 1 0
    outer loop
      vertex 2 109.091 2
      vertex 2 109.091 0
      vertex 0 109.091 2
    endloop
  endfacet
  facet normal 0 1 0
    outer loop
      vertex 0 109.091 2
      vertex 2 109.091 0
      vertex 0 109.091 0
    endloop
  endfacet
  facet normal -1 0 -2.22045e-016
    outer loop
      vertex 2 119.291 0
      vertex 2 109.091 0
      vertex 2 119.291 2
    endloop
  endfacet
  facet normal -1 0 -2.22045e-016
    outer loop
      vertex 2 119.291 2
      vertex 2 109.091 0
      vertex 2 109.091 2
    endloop
  endfacet
  facet normal 0 -1 0
    outer loop
      vertex 2 119.291 0
      vertex 2 119.291 2
      vertex 0 119.291 2
    endloop
  endfacet
  facet normal 0 -1 0
    outer loop
      vertex 0 119.291 0
      vertex 2 119.291 0
      vertex 0 119.291 2
    endloop
  endfacet
  facet normal -1 0 0
    outer loop
      vertex 0 119.291 0
      vertex 0 119.291 2
      vertex 0 122.727 0
    endloop
  endfacet
  facet normal -1 0 0
    outer loop
      vertex 0 122.727 0
      vertex 0 119.291 2
      vertex 0 122.727 2
    endloop
  endfacet
  facet normal 0 1 0
    outer loop
      vertex 2 122.727 2
      vertex 2 122.727 0
      vertex 0 122.727 2
    endloop
  endfacet
  facet normal 0 1 0
    outer loop
      vertex 0 122.727 2
      vertex 2 122.727 0
      vertex 0 122.727 0
    endloop
  endfacet
  facet normal -1 0 -2.22045e-016
    outer loop
      vertex 2 132.927 0
      vertex 2 122.727 0
      vertex 2 132.927 2
    endloop
  endfacet
  facet normal -1 0 -2.22045e-016
    outer loop
      vertex 2 132.927 2
      vertex 2 122.727 0
      vertex 2 122.727 2
    endloop
  endfacet
  facet normal 0 -1 0
    outer loop
      vertex 2 132.927 0
      vertex 2 132.927 2
      vertex 0 132.927 2
    endloop
  endfacet
  facet normal 0 -1 0
    outer loop
      vertex 0 132.927 0
      vertex 2 132.927 0
      vertex 0 132.927 2
    endloop
  endfacet
  facet normal -1 0 0
    outer loop
      vertex 0 132.927 0
      vertex 0 132.927 2
      vertex 0 136.364 0
    endloop
  endfacet
  facet normal -1 0 0
    outer loop
      vertex 0 136.364 0
      vertex 0 132.927 2
      vertex 0 136.364 2
    endloop
  endfacet
  facet normal 0 1 0
    outer loop
      vertex 2 136.364 2
      vertex 2 136.364 0
      vertex 0 136.364 2
    endloop
  endfacet
  facet normal 0 1 0
    outer loop
      vertex 0 136.364 2
      vertex 2 136.364 0
      vertex 0 136.364 0
    endloop
  endfacet
  facet normal -1 0 -2.22045e-016
    outer loop
      vertex 2 146.564 0
      vertex 2 136.364 0
      vertex 2 146.564 2
    endloop
  endfacet
  facet normal -1 0 -2.22045e-016
    outer loop
      vertex 2 146.564 2
      vertex 2 136.364 0
      vertex 2 136.364 2
    endloop
  endfacet
  facet normal 0 -1 0
    outer loop
      vertex 2 146.564 0
      vertex 2 146.564 2
      vertex 0 146.564 2
    endloop
  endfacet
  facet normal 0 -1 0
    outer loop
      vertex 0 146.564 0
      vertex 2 146.564 0
      vertex 0 146.564 2
    endloop
  endfacet
  facet normal -1 0 0
    outer loop
      vertex 0 146.564 0
      vertex 0 146.564 2
      vertex 0 150 0
    endloop
  endfacet
  facet normal -1 0 0
    outer loop
      vertex 0 150 0
      vertex 0 146.564 2
      vertex 0 150 2
    endloop
  endfacet
  facet normal 0 1 0
    outer loop
      vertex 2 150 2
      vertex 2 150 0
      vertex 0 150 2
    endloop
  endfacet
  facet normal 0 1 0
    outer loop
      vertex 0 150 2
      vertex 2 150 0
      vertex 0 150 0
    endloop
  endfacet
  facet normal -1 0 -2.22045e-016
    outer loop
      vertex 2 159.619 1.91342
      vertex 2 160 2.5091e-014
      vertex 2 158.893 3
    endloop
  endfacet
  facet normal -1 0 -2.22045e-016
    outer loop
      vertex 2 158.893 3
      vertex 2 160 2.5091e-014
      vertex 2 155 2.5091e-014
    endloop
  endfacet
  facet normal -1 0 -2.22045e-016
    outer loop
      vertex 2 155 2.5091e-014
      vertex 2 155 0
      vertex 2 150 0
    endloop
  endfacet
  facet normal -1 0 -2.22045e-016
    outer loop
      vertex 2 155 2.5091e-014
      vertex 2 150 0
      vertex 2 158.893 3
    endloop
  endfacet
  facet normal -1 0 -2.22045e-016
    outer loop
      vertex 2 150.438 2
      vertex 2 150 0
      vertex 2 150 2
    endloop
  endfacet
  facet normal -1 0 -2.22045e-016
    outer loop
      vertex 2 158.893 3
      vertex 2 150 0
      vertex 2 150.438 2
    endloop
  endfacet
  facet normal -1 0 -2.22045e-016
    outer loop
      vertex 2 151.107 3
      vertex 2 158.893 3
      vertex 2 150.438 2
    endloop
  endfacet
  facet normal -6.1262e-017 -0.83147 0.55557
    outer loop
      vertex -50 151.464 3.53553
      vertex -50 150.381 1.91342
      vertex -1.5 150.381 1.91342
    endloop
  endfacet
  facet normal -6.1262e-017 -0.83147 0.55557
    outer loop
      vertex 2 151.107 3
      vertex -50 151.464 3.53553
      vertex -1.5 151.107 3
    endloop
  endfacet
  facet normal -6.1262e-017 -0.83147 0.55557
    outer loop
      vertex -1.5 151.107 3
      vertex -50 151.464 3.53553
      vertex -1.5 150.381 1.91342
    endloop
  endfacet
  facet normal -6.1262e-017 -0.83147 0.55557
    outer loop
      vertex 115 150.381 1.91342
      vertex -50 151.464 3.53553
      vertex 2 151.107 3
    endloop
  endfacet
  facet normal -6.1262e-017 -0.83147 0.55557
    outer loop
      vertex 20 150.438 2
      vertex 2 151.107 3
      vertex 2 150.438 2
    endloop
  endfacet
  facet normal -6.1262e-017 -0.83147 0.55557
    outer loop
      vertex 115 150.381 1.91342
      vertex 2 151.107 3
      vertex 20 150.438 2
    endloop
  endfacet
  facet normal -6.1262e-017 -0.83147 0.55557
    outer loop
      vertex 115 150.381 1.91342
      vertex 20 150.438 2
      vertex 20 150.381 1.91342
    endloop
  endfacet
  facet normal -6.1262e-017 -0.83147 0.55557
    outer loop
      vertex 115 151.464 3.53553
      vertex -50 151.464 3.53553
      vertex 115 150.381 1.91342
    endloop
  endfacet
  facet normal -1.74459e-016 -0.980785 0.19509
    outer loop
      vertex 20 150.381 1.91342
      vertex 20 150 2.10942e-014
      vertex 115 150 0
    endloop
  endfacet
  facet normal -1.74459e-016 -0.980785 0.19509
    outer loop
      vertex 115 150.381 1.91342
      vertex 20 150.381 1.91342
      vertex 115 150 0
    endloop
  endfacet
  facet normal -2.22045e-016 4.93038e-032 -1
    outer loop
      vertex 115 150 0
      vertex 20 150 2.10942e-014
      vertex 115 160 0
    endloop
  endfacet
  facet normal -2.22045e-016 4.93038e-032 -1
    outer loop
      vertex 115 160 0
      vertex 20 150 2.10942e-014
      vertex 20 155 2.10942e-014
    endloop
  endfacet
  facet normal -2.22045e-016 4.93038e-032 -1
    outer loop
      vertex 115 160 0
      vertex 20 155 2.10942e-014
      vertex 2 155 2.5091e-014
    endloop
  endfacet
  facet normal -2.22045e-016 4.93038e-032 -1
    outer loop
      vertex 115 160 0
      vertex 2 155 2.5091e-014
      vertex 2 160 2.5091e-014
    endloop
  endfacet
  facet normal 0 1 0
    outer loop
      vertex 2 155 2.5091e-014
      vertex 20 155 2.10942e-014
      vertex 2 155 0
    endloop
  endfacet
  facet normal 0 1 0
    outer loop
      vertex 2 155 0
      vertex 20 155 2.10942e-014
      vertex 20 155 0
    endloop
  endfacet
  facet normal 2.22045e-016 0 -1
    outer loop
      vertex 2 158.893 3
      vertex 2 151.107 3
      vertex -1.5 158.893 3
    endloop
  endfacet
  facet normal 2.22045e-016 0 -1
    outer loop
      vertex -1.5 158.893 3
      vertex 2 151.107 3
      vertex -1.5 151.107 3
    endloop
  endfacet
  facet normal 3.07985e-016 0.83147 0.55557
    outer loop
      vertex -50 159.619 1.91342
      vertex -50 158.536 3.53553
      vertex -1.5 159.619 1.91342
    endloop
  endfacet
  facet normal 3.07985e-016 0.83147 0.55557
    outer loop
      vertex 2 158.893 3
      vertex -50 158.536 3.53553
      vertex 115 158.536 3.53553
    endloop
  endfacet
  facet normal 3.07985e-016 0.83147 0.55557
    outer loop
      vertex 2 159.619 1.91342
      vertex 115 158.536 3.53553
      vertex 115 159.619 1.91342
    endloop
  endfacet
  facet normal 3.07985e-016 0.83147 0.55557
    outer loop
      vertex -1.5 158.893 3
      vertex -50 158.536 3.53553
      vertex 2 158.893 3
    endloop
  endfacet
  facet normal 3.07985e-016 0.83147 0.55557
    outer loop
      vertex -1.5 159.619 1.91342
      vertex -50 158.536 3.53553
      vertex -1.5 158.893 3
    endloop
  endfacet
  facet normal 3.07985e-016 0.83147 0.55557
    outer loop
      vertex 2 158.893 3
      vertex 115 158.536 3.53553
      vertex 2 159.619 1.91342
    endloop
  endfacet
  facet normal 2.61097e-016 0.980785 0.19509
    outer loop
      vertex 2 159.619 1.91342
      vertex 115 159.619 1.91342
      vertex 2 160 2.5091e-014
    endloop
  endfacet
  facet normal 2.61097e-016 0.980785 0.19509
    outer loop
      vertex 2 160 2.5091e-014
      vertex 115 159.619 1.91342
      vertex 115 160 0
    endloop
  endfacet
  facet normal -1 2.22045e-016 2.22045e-016
    outer loop
      vertex -50 150 3.66374e-014
      vertex -50 150.381 1.91342
      vertex -50 160 3.66374e-014
    endloop
  endfacet
  facet normal -1 2.22045e-016 2.22045e-016
    outer loop
      vertex -50 160 3.66374e-014
      vertex -50 150.381 1.91342
      vertex -50 151.464 3.53553
    endloop
  endfacet
  facet normal -1 2.22045e-016 2.22045e-016
    outer loop
      vertex -50 160 3.66374e-014
      vertex -50 151.464 3.53553
      vertex -50 153.087 4.6194
    endloop
  endfacet
  facet normal -1 2.22045e-016 2.22045e-016
    outer loop
      vertex -50 160 3.66374e-014
      vertex -50 153.087 4.6194
      vertex -50 155 5
    endloop
  endfacet
  facet normal -1 2.22045e-016 2.22045e-016
    outer loop
      vertex -50 160 3.66374e-014
      vertex -50 155 5
      vertex -50 156.913 4.6194
    endloop
  endfacet
  facet normal -1 2.22045e-016 2.22045e-016
    outer loop
      vertex -50 160 3.66374e-014
      vertex -50 156.913 4.6194
      vertex -50 158.536 3.53553
    endloop
  endfacet
  facet normal -1 2.22045e-016 2.22045e-016
    outer loop
      vertex -50 160 3.66374e-014
      vertex -50 158.536 3.53553
      vertex -50 159.619 1.91342
    endloop
  endfacet
  facet normal 6.1262e-017 -0.55557 0.83147
    outer loop
      vertex -50 153.087 4.6194
      vertex -50 151.464 3.53553
      vertex 115 151.464 3.53553
    endloop
  endfacet
  facet normal 6.1262e-017 -0.55557 0.83147
    outer loop
      vertex 115 153.087 4.6194
      vertex -50 153.087 4.6194
      vertex 115 151.464 3.53553
    endloop
  endfacet
  facet normal 1 -2.22045e-016 -2.22045e-016
    outer loop
      vertex 115 150.381 1.91342
      vertex 115 150 0
      vertex 115 160 0
    endloop
  endfacet
  facet normal 1 -2.22045e-016 -2.22045e-016
    outer loop
      vertex 115 158.536 3.53553
      vertex 115 150.381 1.91342
      vertex 115 159.619 1.91342
    endloop
  endfacet
  facet normal 1 -2.22045e-016 -2.22045e-016
    outer loop
      vertex 115 159.619 1.91342
      vertex 115 150.381 1.91342
      vertex 115 160 0
    endloop
  endfacet
  facet normal 1 -2.22045e-016 -2.22045e-016
    outer loop
      vertex 115 156.913 4.6194
      vertex 115 150.381 1.91342
      vertex 115 158.536 3.53553
    endloop
  endfacet
  facet normal 1 -2.22045e-016 -2.22045e-016
    outer loop
      vertex 115 155 5
      vertex 115 150.381 1.91342
      vertex 115 156.913 4.6194
    endloop
  endfacet
  facet normal 1 -2.22045e-016 -2.22045e-016
    outer loop
      vertex 115 153.087 4.6194
      vertex 115 150.381 1.91342
      vertex 115 155 5
    endloop
  endfacet
  facet normal 1 -2.22045e-016 -2.22045e-016
    outer loop
      vertex 115 151.464 3.53553
      vertex 115 150.381 1.91342
      vertex 115 153.087 4.6194
    endloop
  endfacet
  facet normal 1 0 2.22045e-016
    outer loop
      vertex -1.5 150.381 1.91342
      vertex -1.5 150 2.58682e-014
      vertex -1.5 160 2.58682e-014
    endloop
  endfacet
  facet normal 1 0 2.22045e-016
    outer loop
      vertex -1.5 158.893 3
      vertex -1.5 150.381 1.91342
      vertex -1.5 159.619 1.91342
    endloop
  endfacet
  facet normal 1 0 2.22045e-016
    outer loop
      vertex -1.5 159.619 1.91342
      vertex -1.5 150.381 1.91342
      vertex -1.5 160 2.58682e-014
    endloop
  endfacet
  facet normal 1 0 2.22045e-016
    outer loop
      vertex -1.5 151.107 3
      vertex -1.5 150.381 1.91342
      vertex -1.5 158.893 3
    endloop
  endfacet
  facet normal -1.74459e-016 -0.980785 0.19509
    outer loop
      vertex -50 150.381 1.91342
      vertex -50 150 3.66374e-014
      vertex -1.5 150 2.58682e-014
    endloop
  endfacet
  facet normal -1.74459e-016 -0.980785 0.19509
    outer loop
      vertex -1.5 150.381 1.91342
      vertex -50 150.381 1.91342
      vertex -1.5 150 2.58682e-014
    endloop
  endfacet
  facet normal 2.61097e-016 0.980785 0.19509
    outer loop
      vertex -50 160 3.66374e-014
      vertex -50 159.619 1.91342
      vertex -1.5 160 2.58682e-014
    endloop
  endfacet
  facet normal 2.61097e-016 0.980785 0.19509
    outer loop
      vertex -1.5 160 2.58682e-014
      vertex -50 159.619 1.91342
      vertex -1.5 159.619 1.91342
    endloop
  endfacet
  facet normal 3.07985e-016 0.55557 0.83147
    outer loop
      vertex -50 158.536 3.53553
      vertex -50 156.913 4.6194
      vertex 115 156.913 4.6194
    endloop
  endfacet
  facet normal 3.07985e-016 0.55557 0.83147
    outer loop
      vertex 115 158.536 3.53553
      vertex -50 158.536 3.53553
      vertex 115 156.913 4.6194
    endloop
  endfacet
  facet normal -2.22045e-016 4.93038e-032 -1
    outer loop
      vertex -1.5 160 2.58682e-014
      vertex -1.5 150 2.58682e-014
      vertex -50 160 3.66374e-014
    endloop
  endfacet
  facet normal -2.22045e-016 4.93038e-032 -1
    outer loop
      vertex -50 160 3.66374e-014
      vertex -1.5 150 2.58682e-014
      vertex -50 150 3.66374e-014
    endloop
  endfacet
  facet normal 2.61097e-016 0.19509 0.980785
    outer loop
      vertex -50 156.913 4.6194
      vertex -50 155 5
      vertex 115 155 5
    endloop
  endfacet
  facet normal 2.61097e-016 0.19509 0.980785
    outer loop
      vertex 115 156.913 4.6194
      vertex -50 156.913 4.6194
      vertex 115 155 5
    endloop
  endfacet
  facet normal 1.74459e-016 -0.19509 0.980785
    outer loop
      vertex -50 155 5
      vertex -50 153.087 4.6194
      vertex 115 153.087 4.6194
    endloop
  endfacet
  facet normal 1.74459e-016 -0.19509 0.980785
    outer loop
      vertex 115 155 5
      vertex -50 155 5
      vertex 115 153.087 4.6194
    endloop
  endfacet
endsolid OpenSCAD_Model
