solid OpenSCAD_Model
  facet normal -1 0 0
    outer loop
      vertex 0 10.2 0
      vertex 0 10.2 2
      vertex 0 13.6364 0
    endloop
  endfacet
  facet normal -1 0 0
    outer loop
      vertex 0 13.6364 0
      vertex 0 10.2 2
      vertex 0 13.6364 2
    endloop
  endfacet
  facet normal 0 -1 0
    outer loop
      vertex 2 10.2 0
      vertex 2 10.2 2
      vertex 0 10.2 2
    endloop
  endfacet
  facet normal 0 -1 0
    outer loop
      vertex 0 10.2 0
      vertex 2 10.2 0
      vertex 0 10.2 2
    endloop
  endfacet
  facet normal 0 0 -1
    outer loop
      vertex 0 10.2 0
      vertex 0 13.6364 0
      vertex 2 10.2 0
    endloop
  endfacet
  facet normal 0 0 -1
    outer loop
      vertex 2 10.2 0
      vertex 0 13.6364 0
      vertex 2 13.6364 0
    endloop
  endfacet
  facet normal 0 0 -1
    outer loop
      vertex 2 13.6364 0
      vertex 20 155 0
      vertex 2 10.2 0
    endloop
  endfacet
  facet normal 0 0 -1
    outer loop
      vertex 2 23.8364 0
      vertex 0 23.8364 0
      vertex 0 27.2727 0
    endloop
  endfacet
  facet normal 0 0 -1
    outer loop
      vertex 2 23.8364 0
      vertex 0 27.2727 0
      vertex 2 27.2727 0
    endloop
  endfacet
  facet normal 0 0 -1
    outer loop
      vertex 2 23.8364 0
      vertex 20 155 0
      vertex 2 13.6364 0
    endloop
  endfacet
  facet normal 0 0 -1
    outer loop
      vertex 2 27.2727 0
      vertex 20 155 0
      vertex 2 23.8364 0
    endloop
  endfacet
  facet normal 0 0 -1
    outer loop
      vertex 2 37.4727 0
      vertex 0 37.4727 0
      vertex 0 40.9091 0
    endloop
  endfacet
  facet normal 0 0 -1
    outer loop
      vertex 2 37.4727 0
      vertex 0 40.9091 0
      vertex 2 40.9091 0
    endloop
  endfacet
  facet normal 0 0 -1
    outer loop
      vertex 2 37.4727 0
      vertex 20 155 0
      vertex 2 27.2727 0
    endloop
  endfacet
  facet normal 0 0 -1
    outer loop
      vertex 2 40.9091 0
      vertex 20 155 0
      vertex 2 37.4727 0
    endloop
  endfacet
  facet normal 0 0 -1
    outer loop
      vertex 2 51.1091 0
      vertex 0 51.1091 0
      vertex 0 54.5455 0
    endloop
  endfacet
  facet normal 0 0 -1
    outer loop
      vertex 2 51.1091 0
      vertex 0 54.5455 0
      vertex 2 54.5455 0
    endloop
  endfacet
  facet normal 0 0 -1
    outer loop
      vertex 2 51.1091 0
      vertex 20 155 0
      vertex 2 40.9091 0
    endloop
  endfacet
  facet normal 0 0 -1
    outer loop
      vertex 2 54.5455 0
      vertex 20 155 0
      vertex 2 51.1091 0
    endloop
  endfacet
  facet normal 0 0 -1
    outer loop
      vertex 2 64.7455 0
      vertex 0 64.7455 0
      vertex 0 68.1818 0
    endloop
  endfacet
  facet normal 0 0 -1
    outer loop
      vertex 2 64.7455 0
      vertex 0 68.1818 0
      vertex 2 68.1818 0
    endloop
  endfacet
  facet normal 0 0 -1
    outer loop
      vertex 2 64.7455 0
      vertex 20 155 0
      vertex 2 54.5455 0
    endloop
  endfacet
  facet normal 0 0 -1
    outer loop
      vertex 2 68.1818 0
      vertex 20 155 0
      vertex 2 64.7455 0
    endloop
  endfacet
  facet normal 0 0 -1
    outer loop
      vertex 2 78.3818 0
      vertex 0 78.3818 0
      vertex 0 81.8182 0
    endloop
  endfacet
  facet normal 0 0 -1
    outer loop
      vertex 2 78.3818 0
      vertex 0 81.8182 0
      vertex 2 81.8182 0
    endloop
  endfacet
  facet normal 0 0 -1
    outer loop
      vertex 2 78.3818 0
      vertex 20 155 0
      vertex 2 68.1818 0
    endloop
  endfacet
  facet normal 0 0 -1
    outer loop
      vertex 2 81.8182 0
      vertex 20 155 0
      vertex 2 78.3818 0
    endloop
  endfacet
  facet normal 0 0 -1
    outer loop
      vertex 2 92.0182 0
      vertex 0 92.0182 0
      vertex 0 95.4545 0
    endloop
  endfacet
  facet normal 0 0 -1
    outer loop
      vertex 2 92.0182 0
      vertex 0 95.4545 0
      vertex 2 95.4545 0
    endloop
  endfacet
  facet normal 0 0 -1
    outer loop
      vertex 2 92.0182 0
      vertex 20 155 0
      vertex 2 81.8182 0
    endloop
  endfacet
  facet normal 0 0 -1
    outer loop
      vertex 2 95.4545 0
      vertex 20 155 0
      vertex 2 92.0182 0
    endloop
  endfacet
  facet normal 0 0 -1
    outer loop
      vertex 2 105.655 0
      vertex 0 105.655 0
      vertex 0 109.091 0
    endloop
  endfacet
  facet normal 0 0 -1
    outer loop
      vertex 2 105.655 0
      vertex 0 109.091 0
      vertex 2 109.091 0
    endloop
  endfacet
  facet normal 0 0 -1
    outer loop
      vertex 2 105.655 0
      vertex 20 155 0
      vertex 2 95.4545 0
    endloop
  endfacet
  facet normal 0 0 -1
    outer loop
      vertex 2 109.091 0
      vertex 20 155 0
      vertex 2 105.655 0
    endloop
  endfacet
  facet normal 0 0 -1
    outer loop
      vertex 2 119.291 0
      vertex 0 119.291 0
      vertex 0 122.727 0
    endloop
  endfacet
  facet normal 0 0 -1
    outer loop
      vertex 2 119.291 0
      vertex 0 122.727 0
      vertex 2 122.727 0
    endloop
  endfacet
  facet normal 0 0 -1
    outer loop
      vertex 2 119.291 0
      vertex 20 155 0
      vertex 2 109.091 0
    endloop
  endfacet
  facet normal 0 0 -1
    outer loop
      vertex 2 122.727 0
      vertex 20 155 0
      vertex 2 119.291 0
    endloop
  endfacet
  facet normal 0 0 -1
    outer loop
      vertex 2 132.927 0
      vertex 0 132.927 0
      vertex 0 136.364 0
    endloop
  endfacet
  facet normal 0 0 -1
    outer loop
      vertex 2 132.927 0
      vertex 0 136.364 0
      vertex 2 136.364 0
    endloop
  endfacet
  facet normal 0 0 -1
    outer loop
      vertex 2 132.927 0
      vertex 20 155 0
      vertex 2 122.727 0
    endloop
  endfacet
  facet normal 0 0 -1
    outer loop
      vertex 2 136.364 0
      vertex 20 155 0
      vertex 2 132.927 0
    endloop
  endfacet
  facet normal 0 0 -1
    outer loop
      vertex 2 146.564 0
      vertex 0 146.564 0
      vertex 0 150 0
    endloop
  endfacet
  facet normal 0 0 -1
    outer loop
      vertex 2 146.564 0
      vertex 0 150 0
      vertex 2 150 0
    endloop
  endfacet
  facet normal 0 0 -1
    outer loop
      vertex 2 146.564 0
      vertex 20 155 0
      vertex 2 136.364 0
    endloop
  endfacet
  facet normal 0 0 -1
    outer loop
      vertex 2 150 0
      vertex 2 155 0
      vertex 20 155 0
    endloop
  endfacet
  facet normal 0 0 -1
    outer loop
      vertex 2 150 0
      vertex 20 155 0
      vertex 2 146.564 0
    endloop
  endfacet
  facet normal 0 0 -1
    outer loop
      vertex 2 10.2 0
      vertex 20 155 0
      vertex 20 5 0
    endloop
  endfacet
  facet normal 0 0 -1
    outer loop
      vertex 2 10.2 0
      vertex 20 5 0
      vertex 2 5 0
    endloop
  endfacet
  facet normal 0 1 0
    outer loop
      vertex 2 13.6364 2
      vertex 2 13.6364 0
      vertex 0 13.6364 2
    endloop
  endfacet
  facet normal 0 1 0
    outer loop
      vertex 0 13.6364 2
      vertex 2 13.6364 0
      vertex 0 13.6364 0
    endloop
  endfacet
  facet normal 0 0 1
    outer loop
      vertex 0 13.6364 2
      vertex 0 10.2 2
      vertex 2 10.2 2
    endloop
  endfacet
  facet normal 0 0 1
    outer loop
      vertex 20 5 2
      vertex 0 13.6364 2
      vertex 2 10.2 2
    endloop
  endfacet
  facet normal 0 0 1
    outer loop
      vertex 2 5 2
      vertex 20 5 2
      vertex 2 10.2 2
    endloop
  endfacet
  facet normal 0 0 1
    outer loop
      vertex 20 155 2
      vertex 2 155 2
      vertex 2 150 2
    endloop
  endfacet
  facet normal 0 0 1
    outer loop
      vertex 0 132.927 2
      vertex 2 132.927 2
      vertex 2 136.364 2
    endloop
  endfacet
  facet normal 0 0 1
    outer loop
      vertex 20 155 2
      vertex 2 150 2
      vertex 2 146.564 2
    endloop
  endfacet
  facet normal 0 0 1
    outer loop
      vertex 20 155 2
      vertex 2 146.564 2
      vertex 2 136.364 2
    endloop
  endfacet
  facet normal 0 0 1
    outer loop
      vertex 0 105.655 2
      vertex 2 105.655 2
      vertex 2 109.091 2
    endloop
  endfacet
  facet normal 0 0 1
    outer loop
      vertex 20 155 2
      vertex 2 136.364 2
      vertex 2 132.927 2
    endloop
  endfacet
  facet normal 0 0 1
    outer loop
      vertex 20 155 2
      vertex 2 132.927 2
      vertex 2 122.727 2
    endloop
  endfacet
  facet normal 0 0 1
    outer loop
      vertex 0 78.3818 2
      vertex 2 78.3818 2
      vertex 2 81.8182 2
    endloop
  endfacet
  facet normal 0 0 1
    outer loop
      vertex 20 155 2
      vertex 2 122.727 2
      vertex 2 119.291 2
    endloop
  endfacet
  facet normal 0 0 1
    outer loop
      vertex 20 155 2
      vertex 2 119.291 2
      vertex 2 109.091 2
    endloop
  endfacet
  facet normal 0 0 1
    outer loop
      vertex 0 51.1091 2
      vertex 2 51.1091 2
      vertex 2 54.5455 2
    endloop
  endfacet
  facet normal 0 0 1
    outer loop
      vertex 20 155 2
      vertex 2 109.091 2
      vertex 2 105.655 2
    endloop
  endfacet
  facet normal 0 0 1
    outer loop
      vertex 20 155 2
      vertex 2 105.655 2
      vertex 2 95.4545 2
    endloop
  endfacet
  facet normal 0 0 1
    outer loop
      vertex 0 23.8364 2
      vertex 2 23.8364 2
      vertex 2 27.2727 2
    endloop
  endfacet
  facet normal 0 0 1
    outer loop
      vertex 20 155 2
      vertex 2 95.4545 2
      vertex 2 92.0182 2
    endloop
  endfacet
  facet normal 0 0 1
    outer loop
      vertex 20 155 2
      vertex 2 92.0182 2
      vertex 2 81.8182 2
    endloop
  endfacet
  facet normal 0 0 1
    outer loop
      vertex 20 155 2
      vertex 2 81.8182 2
      vertex 2 78.3818 2
    endloop
  endfacet
  facet normal 0 0 1
    outer loop
      vertex 20 155 2
      vertex 2 78.3818 2
      vertex 2 68.1818 2
    endloop
  endfacet
  facet normal 0 0 1
    outer loop
      vertex 0 37.4727 2
      vertex 2 37.4727 2
      vertex 2 40.9091 2
    endloop
  endfacet
  facet normal 0 0 1
    outer loop
      vertex 20 155 2
      vertex 2 68.1818 2
      vertex 2 64.7455 2
    endloop
  endfacet
  facet normal 0 0 1
    outer loop
      vertex 20 155 2
      vertex 2 64.7455 2
      vertex 2 54.5455 2
    endloop
  endfacet
  facet normal 0 0 1
    outer loop
      vertex 0 64.7455 2
      vertex 2 64.7455 2
      vertex 2 68.1818 2
    endloop
  endfacet
  facet normal 0 0 1
    outer loop
      vertex 20 155 2
      vertex 2 54.5455 2
      vertex 2 51.1091 2
    endloop
  endfacet
  facet normal 0 0 1
    outer loop
      vertex 20 155 2
      vertex 2 51.1091 2
      vertex 2 40.9091 2
    endloop
  endfacet
  facet normal 0 0 1
    outer loop
      vertex 0 92.0182 2
      vertex 2 92.0182 2
      vertex 2 95.4545 2
    endloop
  endfacet
  facet normal 0 0 1
    outer loop
      vertex 20 155 2
      vertex 2 40.9091 2
      vertex 2 37.4727 2
    endloop
  endfacet
  facet normal 0 0 1
    outer loop
      vertex 20 5 2
      vertex 20 155 2
      vertex 2 27.2727 2
    endloop
  endfacet
  facet normal 0 0 1
    outer loop
      vertex 0 119.291 2
      vertex 2 119.291 2
      vertex 2 122.727 2
    endloop
  endfacet
  facet normal 0 0 1
    outer loop
      vertex 0 146.564 2
      vertex 2 146.564 2
      vertex 2 150 2
    endloop
  endfacet
  facet normal 0 0 1
    outer loop
      vertex 20 5 2
      vertex 2 27.2727 2
      vertex 2 23.8364 2
    endloop
  endfacet
  facet normal 0 0 1
    outer loop
      vertex 20 5 2
      vertex 2 13.6364 2
      vertex 0 13.6364 2
    endloop
  endfacet
  facet normal 0 0 1
    outer loop
      vertex 20 5 2
      vertex 2 23.8364 2
      vertex 2 13.6364 2
    endloop
  endfacet
  facet normal 0 0 1
    outer loop
      vertex 2 37.4727 2
      vertex 2 27.2727 2
      vertex 20 155 2
    endloop
  endfacet
  facet normal 0 0 1
    outer loop
      vertex 2 27.2727 2
      vertex 0 27.2727 2
      vertex 0 23.8364 2
    endloop
  endfacet
  facet normal 0 0 1
    outer loop
      vertex 2 40.9091 2
      vertex 0 40.9091 2
      vertex 0 37.4727 2
    endloop
  endfacet
  facet normal 0 0 1
    outer loop
      vertex 2 54.5455 2
      vertex 0 54.5455 2
      vertex 0 51.1091 2
    endloop
  endfacet
  facet normal 0 0 1
    outer loop
      vertex 2 68.1818 2
      vertex 0 68.1818 2
      vertex 0 64.7455 2
    endloop
  endfacet
  facet normal 0 0 1
    outer loop
      vertex 2 81.8182 2
      vertex 0 81.8182 2
      vertex 0 78.3818 2
    endloop
  endfacet
  facet normal 0 0 1
    outer loop
      vertex 2 95.4545 2
      vertex 0 95.4545 2
      vertex 0 92.0182 2
    endloop
  endfacet
  facet normal 0 0 1
    outer loop
      vertex 2 109.091 2
      vertex 0 109.091 2
      vertex 0 105.655 2
    endloop
  endfacet
  facet normal 0 0 1
    outer loop
      vertex 2 122.727 2
      vertex 0 122.727 2
      vertex 0 119.291 2
    endloop
  endfacet
  facet normal 0 0 1
    outer loop
      vertex 2 136.364 2
      vertex 0 136.364 2
      vertex 0 132.927 2
    endloop
  endfacet
  facet normal 0 0 1
    outer loop
      vertex 2 150 2
      vertex 0 150 2
      vertex 0 146.564 2
    endloop
  endfacet
  facet normal -1 0 -2.22045e-016
    outer loop
      vertex 2 10.2 0
      vertex 2 5 0
      vertex 2 10.2 2
    endloop
  endfacet
  facet normal -1 0 -2.22045e-016
    outer loop
      vertex 2 10.2 2
      vertex 2 5 0
      vertex 2 5 2
    endloop
  endfacet
  facet normal 0 -1 0
    outer loop
      vertex 20 5 2
      vertex 2 5 2
      vertex 2 5 0
    endloop
  endfacet
  facet normal 0 -1 0
    outer loop
      vertex 20 5 0
      vertex 20 5 2
      vertex 2 5 0
    endloop
  endfacet
  facet normal 1 0 0
    outer loop
      vertex 20 5 2
      vertex 20 5 0
      vertex 20 155 0
    endloop
  endfacet
  facet normal 1 0 0
    outer loop
      vertex 20 155 2
      vertex 20 5 2
      vertex 20 155 0
    endloop
  endfacet
  facet normal 0 1 0
    outer loop
      vertex 2 155 2
      vertex 20 155 2
      vertex 2 155 0
    endloop
  endfacet
  facet normal 0 1 0
    outer loop
      vertex 2 155 0
      vertex 20 155 2
      vertex 20 155 0
    endloop
  endfacet
  facet normal -1 0 -2.22045e-016
    outer loop
      vertex 2 155 0
      vertex 2 150 0
      vertex 2 155 2
    endloop
  endfacet
  facet normal -1 0 -2.22045e-016
    outer loop
      vertex 2 155 2
      vertex 2 150 0
      vertex 2 150 2
    endloop
  endfacet
  facet normal 0 1 0
    outer loop
      vertex 2 150 2
      vertex 2 150 0
      vertex 0 150 2
    endloop
  endfacet
  facet normal 0 1 0
    outer loop
      vertex 0 150 2
      vertex 2 150 0
      vertex 0 150 0
    endloop
  endfacet
  facet normal -1 0 0
    outer loop
      vertex 0 146.564 0
      vertex 0 146.564 2
      vertex 0 150 0
    endloop
  endfacet
  facet normal -1 0 0
    outer loop
      vertex 0 150 0
      vertex 0 146.564 2
      vertex 0 150 2
    endloop
  endfacet
  facet normal 0 -1 0
    outer loop
      vertex 2 146.564 0
      vertex 2 146.564 2
      vertex 0 146.564 2
    endloop
  endfacet
  facet normal 0 -1 0
    outer loop
      vertex 0 146.564 0
      vertex 2 146.564 0
      vertex 0 146.564 2
    endloop
  endfacet
  facet normal -1 0 -2.22045e-016
    outer loop
      vertex 2 146.564 0
      vertex 2 136.364 0
      vertex 2 146.564 2
    endloop
  endfacet
  facet normal -1 0 -2.22045e-016
    outer loop
      vertex 2 146.564 2
      vertex 2 136.364 0
      vertex 2 136.364 2
    endloop
  endfacet
  facet normal 0 1 0
    outer loop
      vertex 2 136.364 2
      vertex 2 136.364 0
      vertex 0 136.364 2
    endloop
  endfacet
  facet normal 0 1 0
    outer loop
      vertex 0 136.364 2
      vertex 2 136.364 0
      vertex 0 136.364 0
    endloop
  endfacet
  facet normal -1 0 0
    outer loop
      vertex 0 132.927 0
      vertex 0 132.927 2
      vertex 0 136.364 0
    endloop
  endfacet
  facet normal -1 0 0
    outer loop
      vertex 0 136.364 0
      vertex 0 132.927 2
      vertex 0 136.364 2
    endloop
  endfacet
  facet normal 0 -1 0
    outer loop
      vertex 2 132.927 0
      vertex 2 132.927 2
      vertex 0 132.927 2
    endloop
  endfacet
  facet normal 0 -1 0
    outer loop
      vertex 0 132.927 0
      vertex 2 132.927 0
      vertex 0 132.927 2
    endloop
  endfacet
  facet normal -1 0 -2.22045e-016
    outer loop
      vertex 2 132.927 0
      vertex 2 122.727 0
      vertex 2 132.927 2
    endloop
  endfacet
  facet normal -1 0 -2.22045e-016
    outer loop
      vertex 2 132.927 2
      vertex 2 122.727 0
      vertex 2 122.727 2
    endloop
  endfacet
  facet normal 0 1 0
    outer loop
      vertex 2 122.727 2
      vertex 2 122.727 0
      vertex 0 122.727 2
    endloop
  endfacet
  facet normal 0 1 0
    outer loop
      vertex 0 122.727 2
      vertex 2 122.727 0
      vertex 0 122.727 0
    endloop
  endfacet
  facet normal -1 0 0
    outer loop
      vertex 0 119.291 0
      vertex 0 119.291 2
      vertex 0 122.727 0
    endloop
  endfacet
  facet normal -1 0 0
    outer loop
      vertex 0 122.727 0
      vertex 0 119.291 2
      vertex 0 122.727 2
    endloop
  endfacet
  facet normal 0 -1 0
    outer loop
      vertex 2 119.291 0
      vertex 2 119.291 2
      vertex 0 119.291 2
    endloop
  endfacet
  facet normal 0 -1 0
    outer loop
      vertex 0 119.291 0
      vertex 2 119.291 0
      vertex 0 119.291 2
    endloop
  endfacet
  facet normal -1 0 -2.22045e-016
    outer loop
      vertex 2 119.291 0
      vertex 2 109.091 0
      vertex 2 119.291 2
    endloop
  endfacet
  facet normal -1 0 -2.22045e-016
    outer loop
      vertex 2 119.291 2
      vertex 2 109.091 0
      vertex 2 109.091 2
    endloop
  endfacet
  facet normal 0 1 0
    outer loop
      vertex 2 109.091 2
      vertex 2 109.091 0
      vertex 0 109.091 2
    endloop
  endfacet
  facet normal 0 1 0
    outer loop
      vertex 0 109.091 2
      vertex 2 109.091 0
      vertex 0 109.091 0
    endloop
  endfacet
  facet normal -1 0 0
    outer loop
      vertex 0 105.655 0
      vertex 0 105.655 2
      vertex 0 109.091 0
    endloop
  endfacet
  facet normal -1 0 0
    outer loop
      vertex 0 109.091 0
      vertex 0 105.655 2
      vertex 0 109.091 2
    endloop
  endfacet
  facet normal 0 -1 0
    outer loop
      vertex 2 105.655 0
      vertex 2 105.655 2
      vertex 0 105.655 2
    endloop
  endfacet
  facet normal 0 -1 0
    outer loop
      vertex 0 105.655 0
      vertex 2 105.655 0
      vertex 0 105.655 2
    endloop
  endfacet
  facet normal -1 0 -2.22045e-016
    outer loop
      vertex 2 105.655 0
      vertex 2 95.4545 0
      vertex 2 105.655 2
    endloop
  endfacet
  facet normal -1 0 -2.22045e-016
    outer loop
      vertex 2 105.655 2
      vertex 2 95.4545 0
      vertex 2 95.4545 2
    endloop
  endfacet
  facet normal 0 1 0
    outer loop
      vertex 2 95.4545 2
      vertex 2 95.4545 0
      vertex 0 95.4545 2
    endloop
  endfacet
  facet normal 0 1 0
    outer loop
      vertex 0 95.4545 2
      vertex 2 95.4545 0
      vertex 0 95.4545 0
    endloop
  endfacet
  facet normal -1 0 0
    outer loop
      vertex 0 92.0182 0
      vertex 0 92.0182 2
      vertex 0 95.4545 0
    endloop
  endfacet
  facet normal -1 0 0
    outer loop
      vertex 0 95.4545 0
      vertex 0 92.0182 2
      vertex 0 95.4545 2
    endloop
  endfacet
  facet normal 0 -1 0
    outer loop
      vertex 2 92.0182 0
      vertex 2 92.0182 2
      vertex 0 92.0182 2
    endloop
  endfacet
  facet normal 0 -1 0
    outer loop
      vertex 0 92.0182 0
      vertex 2 92.0182 0
      vertex 0 92.0182 2
    endloop
  endfacet
  facet normal -1 0 -2.22045e-016
    outer loop
      vertex 2 92.0182 0
      vertex 2 81.8182 0
      vertex 2 92.0182 2
    endloop
  endfacet
  facet normal -1 0 -2.22045e-016
    outer loop
      vertex 2 92.0182 2
      vertex 2 81.8182 0
      vertex 2 81.8182 2
    endloop
  endfacet
  facet normal 0 1 0
    outer loop
      vertex 2 81.8182 2
      vertex 2 81.8182 0
      vertex 0 81.8182 2
    endloop
  endfacet
  facet normal 0 1 0
    outer loop
      vertex 0 81.8182 2
      vertex 2 81.8182 0
      vertex 0 81.8182 0
    endloop
  endfacet
  facet normal -1 0 0
    outer loop
      vertex 0 78.3818 0
      vertex 0 78.3818 2
      vertex 0 81.8182 0
    endloop
  endfacet
  facet normal -1 0 0
    outer loop
      vertex 0 81.8182 0
      vertex 0 78.3818 2
      vertex 0 81.8182 2
    endloop
  endfacet
  facet normal 0 -1 0
    outer loop
      vertex 2 78.3818 0
      vertex 2 78.3818 2
      vertex 0 78.3818 2
    endloop
  endfacet
  facet normal 0 -1 0
    outer loop
      vertex 0 78.3818 0
      vertex 2 78.3818 0
      vertex 0 78.3818 2
    endloop
  endfacet
  facet normal -1 0 -2.22045e-016
    outer loop
      vertex 2 78.3818 0
      vertex 2 68.1818 0
      vertex 2 78.3818 2
    endloop
  endfacet
  facet normal -1 0 -2.22045e-016
    outer loop
      vertex 2 78.3818 2
      vertex 2 68.1818 0
      vertex 2 68.1818 2
    endloop
  endfacet
  facet normal 0 1 0
    outer loop
      vertex 2 68.1818 2
      vertex 2 68.1818 0
      vertex 0 68.1818 2
    endloop
  endfacet
  facet normal 0 1 0
    outer loop
      vertex 0 68.1818 2
      vertex 2 68.1818 0
      vertex 0 68.1818 0
    endloop
  endfacet
  facet normal -1 0 0
    outer loop
      vertex 0 64.7455 0
      vertex 0 64.7455 2
      vertex 0 68.1818 0
    endloop
  endfacet
  facet normal -1 0 0
    outer loop
      vertex 0 68.1818 0
      vertex 0 64.7455 2
      vertex 0 68.1818 2
    endloop
  endfacet
  facet normal 0 -1 0
    outer loop
      vertex 2 64.7455 0
      vertex 2 64.7455 2
      vertex 0 64.7455 2
    endloop
  endfacet
  facet normal 0 -1 0
    outer loop
      vertex 0 64.7455 0
      vertex 2 64.7455 0
      vertex 0 64.7455 2
    endloop
  endfacet
  facet normal -1 0 -2.22045e-016
    outer loop
      vertex 2 64.7455 0
      vertex 2 54.5455 0
      vertex 2 64.7455 2
    endloop
  endfacet
  facet normal -1 0 -2.22045e-016
    outer loop
      vertex 2 64.7455 2
      vertex 2 54.5455 0
      vertex 2 54.5455 2
    endloop
  endfacet
  facet normal 0 1 0
    outer loop
      vertex 2 54.5455 2
      vertex 2 54.5455 0
      vertex 0 54.5455 2
    endloop
  endfacet
  facet normal 0 1 0
    outer loop
      vertex 0 54.5455 2
      vertex 2 54.5455 0
      vertex 0 54.5455 0
    endloop
  endfacet
  facet normal -1 0 0
    outer loop
      vertex 0 51.1091 0
      vertex 0 51.1091 2
      vertex 0 54.5455 0
    endloop
  endfacet
  facet normal -1 0 0
    outer loop
      vertex 0 54.5455 0
      vertex 0 51.1091 2
      vertex 0 54.5455 2
    endloop
  endfacet
  facet normal 0 -1 0
    outer loop
      vertex 2 51.1091 0
      vertex 2 51.1091 2
      vertex 0 51.1091 2
    endloop
  endfacet
  facet normal 0 -1 0
    outer loop
      vertex 0 51.1091 0
      vertex 2 51.1091 0
      vertex 0 51.1091 2
    endloop
  endfacet
  facet normal -1 0 -2.22045e-016
    outer loop
      vertex 2 51.1091 0
      vertex 2 40.9091 0
      vertex 2 51.1091 2
    endloop
  endfacet
  facet normal -1 0 -2.22045e-016
    outer loop
      vertex 2 51.1091 2
      vertex 2 40.9091 0
      vertex 2 40.9091 2
    endloop
  endfacet
  facet normal 0 1 0
    outer loop
      vertex 2 40.9091 2
      vertex 2 40.9091 0
      vertex 0 40.9091 2
    endloop
  endfacet
  facet normal 0 1 0
    outer loop
      vertex 0 40.9091 2
      vertex 2 40.9091 0
      vertex 0 40.9091 0
    endloop
  endfacet
  facet normal -1 0 0
    outer loop
      vertex 0 37.4727 0
      vertex 0 37.4727 2
      vertex 0 40.9091 0
    endloop
  endfacet
  facet normal -1 0 0
    outer loop
      vertex 0 40.9091 0
      vertex 0 37.4727 2
      vertex 0 40.9091 2
    endloop
  endfacet
  facet normal 0 -1 0
    outer loop
      vertex 2 37.4727 0
      vertex 2 37.4727 2
      vertex 0 37.4727 2
    endloop
  endfacet
  facet normal 0 -1 0
    outer loop
      vertex 0 37.4727 0
      vertex 2 37.4727 0
      vertex 0 37.4727 2
    endloop
  endfacet
  facet normal -1 0 -2.22045e-016
    outer loop
      vertex 2 37.4727 0
      vertex 2 27.2727 0
      vertex 2 37.4727 2
    endloop
  endfacet
  facet normal -1 0 -2.22045e-016
    outer loop
      vertex 2 37.4727 2
      vertex 2 27.2727 0
      vertex 2 27.2727 2
    endloop
  endfacet
  facet normal 0 1 0
    outer loop
      vertex 2 27.2727 2
      vertex 2 27.2727 0
      vertex 0 27.2727 2
    endloop
  endfacet
  facet normal 0 1 0
    outer loop
      vertex 0 27.2727 2
      vertex 2 27.2727 0
      vertex 0 27.2727 0
    endloop
  endfacet
  facet normal -1 0 0
    outer loop
      vertex 0 23.8364 0
      vertex 0 23.8364 2
      vertex 0 27.2727 0
    endloop
  endfacet
  facet normal -1 0 0
    outer loop
      vertex 0 27.2727 0
      vertex 0 23.8364 2
      vertex 0 27.2727 2
    endloop
  endfacet
  facet normal 0 -1 0
    outer loop
      vertex 2 23.8364 0
      vertex 2 23.8364 2
      vertex 0 23.8364 2
    endloop
  endfacet
  facet normal 0 -1 0
    outer loop
      vertex 0 23.8364 0
      vertex 2 23.8364 0
      vertex 0 23.8364 2
    endloop
  endfacet
  facet normal -1 0 -2.22045e-016
    outer loop
      vertex 2 23.8364 0
      vertex 2 13.6364 0
      vertex 2 23.8364 2
    endloop
  endfacet
  facet normal -1 0 -2.22045e-016
    outer loop
      vertex 2 23.8364 2
      vertex 2 13.6364 0
      vertex 2 13.6364 2
    endloop
  endfacet
endsolid OpenSCAD_Model
