solid OpenSCAD_Model
  facet normal 0 -1 0
    outer loop
      vertex -20 85.5 10
      vertex -20 85.5 4.55
      vertex 20 85.5 4.55
    endloop
  endfacet
  facet normal 0 -1 0
    outer loop
      vertex 20 85.5 10
      vertex -20 85.5 10
      vertex 20 85.5 4.55
    endloop
  endfacet
  facet normal 0 0 -1
    outer loop
      vertex -17.3642 109.633 4.55
      vertex -13.912 110.125 4.55
      vertex -20 109.173 4.55
    endloop
  endfacet
  facet normal 0 0 -1
    outer loop
      vertex -20 109.173 4.55
      vertex -13.912 110.125 4.55
      vertex -10.446 110.507 4.55
    endloop
  endfacet
  facet normal 0 0 -1
    outer loop
      vertex -20 109.173 4.55
      vertex -10.446 110.507 4.55
      vertex -6.96975 110.781 4.55
    endloop
  endfacet
  facet normal 0 0 -1
    outer loop
      vertex -20 109.173 4.55
      vertex -6.96975 110.781 4.55
      vertex -3.48659 110.945 4.55
    endloop
  endfacet
  facet normal 0 0 -1
    outer loop
      vertex -20 109.173 4.55
      vertex -3.48659 110.945 4.55
      vertex 0 111 4.55
    endloop
  endfacet
  facet normal 0 0 -1
    outer loop
      vertex -20 109.173 4.55
      vertex 0 111 4.55
      vertex 3.48659 110.945 4.55
    endloop
  endfacet
  facet normal 0 0 -1
    outer loop
      vertex -20 109.173 4.55
      vertex 3.48659 110.945 4.55
      vertex 6.96975 110.781 4.55
    endloop
  endfacet
  facet normal 0 0 -1
    outer loop
      vertex -20 109.173 4.55
      vertex 6.96975 110.781 4.55
      vertex 10.446 110.507 4.55
    endloop
  endfacet
  facet normal 0 0 -1
    outer loop
      vertex -20 109.173 4.55
      vertex 10.446 110.507 4.55
      vertex 13.912 110.125 4.55
    endloop
  endfacet
  facet normal 0 0 -1
    outer loop
      vertex -20 109.173 4.55
      vertex 13.912 110.125 4.55
      vertex 17.3642 109.633 4.55
    endloop
  endfacet
  facet normal 0 0 -1
    outer loop
      vertex -20 109.173 4.55
      vertex 17.3642 109.633 4.55
      vertex 20 109.173 4.55
    endloop
  endfacet
  facet normal 0 0 -1
    outer loop
      vertex 13.4238 91.8875 4.55
      vertex 20 109.173 4.55
      vertex 20 85.5 4.55
    endloop
  endfacet
  facet normal 0 0 -1
    outer loop
      vertex -10 89.4 4.55
      vertex 20 85.5 4.55
      vertex -20 85.5 4.55
    endloop
  endfacet
  facet normal 0 0 -1
    outer loop
      vertex -8.88754 96.4238 4.55
      vertex -20 109.173 4.55
      vertex -7.88397 95.9125 4.55
    endloop
  endfacet
  facet normal 0 0 -1
    outer loop
      vertex -20 109.173 4.55
      vertex -13.4238 91.8875 4.55
      vertex -20 85.5 4.55
    endloop
  endfacet
  facet normal 0 0 -1
    outer loop
      vertex -7.08754 90.884 4.55
      vertex 20 85.5 4.55
      vertex -7.88397 90.0875 4.55
    endloop
  endfacet
  facet normal 0 0 -1
    outer loop
      vertex -13.4238 91.8875 4.55
      vertex -12.9125 90.884 4.55
      vertex -20 85.5 4.55
    endloop
  endfacet
  facet normal 0 0 -1
    outer loop
      vertex -12.9125 90.884 4.55
      vertex -12.116 90.0875 4.55
      vertex -20 85.5 4.55
    endloop
  endfacet
  facet normal 0 0 -1
    outer loop
      vertex -7.88397 90.0875 4.55
      vertex 20 85.5 4.55
      vertex -8.88754 89.5762 4.55
    endloop
  endfacet
  facet normal 0 0 -1
    outer loop
      vertex -12.116 90.0875 4.55
      vertex -11.1125 89.5762 4.55
      vertex -20 85.5 4.55
    endloop
  endfacet
  facet normal 0 0 -1
    outer loop
      vertex -11.1125 89.5762 4.55
      vertex -10 89.4 4.55
      vertex -20 85.5 4.55
    endloop
  endfacet
  facet normal 0 0 -1
    outer loop
      vertex -6.5762 91.8875 4.55
      vertex 20 85.5 4.55
      vertex -7.08754 90.884 4.55
    endloop
  endfacet
  facet normal 0 0 -1
    outer loop
      vertex -6.4 93 4.55
      vertex 20 85.5 4.55
      vertex -6.5762 91.8875 4.55
    endloop
  endfacet
  facet normal 0 0 -1
    outer loop
      vertex -6.5762 94.1125 4.55
      vertex 20 85.5 4.55
      vertex -6.4 93 4.55
    endloop
  endfacet
  facet normal 0 0 -1
    outer loop
      vertex -7.08754 95.116 4.55
      vertex 20 85.5 4.55
      vertex -6.5762 94.1125 4.55
    endloop
  endfacet
  facet normal 0 0 -1
    outer loop
      vertex 8.88754 89.5762 4.55
      vertex 20 85.5 4.55
      vertex -7.08754 95.116 4.55
    endloop
  endfacet
  facet normal 0 0 -1
    outer loop
      vertex -20 109.173 4.55
      vertex -7.08754 95.116 4.55
      vertex -7.88397 95.9125 4.55
    endloop
  endfacet
  facet normal 0 0 -1
    outer loop
      vertex -10 96.6 4.55
      vertex -20 109.173 4.55
      vertex -8.88754 96.4238 4.55
    endloop
  endfacet
  facet normal 0 0 -1
    outer loop
      vertex -11.1125 96.4238 4.55
      vertex -20 109.173 4.55
      vertex -10 96.6 4.55
    endloop
  endfacet
  facet normal 0 0 -1
    outer loop
      vertex 10 89.4 4.55
      vertex 20 85.5 4.55
      vertex 8.88754 89.5762 4.55
    endloop
  endfacet
  facet normal 0 0 -1
    outer loop
      vertex -20 109.173 4.55
      vertex -11.1125 96.4238 4.55
      vertex -12.116 95.9125 4.55
    endloop
  endfacet
  facet normal 0 0 -1
    outer loop
      vertex -20 109.173 4.55
      vertex -12.116 95.9125 4.55
      vertex -12.9125 95.116 4.55
    endloop
  endfacet
  facet normal 0 0 -1
    outer loop
      vertex -20 109.173 4.55
      vertex -12.9125 95.116 4.55
      vertex -13.4238 94.1125 4.55
    endloop
  endfacet
  facet normal 0 0 -1
    outer loop
      vertex -20 109.173 4.55
      vertex -13.4238 94.1125 4.55
      vertex -13.6 93 4.55
    endloop
  endfacet
  facet normal 0 0 -1
    outer loop
      vertex -20 109.173 4.55
      vertex -13.6 93 4.55
      vertex -13.4238 91.8875 4.55
    endloop
  endfacet
  facet normal 0 0 -1
    outer loop
      vertex 12.9125 90.884 4.55
      vertex 20 85.5 4.55
      vertex 12.116 90.0875 4.55
    endloop
  endfacet
  facet normal 0 0 -1
    outer loop
      vertex -20 109.173 4.55
      vertex 6.5762 91.8875 4.55
      vertex -7.08754 95.116 4.55
    endloop
  endfacet
  facet normal 0 0 -1
    outer loop
      vertex 12.116 90.0875 4.55
      vertex 20 85.5 4.55
      vertex 11.1125 89.5762 4.55
    endloop
  endfacet
  facet normal 0 0 -1
    outer loop
      vertex 6.5762 91.8875 4.55
      vertex 7.08754 90.884 4.55
      vertex -7.08754 95.116 4.55
    endloop
  endfacet
  facet normal 0 0 -1
    outer loop
      vertex 11.1125 89.5762 4.55
      vertex 20 85.5 4.55
      vertex 10 89.4 4.55
    endloop
  endfacet
  facet normal 0 0 -1
    outer loop
      vertex 7.08754 90.884 4.55
      vertex 7.88397 90.0875 4.55
      vertex -7.08754 95.116 4.55
    endloop
  endfacet
  facet normal 0 0 -1
    outer loop
      vertex 7.88397 90.0875 4.55
      vertex 8.88754 89.5762 4.55
      vertex -7.08754 95.116 4.55
    endloop
  endfacet
  facet normal 0 0 -1
    outer loop
      vertex 10 96.6 4.55
      vertex -20 109.173 4.55
      vertex 11.1125 96.4238 4.55
    endloop
  endfacet
  facet normal 0 0 -1
    outer loop
      vertex 13.6 93 4.55
      vertex 20 109.173 4.55
      vertex 13.4238 91.8875 4.55
    endloop
  endfacet
  facet normal 0 0 -1
    outer loop
      vertex 12.9125 90.884 4.55
      vertex 13.4238 91.8875 4.55
      vertex 20 85.5 4.55
    endloop
  endfacet
  facet normal 0 0 -1
    outer loop
      vertex 13.4238 94.1125 4.55
      vertex 20 109.173 4.55
      vertex 13.6 93 4.55
    endloop
  endfacet
  facet normal 0 0 -1
    outer loop
      vertex 12.9125 95.116 4.55
      vertex 20 109.173 4.55
      vertex 13.4238 94.1125 4.55
    endloop
  endfacet
  facet normal 0 0 -1
    outer loop
      vertex 12.116 95.9125 4.55
      vertex 20 109.173 4.55
      vertex 12.9125 95.116 4.55
    endloop
  endfacet
  facet normal 0 0 -1
    outer loop
      vertex 11.1125 96.4238 4.55
      vertex 20 109.173 4.55
      vertex 12.116 95.9125 4.55
    endloop
  endfacet
  facet normal 0 0 -1
    outer loop
      vertex -20 109.173 4.55
      vertex 20 109.173 4.55
      vertex 11.1125 96.4238 4.55
    endloop
  endfacet
  facet normal 0 0 -1
    outer loop
      vertex 8.88754 96.4238 4.55
      vertex -20 109.173 4.55
      vertex 10 96.6 4.55
    endloop
  endfacet
  facet normal 0 0 -1
    outer loop
      vertex 7.88397 95.9125 4.55
      vertex -20 109.173 4.55
      vertex 8.88754 96.4238 4.55
    endloop
  endfacet
  facet normal 0 0 -1
    outer loop
      vertex 7.08754 95.116 4.55
      vertex -20 109.173 4.55
      vertex 7.88397 95.9125 4.55
    endloop
  endfacet
  facet normal 0 0 -1
    outer loop
      vertex 6.5762 94.1125 4.55
      vertex -20 109.173 4.55
      vertex 7.08754 95.116 4.55
    endloop
  endfacet
  facet normal 0 0 -1
    outer loop
      vertex 6.4 93 4.55
      vertex -20 109.173 4.55
      vertex 6.5762 94.1125 4.55
    endloop
  endfacet
  facet normal 0 0 -1
    outer loop
      vertex -20 109.173 4.55
      vertex 6.4 93 4.55
      vertex 6.5762 91.8875 4.55
    endloop
  endfacet
  facet normal 0 0 -1
    outer loop
      vertex -8.88754 89.5762 4.55
      vertex 20 85.5 4.55
      vertex -10 89.4 4.55
    endloop
  endfacet
  facet normal -1 0 0
    outer loop
      vertex -20 85.5 4.55
      vertex -20 85.5 10
      vertex -20 109.173 4.55
    endloop
  endfacet
  facet normal -1 0 0
    outer loop
      vertex -20 109.173 4.55
      vertex -20 85.5 10
      vertex -20 116.786 10
    endloop
  endfacet
  facet normal -1 0 0
    outer loop
      vertex -20 109.173 4.55
      vertex -20 116.786 10
      vertex -20 116.786 0
    endloop
  endfacet
  facet normal -1 0 0
    outer loop
      vertex -20 109.173 4.55
      vertex -20 116.786 0
      vertex -20 109.173 0
    endloop
  endfacet
  facet normal 0 0 1
    outer loop
      vertex -9.09481 91.7541 10
      vertex -20 85.5 10
      vertex 20 85.5 10
    endloop
  endfacet
  facet normal 0 0 1
    outer loop
      vertex 18.5375 117.041 10
      vertex -20 116.786 10
      vertex 20 116.786 10
    endloop
  endfacet
  facet normal 0 0 1
    outer loop
      vertex 14.852 117.566 10
      vertex -20 116.786 10
      vertex 18.5375 117.041 10
    endloop
  endfacet
  facet normal 0 0 1
    outer loop
      vertex 11.1518 117.974 10
      vertex -20 116.786 10
      vertex 14.852 117.566 10
    endloop
  endfacet
  facet normal 0 0 1
    outer loop
      vertex 7.44068 118.266 10
      vertex -20 116.786 10
      vertex 11.1518 117.974 10
    endloop
  endfacet
  facet normal 0 0 1
    outer loop
      vertex 3.72218 118.442 10
      vertex -20 116.786 10
      vertex 7.44068 118.266 10
    endloop
  endfacet
  facet normal 0 0 1
    outer loop
      vertex 0 118.5 10
      vertex -20 116.786 10
      vertex 3.72218 118.442 10
    endloop
  endfacet
  facet normal 0 0 1
    outer loop
      vertex -3.72218 118.442 10
      vertex -20 116.786 10
      vertex 0 118.5 10
    endloop
  endfacet
  facet normal 0 0 1
    outer loop
      vertex -7.44068 118.266 10
      vertex -20 116.786 10
      vertex -3.72218 118.442 10
    endloop
  endfacet
  facet normal 0 0 1
    outer loop
      vertex -11.1518 117.974 10
      vertex -20 116.786 10
      vertex -7.44068 118.266 10
    endloop
  endfacet
  facet normal 0 0 1
    outer loop
      vertex -14.852 117.566 10
      vertex -20 116.786 10
      vertex -11.1518 117.974 10
    endloop
  endfacet
  facet normal 0 0 1
    outer loop
      vertex -18.5375 117.041 10
      vertex -20 116.786 10
      vertex -14.852 117.566 10
    endloop
  endfacet
  facet normal 0 0 1
    outer loop
      vertex 0 113.94 10
      vertex 0.444984 113.87 10
      vertex 20 116.786 10
    endloop
  endfacet
  facet normal 0 0 1
    outer loop
      vertex -20 116.786 10
      vertex -20 85.5 10
      vertex -11.4646 92.5241 10
    endloop
  endfacet
  facet normal 0 0 1
    outer loop
      vertex -8.75411 92.0948 10
      vertex -9.09481 91.7541 10
      vertex 20 85.5 10
    endloop
  endfacet
  facet normal 0 0 1
    outer loop
      vertex -20 116.786 10
      vertex -11.4646 92.5241 10
      vertex -11.54 93 10
    endloop
  endfacet
  facet normal 0 0 1
    outer loop
      vertex -8.53537 92.5241 10
      vertex -8.75411 92.0948 10
      vertex 20 85.5 10
    endloop
  endfacet
  facet normal 0 0 1
    outer loop
      vertex -20 116.786 10
      vertex -11.54 93 10
      vertex -11.4646 93.4759 10
    endloop
  endfacet
  facet normal 0 0 1
    outer loop
      vertex -8.46 93 10
      vertex -8.53537 92.5241 10
      vertex 20 85.5 10
    endloop
  endfacet
  facet normal 0 0 1
    outer loop
      vertex -20 116.786 10
      vertex -11.4646 93.4759 10
      vertex -11.2459 93.9052 10
    endloop
  endfacet
  facet normal 0 0 1
    outer loop
      vertex -8.53537 93.4759 10
      vertex -8.46 93 10
      vertex 20 85.5 10
    endloop
  endfacet
  facet normal 0 0 1
    outer loop
      vertex -20 116.786 10
      vertex -11.2459 93.9052 10
      vertex -10.9052 94.2459 10
    endloop
  endfacet
  facet normal 0 0 1
    outer loop
      vertex -8.75411 93.9052 10
      vertex -8.53537 93.4759 10
      vertex 20 85.5 10
    endloop
  endfacet
  facet normal 0 0 1
    outer loop
      vertex -20 116.786 10
      vertex -10.9052 94.2459 10
      vertex -10.4759 94.4646 10
    endloop
  endfacet
  facet normal 0 0 1
    outer loop
      vertex -9.09481 94.2459 10
      vertex -8.75411 93.9052 10
      vertex 20 85.5 10
    endloop
  endfacet
  facet normal 0 0 1
    outer loop
      vertex -20 116.786 10
      vertex -10.4759 94.4646 10
      vertex -10 94.54 10
    endloop
  endfacet
  facet normal 0 0 1
    outer loop
      vertex 10 91.46 10
      vertex -9.52411 94.4646 10
      vertex 20 85.5 10
    endloop
  endfacet
  facet normal 0 0 1
    outer loop
      vertex -20 116.786 10
      vertex -10 94.54 10
      vertex -9.52411 94.4646 10
    endloop
  endfacet
  facet normal 0 0 1
    outer loop
      vertex -9.52411 91.5354 10
      vertex -20 85.5 10
      vertex -9.09481 91.7541 10
    endloop
  endfacet
  facet normal 0 0 1
    outer loop
      vertex -10 91.46 10
      vertex -20 85.5 10
      vertex -9.52411 91.5354 10
    endloop
  endfacet
  facet normal 0 0 1
    outer loop
      vertex -10.4759 91.5354 10
      vertex -20 85.5 10
      vertex -10 91.46 10
    endloop
  endfacet
  facet normal 0 0 1
    outer loop
      vertex -10.9052 91.7541 10
      vertex -20 85.5 10
      vertex -10.4759 91.5354 10
    endloop
  endfacet
  facet normal 0 0 1
    outer loop
      vertex -11.2459 92.0948 10
      vertex -20 85.5 10
      vertex -10.9052 91.7541 10
    endloop
  endfacet
  facet normal 0 0 1
    outer loop
      vertex -11.4646 92.5241 10
      vertex -20 85.5 10
      vertex -11.2459 92.0948 10
    endloop
  endfacet
  facet normal 0 0 1
    outer loop
      vertex -1.44 112.5 10
      vertex -20 116.786 10
      vertex -1.36952 112.055 10
    endloop
  endfacet
  facet normal 0 0 1
    outer loop
      vertex -1.36952 112.945 10
      vertex -20 116.786 10
      vertex -1.44 112.5 10
    endloop
  endfacet
  facet normal 0 0 1
    outer loop
      vertex -1.16498 113.346 10
      vertex -20 116.786 10
      vertex -1.36952 112.945 10
    endloop
  endfacet
  facet normal 0 0 1
    outer loop
      vertex -0.846411 113.665 10
      vertex -20 116.786 10
      vertex -1.16498 113.346 10
    endloop
  endfacet
  facet normal 0 0 1
    outer loop
      vertex 0.846411 113.665 10
      vertex 1.16498 113.346 10
      vertex 20 116.786 10
    endloop
  endfacet
  facet normal 0 0 1
    outer loop
      vertex -0.444984 113.87 10
      vertex -20 116.786 10
      vertex -0.846411 113.665 10
    endloop
  endfacet
  facet normal 0 0 1
    outer loop
      vertex 0 113.94 10
      vertex -20 116.786 10
      vertex -0.444984 113.87 10
    endloop
  endfacet
  facet normal 0 0 1
    outer loop
      vertex 20 116.786 10
      vertex -20 116.786 10
      vertex 0 113.94 10
    endloop
  endfacet
  facet normal 0 0 1
    outer loop
      vertex 8.75411 93.9052 10
      vertex 9.09481 94.2459 10
      vertex -20 116.786 10
    endloop
  endfacet
  facet normal 0 0 1
    outer loop
      vertex 1.16498 113.346 10
      vertex 1.36952 112.945 10
      vertex 20 116.786 10
    endloop
  endfacet
  facet normal 0 0 1
    outer loop
      vertex 1.36952 112.945 10
      vertex 1.44 112.5 10
      vertex 20 116.786 10
    endloop
  endfacet
  facet normal 0 0 1
    outer loop
      vertex -0.444984 111.13 10
      vertex -0.846411 111.335 10
      vertex 20 85.5 10
    endloop
  endfacet
  facet normal 0 0 1
    outer loop
      vertex 20 116.786 10
      vertex 1.44 112.5 10
      vertex 20 85.5 10
    endloop
  endfacet
  facet normal 0 0 1
    outer loop
      vertex 1.44 112.5 10
      vertex 1.36952 112.055 10
      vertex 20 85.5 10
    endloop
  endfacet
  facet normal 0 0 1
    outer loop
      vertex 1.36952 112.055 10
      vertex 1.16498 111.654 10
      vertex 20 85.5 10
    endloop
  endfacet
  facet normal 0 0 1
    outer loop
      vertex 1.16498 111.654 10
      vertex 0.846411 111.335 10
      vertex 20 85.5 10
    endloop
  endfacet
  facet normal 0 0 1
    outer loop
      vertex 0.846411 111.335 10
      vertex 0.444984 111.13 10
      vertex 20 85.5 10
    endloop
  endfacet
  facet normal 0 0 1
    outer loop
      vertex 0.444984 111.13 10
      vertex 0 111.06 10
      vertex 20 85.5 10
    endloop
  endfacet
  facet normal 0 0 1
    outer loop
      vertex 0 111.06 10
      vertex -0.444984 111.13 10
      vertex 20 85.5 10
    endloop
  endfacet
  facet normal 0 0 1
    outer loop
      vertex -1.16498 111.654 10
      vertex -20 116.786 10
      vertex -0.846411 111.335 10
    endloop
  endfacet
  facet normal 0 0 1
    outer loop
      vertex -1.36952 112.055 10
      vertex -20 116.786 10
      vertex -1.16498 111.654 10
    endloop
  endfacet
  facet normal 0 0 1
    outer loop
      vertex -20 116.786 10
      vertex -9.52411 94.4646 10
      vertex 8.53537 92.5241 10
    endloop
  endfacet
  facet normal 0 0 1
    outer loop
      vertex 10.4759 91.5354 10
      vertex 10 91.46 10
      vertex 20 85.5 10
    endloop
  endfacet
  facet normal 0 0 1
    outer loop
      vertex -20 116.786 10
      vertex 8.53537 92.5241 10
      vertex 8.46 93 10
    endloop
  endfacet
  facet normal 0 0 1
    outer loop
      vertex 10.9052 91.7541 10
      vertex 10.4759 91.5354 10
      vertex 20 85.5 10
    endloop
  endfacet
  facet normal 0 0 1
    outer loop
      vertex -20 116.786 10
      vertex 8.46 93 10
      vertex 8.53537 93.4759 10
    endloop
  endfacet
  facet normal 0 0 1
    outer loop
      vertex -20 116.786 10
      vertex 8.53537 93.4759 10
      vertex 8.75411 93.9052 10
    endloop
  endfacet
  facet normal 0 0 1
    outer loop
      vertex -0.846411 111.335 10
      vertex -20 116.786 10
      vertex 9.09481 94.2459 10
    endloop
  endfacet
  facet normal 0 0 1
    outer loop
      vertex 11.4646 92.5241 10
      vertex 11.2459 92.0948 10
      vertex 20 85.5 10
    endloop
  endfacet
  facet normal 0 0 1
    outer loop
      vertex -0.846411 111.335 10
      vertex 9.09481 94.2459 10
      vertex 9.52411 94.4646 10
    endloop
  endfacet
  facet normal 0 0 1
    outer loop
      vertex 11.54 93 10
      vertex 11.4646 92.5241 10
      vertex 20 85.5 10
    endloop
  endfacet
  facet normal 0 0 1
    outer loop
      vertex -0.846411 111.335 10
      vertex 9.52411 94.4646 10
      vertex 10 94.54 10
    endloop
  endfacet
  facet normal 0 0 1
    outer loop
      vertex 11.4646 93.4759 10
      vertex 11.54 93 10
      vertex 20 85.5 10
    endloop
  endfacet
  facet normal 0 0 1
    outer loop
      vertex -0.846411 111.335 10
      vertex 10 94.54 10
      vertex 10.4759 94.4646 10
    endloop
  endfacet
  facet normal 0 0 1
    outer loop
      vertex -0.846411 111.335 10
      vertex 10.9052 94.2459 10
      vertex 20 85.5 10
    endloop
  endfacet
  facet normal 0 0 1
    outer loop
      vertex -0.846411 111.335 10
      vertex 10.4759 94.4646 10
      vertex 10.9052 94.2459 10
    endloop
  endfacet
  facet normal 0 0 1
    outer loop
      vertex 10.9052 94.2459 10
      vertex 11.2459 93.9052 10
      vertex 20 85.5 10
    endloop
  endfacet
  facet normal 0 0 1
    outer loop
      vertex 11.2459 93.9052 10
      vertex 11.4646 93.4759 10
      vertex 20 85.5 10
    endloop
  endfacet
  facet normal 0 0 1
    outer loop
      vertex 11.2459 92.0948 10
      vertex 10.9052 91.7541 10
      vertex 20 85.5 10
    endloop
  endfacet
  facet normal 0 0 1
    outer loop
      vertex 9.52411 91.5354 10
      vertex -9.52411 94.4646 10
      vertex 10 91.46 10
    endloop
  endfacet
  facet normal 0 0 1
    outer loop
      vertex 9.09481 91.7541 10
      vertex -9.52411 94.4646 10
      vertex 9.52411 91.5354 10
    endloop
  endfacet
  facet normal 0 0 1
    outer loop
      vertex 8.75411 92.0948 10
      vertex -9.52411 94.4646 10
      vertex 9.09481 91.7541 10
    endloop
  endfacet
  facet normal 0 0 1
    outer loop
      vertex 8.53537 92.5241 10
      vertex -9.52411 94.4646 10
      vertex 8.75411 92.0948 10
    endloop
  endfacet
  facet normal 0 0 1
    outer loop
      vertex -9.52411 94.4646 10
      vertex -9.09481 94.2459 10
      vertex 20 85.5 10
    endloop
  endfacet
  facet normal 0 0 1
    outer loop
      vertex 0.444984 113.87 10
      vertex 0.846411 113.665 10
      vertex 20 116.786 10
    endloop
  endfacet
  facet normal 1 0 0
    outer loop
      vertex 20 85.5 10
      vertex 20 85.5 4.55
      vertex 20 109.173 4.55
    endloop
  endfacet
  facet normal 1 0 0
    outer loop
      vertex 20 116.786 10
      vertex 20 85.5 10
      vertex 20 109.173 4.55
    endloop
  endfacet
  facet normal 1 0 0
    outer loop
      vertex 20 109.173 0
      vertex 20 116.786 0
      vertex 20 109.173 4.55
    endloop
  endfacet
  facet normal 1 0 0
    outer loop
      vertex 20 116.786 0
      vertex 20 116.786 10
      vertex 20 109.173 4.55
    endloop
  endfacet
  facet normal 0.171929 -0.985109 0
    outer loop
      vertex -17.3642 109.633 0
      vertex -17.3642 109.633 4.55
      vertex -20 109.173 4.55
    endloop
  endfacet
  facet normal 0.171929 -0.985109 0
    outer loop
      vertex -20 109.173 0
      vertex -17.3642 109.633 0
      vertex -20 109.173 4.55
    endloop
  endfacet
  facet normal -0.171929 -0.985109 0
    outer loop
      vertex 20 109.173 0
      vertex 20 109.173 4.55
      vertex 17.3642 109.633 4.55
    endloop
  endfacet
  facet normal -0.171929 -0.985109 0
    outer loop
      vertex 17.3642 109.633 0
      vertex 20 109.173 0
      vertex 17.3642 109.633 4.55
    endloop
  endfacet
  facet normal -0.140901 -0.990024 0
    outer loop
      vertex 17.3642 109.633 0
      vertex 17.3642 109.633 4.55
      vertex 13.912 110.125 4.55
    endloop
  endfacet
  facet normal -0.140901 -0.990024 0
    outer loop
      vertex 13.912 110.125 0
      vertex 17.3642 109.633 0
      vertex 13.912 110.125 4.55
    endloop
  endfacet
  facet normal -0.109734 -0.993961 0
    outer loop
      vertex 13.912 110.125 0
      vertex 13.912 110.125 4.55
      vertex 10.446 110.507 4.55
    endloop
  endfacet
  facet normal -0.109734 -0.993961 0
    outer loop
      vertex 10.446 110.507 0
      vertex 13.912 110.125 0
      vertex 10.446 110.507 4.55
    endloop
  endfacet
  facet normal -0.0784592 -0.996917 0
    outer loop
      vertex 10.446 110.507 0
      vertex 10.446 110.507 4.55
      vertex 6.96975 110.781 4.55
    endloop
  endfacet
  facet normal -0.0784592 -0.996917 0
    outer loop
      vertex 6.96975 110.781 0
      vertex 10.446 110.507 0
      vertex 6.96975 110.781 4.55
    endloop
  endfacet
  facet normal -0.0471063 -0.99889 0
    outer loop
      vertex 6.96975 110.781 0
      vertex 6.96975 110.781 4.55
      vertex 3.48659 110.945 4.55
    endloop
  endfacet
  facet normal -0.0471063 -0.99889 0
    outer loop
      vertex 3.48659 110.945 0
      vertex 6.96975 110.781 0
      vertex 3.48659 110.945 4.55
    endloop
  endfacet
  facet normal -0.0157074 -0.999877 0
    outer loop
      vertex 3.20072 110.95 0.35
      vertex 3.20072 110.95 0
      vertex 3.48659 110.945 0
    endloop
  endfacet
  facet normal -0.0157074 -0.999877 0
    outer loop
      vertex 0 111 4.55
      vertex 3.20072 110.95 0.35
      vertex 3.48659 110.945 4.55
    endloop
  endfacet
  facet normal -0.0157074 -0.999877 0
    outer loop
      vertex 3.48659 110.945 4.55
      vertex 3.20072 110.95 0.35
      vertex 3.48659 110.945 0
    endloop
  endfacet
  facet normal -0.0157074 -0.999877 0
    outer loop
      vertex 0 111 0.35
      vertex 3.20072 110.95 0.35
      vertex 0 111 4.55
    endloop
  endfacet
  facet normal 0.0157074 -0.999877 0
    outer loop
      vertex 0 111 4.55
      vertex -3.20072 110.95 0.35
      vertex 0 111 0.35
    endloop
  endfacet
  facet normal 0.0157074 -0.999877 0
    outer loop
      vertex -3.48659 110.945 4.55
      vertex -3.20072 110.95 0.35
      vertex 0 111 4.55
    endloop
  endfacet
  facet normal 0.0157074 -0.999877 0
    outer loop
      vertex -3.20072 110.95 0
      vertex -3.20072 110.95 0.35
      vertex -3.48659 110.945 4.55
    endloop
  endfacet
  facet normal 0.0157074 -0.999877 0
    outer loop
      vertex -3.48659 110.945 0
      vertex -3.20072 110.95 0
      vertex -3.48659 110.945 4.55
    endloop
  endfacet
  facet normal 0.0471063 -0.99889 0
    outer loop
      vertex -3.48659 110.945 0
      vertex -3.48659 110.945 4.55
      vertex -6.96975 110.781 4.55
    endloop
  endfacet
  facet normal 0.0471063 -0.99889 0
    outer loop
      vertex -6.96975 110.781 0
      vertex -3.48659 110.945 0
      vertex -6.96975 110.781 4.55
    endloop
  endfacet
  facet normal 0.0784592 -0.996917 0
    outer loop
      vertex -6.96975 110.781 0
      vertex -6.96975 110.781 4.55
      vertex -10.446 110.507 4.55
    endloop
  endfacet
  facet normal 0.0784592 -0.996917 0
    outer loop
      vertex -10.446 110.507 0
      vertex -6.96975 110.781 0
      vertex -10.446 110.507 4.55
    endloop
  endfacet
  facet normal 0.109734 -0.993961 0
    outer loop
      vertex -10.446 110.507 0
      vertex -10.446 110.507 4.55
      vertex -13.912 110.125 4.55
    endloop
  endfacet
  facet normal 0.109734 -0.993961 0
    outer loop
      vertex -13.912 110.125 0
      vertex -10.446 110.507 0
      vertex -13.912 110.125 4.55
    endloop
  endfacet
  facet normal 0.140901 -0.990024 0
    outer loop
      vertex -13.912 110.125 0
      vertex -13.912 110.125 4.55
      vertex -17.3642 109.633 4.55
    endloop
  endfacet
  facet normal 0.140901 -0.990024 0
    outer loop
      vertex -17.3642 109.633 0
      vertex -13.912 110.125 0
      vertex -17.3642 109.633 4.55
    endloop
  endfacet
  facet normal 0.891007 0.45399 0
    outer loop
      vertex -13.4238 91.8875 8.2
      vertex -12.9125 90.884 8.2
      vertex -12.9125 90.884 4.55
    endloop
  endfacet
  facet normal 0.891007 0.45399 0
    outer loop
      vertex -13.4238 91.8875 4.55
      vertex -13.4238 91.8875 8.2
      vertex -12.9125 90.884 4.55
    endloop
  endfacet
  facet normal 0.987688 0.156435 0
    outer loop
      vertex -13.6 93 8.2
      vertex -13.4238 91.8875 8.2
      vertex -13.4238 91.8875 4.55
    endloop
  endfacet
  facet normal 0.987688 0.156435 0
    outer loop
      vertex -13.6 93 4.55
      vertex -13.6 93 8.2
      vertex -13.4238 91.8875 4.55
    endloop
  endfacet
  facet normal 0.987688 -0.156435 0
    outer loop
      vertex -13.4238 94.1125 4.55
      vertex -13.4238 94.1125 8.2
      vertex -13.6 93 8.2
    endloop
  endfacet
  facet normal 0.987688 -0.156435 0
    outer loop
      vertex -13.6 93 4.55
      vertex -13.4238 94.1125 4.55
      vertex -13.6 93 8.2
    endloop
  endfacet
  facet normal 0.891007 -0.45399 0
    outer loop
      vertex -12.9125 95.116 4.55
      vertex -12.9125 95.116 8.2
      vertex -13.4238 94.1125 8.2
    endloop
  endfacet
  facet normal 0.891007 -0.45399 0
    outer loop
      vertex -13.4238 94.1125 4.55
      vertex -12.9125 95.116 4.55
      vertex -13.4238 94.1125 8.2
    endloop
  endfacet
  facet normal 0.707107 -0.707107 0
    outer loop
      vertex -12.116 95.9125 4.55
      vertex -12.116 95.9125 8.2
      vertex -12.9125 95.116 8.2
    endloop
  endfacet
  facet normal 0.707107 -0.707107 0
    outer loop
      vertex -12.9125 95.116 4.55
      vertex -12.116 95.9125 4.55
      vertex -12.9125 95.116 8.2
    endloop
  endfacet
  facet normal 0.45399 -0.891007 0
    outer loop
      vertex -11.1125 96.4238 4.55
      vertex -11.1125 96.4238 8.2
      vertex -12.116 95.9125 8.2
    endloop
  endfacet
  facet normal 0.45399 -0.891007 0
    outer loop
      vertex -12.116 95.9125 4.55
      vertex -11.1125 96.4238 4.55
      vertex -12.116 95.9125 8.2
    endloop
  endfacet
  facet normal 0.156435 -0.987688 0
    outer loop
      vertex -10 96.6 4.55
      vertex -10 96.6 8.2
      vertex -11.1125 96.4238 8.2
    endloop
  endfacet
  facet normal 0.156435 -0.987688 0
    outer loop
      vertex -11.1125 96.4238 4.55
      vertex -10 96.6 4.55
      vertex -11.1125 96.4238 8.2
    endloop
  endfacet
  facet normal -0.156435 -0.987688 0
    outer loop
      vertex -8.88754 96.4238 4.55
      vertex -8.88754 96.4238 8.2
      vertex -10 96.6 8.2
    endloop
  endfacet
  facet normal -0.156435 -0.987688 0
    outer loop
      vertex -10 96.6 4.55
      vertex -8.88754 96.4238 4.55
      vertex -10 96.6 8.2
    endloop
  endfacet
  facet normal -0.45399 -0.891007 0
    outer loop
      vertex -7.88397 95.9125 4.55
      vertex -7.88397 95.9125 8.2
      vertex -8.88754 96.4238 8.2
    endloop
  endfacet
  facet normal -0.45399 -0.891007 0
    outer loop
      vertex -8.88754 96.4238 4.55
      vertex -7.88397 95.9125 4.55
      vertex -8.88754 96.4238 8.2
    endloop
  endfacet
  facet normal -0.707107 -0.707107 0
    outer loop
      vertex -7.08754 95.116 4.55
      vertex -7.08754 95.116 8.2
      vertex -7.88397 95.9125 8.2
    endloop
  endfacet
  facet normal -0.707107 -0.707107 0
    outer loop
      vertex -7.88397 95.9125 4.55
      vertex -7.08754 95.116 4.55
      vertex -7.88397 95.9125 8.2
    endloop
  endfacet
  facet normal -0.891007 -0.45399 0
    outer loop
      vertex -6.5762 94.1125 8.2
      vertex -7.08754 95.116 8.2
      vertex -6.5762 94.1125 4.55
    endloop
  endfacet
  facet normal -0.891007 -0.45399 0
    outer loop
      vertex -6.5762 94.1125 4.55
      vertex -7.08754 95.116 8.2
      vertex -7.08754 95.116 4.55
    endloop
  endfacet
  facet normal -0.987688 -0.156435 0
    outer loop
      vertex -6.4 93 8.2
      vertex -6.5762 94.1125 8.2
      vertex -6.4 93 4.55
    endloop
  endfacet
  facet normal -0.987688 -0.156435 0
    outer loop
      vertex -6.4 93 4.55
      vertex -6.5762 94.1125 8.2
      vertex -6.5762 94.1125 4.55
    endloop
  endfacet
  facet normal -0.987688 0.156435 0
    outer loop
      vertex -6.4 93 8.2
      vertex -6.4 93 4.55
      vertex -6.5762 91.8875 8.2
    endloop
  endfacet
  facet normal -0.987688 0.156435 0
    outer loop
      vertex -6.5762 91.8875 8.2
      vertex -6.4 93 4.55
      vertex -6.5762 91.8875 4.55
    endloop
  endfacet
  facet normal -0.891007 0.45399 0
    outer loop
      vertex -6.5762 91.8875 8.2
      vertex -6.5762 91.8875 4.55
      vertex -7.08754 90.884 8.2
    endloop
  endfacet
  facet normal -0.891007 0.45399 0
    outer loop
      vertex -7.08754 90.884 8.2
      vertex -6.5762 91.8875 4.55
      vertex -7.08754 90.884 4.55
    endloop
  endfacet
  facet normal -0.707107 0.707107 0
    outer loop
      vertex -7.08754 90.884 8.2
      vertex -7.08754 90.884 4.55
      vertex -7.88397 90.0875 8.2
    endloop
  endfacet
  facet normal -0.707107 0.707107 0
    outer loop
      vertex -7.88397 90.0875 8.2
      vertex -7.08754 90.884 4.55
      vertex -7.88397 90.0875 4.55
    endloop
  endfacet
  facet normal -0.45399 0.891007 0
    outer loop
      vertex -7.88397 90.0875 8.2
      vertex -7.88397 90.0875 4.55
      vertex -8.88754 89.5762 8.2
    endloop
  endfacet
  facet normal -0.45399 0.891007 0
    outer loop
      vertex -8.88754 89.5762 8.2
      vertex -7.88397 90.0875 4.55
      vertex -8.88754 89.5762 4.55
    endloop
  endfacet
  facet normal -0.156435 0.987688 0
    outer loop
      vertex -8.88754 89.5762 8.2
      vertex -8.88754 89.5762 4.55
      vertex -10 89.4 8.2
    endloop
  endfacet
  facet normal -0.156435 0.987688 0
    outer loop
      vertex -10 89.4 8.2
      vertex -8.88754 89.5762 4.55
      vertex -10 89.4 4.55
    endloop
  endfacet
  facet normal 0.156435 0.987688 0
    outer loop
      vertex -10 89.4 8.2
      vertex -10 89.4 4.55
      vertex -11.1125 89.5762 8.2
    endloop
  endfacet
  facet normal 0.156435 0.987688 0
    outer loop
      vertex -11.1125 89.5762 8.2
      vertex -10 89.4 4.55
      vertex -11.1125 89.5762 4.55
    endloop
  endfacet
  facet normal 0.45399 0.891007 0
    outer loop
      vertex -11.1125 89.5762 8.2
      vertex -11.1125 89.5762 4.55
      vertex -12.116 90.0875 8.2
    endloop
  endfacet
  facet normal 0.45399 0.891007 0
    outer loop
      vertex -12.116 90.0875 8.2
      vertex -11.1125 89.5762 4.55
      vertex -12.116 90.0875 4.55
    endloop
  endfacet
  facet normal 0.707107 0.707107 0
    outer loop
      vertex -12.116 90.0875 8.2
      vertex -12.116 90.0875 4.55
      vertex -12.9125 90.884 8.2
    endloop
  endfacet
  facet normal 0.707107 0.707107 0
    outer loop
      vertex -12.9125 90.884 8.2
      vertex -12.116 90.0875 4.55
      vertex -12.9125 90.884 4.55
    endloop
  endfacet
  facet normal 0.891007 0.45399 0
    outer loop
      vertex 6.5762 91.8875 8.2
      vertex 7.08754 90.884 8.2
      vertex 7.08754 90.884 4.55
    endloop
  endfacet
  facet normal 0.891007 0.45399 0
    outer loop
      vertex 6.5762 91.8875 4.55
      vertex 6.5762 91.8875 8.2
      vertex 7.08754 90.884 4.55
    endloop
  endfacet
  facet normal 0.987688 0.156435 0
    outer loop
      vertex 6.4 93 8.2
      vertex 6.5762 91.8875 8.2
      vertex 6.5762 91.8875 4.55
    endloop
  endfacet
  facet normal 0.987688 0.156435 0
    outer loop
      vertex 6.4 93 4.55
      vertex 6.4 93 8.2
      vertex 6.5762 91.8875 4.55
    endloop
  endfacet
  facet normal 0.987688 -0.156435 0
    outer loop
      vertex 6.5762 94.1125 4.55
      vertex 6.5762 94.1125 8.2
      vertex 6.4 93 8.2
    endloop
  endfacet
  facet normal 0.987688 -0.156435 0
    outer loop
      vertex 6.4 93 4.55
      vertex 6.5762 94.1125 4.55
      vertex 6.4 93 8.2
    endloop
  endfacet
  facet normal 0.891007 -0.45399 0
    outer loop
      vertex 7.08754 95.116 4.55
      vertex 7.08754 95.116 8.2
      vertex 6.5762 94.1125 8.2
    endloop
  endfacet
  facet normal 0.891007 -0.45399 0
    outer loop
      vertex 6.5762 94.1125 4.55
      vertex 7.08754 95.116 4.55
      vertex 6.5762 94.1125 8.2
    endloop
  endfacet
  facet normal 0.707107 -0.707107 0
    outer loop
      vertex 7.88397 95.9125 4.55
      vertex 7.88397 95.9125 8.2
      vertex 7.08754 95.116 8.2
    endloop
  endfacet
  facet normal 0.707107 -0.707107 0
    outer loop
      vertex 7.08754 95.116 4.55
      vertex 7.88397 95.9125 4.55
      vertex 7.08754 95.116 8.2
    endloop
  endfacet
  facet normal 0.45399 -0.891007 0
    outer loop
      vertex 8.88754 96.4238 4.55
      vertex 8.88754 96.4238 8.2
      vertex 7.88397 95.9125 8.2
    endloop
  endfacet
  facet normal 0.45399 -0.891007 0
    outer loop
      vertex 7.88397 95.9125 4.55
      vertex 8.88754 96.4238 4.55
      vertex 7.88397 95.9125 8.2
    endloop
  endfacet
  facet normal 0.156435 -0.987688 0
    outer loop
      vertex 10 96.6 4.55
      vertex 10 96.6 8.2
      vertex 8.88754 96.4238 8.2
    endloop
  endfacet
  facet normal 0.156435 -0.987688 0
    outer loop
      vertex 8.88754 96.4238 4.55
      vertex 10 96.6 4.55
      vertex 8.88754 96.4238 8.2
    endloop
  endfacet
  facet normal -0.156435 -0.987688 0
    outer loop
      vertex 11.1125 96.4238 4.55
      vertex 11.1125 96.4238 8.2
      vertex 10 96.6 8.2
    endloop
  endfacet
  facet normal -0.156435 -0.987688 0
    outer loop
      vertex 10 96.6 4.55
      vertex 11.1125 96.4238 4.55
      vertex 10 96.6 8.2
    endloop
  endfacet
  facet normal -0.45399 -0.891007 0
    outer loop
      vertex 12.116 95.9125 4.55
      vertex 12.116 95.9125 8.2
      vertex 11.1125 96.4238 8.2
    endloop
  endfacet
  facet normal -0.45399 -0.891007 0
    outer loop
      vertex 11.1125 96.4238 4.55
      vertex 12.116 95.9125 4.55
      vertex 11.1125 96.4238 8.2
    endloop
  endfacet
  facet normal -0.707107 -0.707107 0
    outer loop
      vertex 12.9125 95.116 4.55
      vertex 12.9125 95.116 8.2
      vertex 12.116 95.9125 8.2
    endloop
  endfacet
  facet normal -0.707107 -0.707107 0
    outer loop
      vertex 12.116 95.9125 4.55
      vertex 12.9125 95.116 4.55
      vertex 12.116 95.9125 8.2
    endloop
  endfacet
  facet normal -0.891007 -0.45399 0
    outer loop
      vertex 13.4238 94.1125 8.2
      vertex 12.9125 95.116 8.2
      vertex 13.4238 94.1125 4.55
    endloop
  endfacet
  facet normal -0.891007 -0.45399 0
    outer loop
      vertex 13.4238 94.1125 4.55
      vertex 12.9125 95.116 8.2
      vertex 12.9125 95.116 4.55
    endloop
  endfacet
  facet normal -0.987688 -0.156435 0
    outer loop
      vertex 13.6 93 8.2
      vertex 13.4238 94.1125 8.2
      vertex 13.6 93 4.55
    endloop
  endfacet
  facet normal -0.987688 -0.156435 0
    outer loop
      vertex 13.6 93 4.55
      vertex 13.4238 94.1125 8.2
      vertex 13.4238 94.1125 4.55
    endloop
  endfacet
  facet normal -0.987688 0.156435 0
    outer loop
      vertex 13.6 93 8.2
      vertex 13.6 93 4.55
      vertex 13.4238 91.8875 8.2
    endloop
  endfacet
  facet normal -0.987688 0.156435 0
    outer loop
      vertex 13.4238 91.8875 8.2
      vertex 13.6 93 4.55
      vertex 13.4238 91.8875 4.55
    endloop
  endfacet
  facet normal -0.891007 0.45399 0
    outer loop
      vertex 13.4238 91.8875 8.2
      vertex 13.4238 91.8875 4.55
      vertex 12.9125 90.884 8.2
    endloop
  endfacet
  facet normal -0.891007 0.45399 0
    outer loop
      vertex 12.9125 90.884 8.2
      vertex 13.4238 91.8875 4.55
      vertex 12.9125 90.884 4.55
    endloop
  endfacet
  facet normal -0.707107 0.707107 0
    outer loop
      vertex 12.9125 90.884 8.2
      vertex 12.9125 90.884 4.55
      vertex 12.116 90.0875 8.2
    endloop
  endfacet
  facet normal -0.707107 0.707107 0
    outer loop
      vertex 12.116 90.0875 8.2
      vertex 12.9125 90.884 4.55
      vertex 12.116 90.0875 4.55
    endloop
  endfacet
  facet normal -0.45399 0.891007 0
    outer loop
      vertex 12.116 90.0875 8.2
      vertex 12.116 90.0875 4.55
      vertex 11.1125 89.5762 8.2
    endloop
  endfacet
  facet normal -0.45399 0.891007 0
    outer loop
      vertex 11.1125 89.5762 8.2
      vertex 12.116 90.0875 4.55
      vertex 11.1125 89.5762 4.55
    endloop
  endfacet
  facet normal -0.156435 0.987688 0
    outer loop
      vertex 11.1125 89.5762 8.2
      vertex 11.1125 89.5762 4.55
      vertex 10 89.4 8.2
    endloop
  endfacet
  facet normal -0.156435 0.987688 0
    outer loop
      vertex 10 89.4 8.2
      vertex 11.1125 89.5762 4.55
      vertex 10 89.4 4.55
    endloop
  endfacet
  facet normal 0.156435 0.987688 0
    outer loop
      vertex 10 89.4 8.2
      vertex 10 89.4 4.55
      vertex 8.88754 89.5762 8.2
    endloop
  endfacet
  facet normal 0.156435 0.987688 0
    outer loop
      vertex 8.88754 89.5762 8.2
      vertex 10 89.4 4.55
      vertex 8.88754 89.5762 4.55
    endloop
  endfacet
  facet normal 0.45399 0.891007 0
    outer loop
      vertex 8.88754 89.5762 8.2
      vertex 8.88754 89.5762 4.55
      vertex 7.88397 90.0875 8.2
    endloop
  endfacet
  facet normal 0.45399 0.891007 0
    outer loop
      vertex 7.88397 90.0875 8.2
      vertex 8.88754 89.5762 4.55
      vertex 7.88397 90.0875 4.55
    endloop
  endfacet
  facet normal 0.707107 0.707107 0
    outer loop
      vertex 7.88397 90.0875 8.2
      vertex 7.88397 90.0875 4.55
      vertex 7.08754 90.884 8.2
    endloop
  endfacet
  facet normal 0.707107 0.707107 0
    outer loop
      vertex 7.08754 90.884 8.2
      vertex 7.88397 90.0875 4.55
      vertex 7.08754 90.884 4.55
    endloop
  endfacet
  facet normal 0 0 -1
    outer loop
      vertex -20 109.173 0
      vertex -20 116.786 0
      vertex -17.3642 109.633 0
    endloop
  endfacet
  facet normal 0 0 -1
    outer loop
      vertex -17.3642 109.633 0
      vertex -20 116.786 0
      vertex -18.5375 117.041 0
    endloop
  endfacet
  facet normal 0 0 -1
    outer loop
      vertex -17.3642 109.633 0
      vertex -18.5375 117.041 0
      vertex -14.852 117.566 0
    endloop
  endfacet
  facet normal 0 0 -1
    outer loop
      vertex -17.3642 109.633 0
      vertex -14.852 117.566 0
      vertex -11.1518 117.974 0
    endloop
  endfacet
  facet normal 0 0 -1
    outer loop
      vertex -17.3642 109.633 0
      vertex -11.1518 117.974 0
      vertex -7.44068 118.266 0
    endloop
  endfacet
  facet normal 0 0 -1
    outer loop
      vertex -17.3642 109.633 0
      vertex -7.44068 118.266 0
      vertex -3.72218 118.442 0
    endloop
  endfacet
  facet normal 0 0 -1
    outer loop
      vertex -17.3642 109.633 0
      vertex -3.72218 118.442 0
      vertex 0 118.5 0
    endloop
  endfacet
  facet normal 0 0 -1
    outer loop
      vertex -17.3642 109.633 0
      vertex 0 118.5 0
      vertex 3.72218 118.442 0
    endloop
  endfacet
  facet normal 0 0 -1
    outer loop
      vertex 0 116.1 0
      vertex 3.72218 118.442 0
      vertex 7.44068 118.266 0
    endloop
  endfacet
  facet normal 0 0 -1
    outer loop
      vertex 2.11603 115.412 0
      vertex 7.44068 118.266 0
      vertex 11.1518 117.974 0
    endloop
  endfacet
  facet normal 0 0 -1
    outer loop
      vertex 2.91246 114.616 0
      vertex 14.852 117.566 0
      vertex 18.5375 117.041 0
    endloop
  endfacet
  facet normal 0 0 -1
    outer loop
      vertex -3.4238 111.388 0
      vertex -10.446 110.507 0
      vertex -13.912 110.125 0
    endloop
  endfacet
  facet normal 0 0 -1
    outer loop
      vertex 17.3642 109.633 0
      vertex 20 116.786 0
      vertex 20 109.173 0
    endloop
  endfacet
  facet normal 0 0 -1
    outer loop
      vertex 13.912 110.125 0
      vertex 20 116.786 0
      vertex 17.3642 109.633 0
    endloop
  endfacet
  facet normal 0 0 -1
    outer loop
      vertex 10.446 110.507 0
      vertex 20 116.786 0
      vertex 13.912 110.125 0
    endloop
  endfacet
  facet normal 0 0 -1
    outer loop
      vertex 6.96975 110.781 0
      vertex 20 116.786 0
      vertex 10.446 110.507 0
    endloop
  endfacet
  facet normal 0 0 -1
    outer loop
      vertex 3.48659 110.945 0
      vertex 20 116.786 0
      vertex 6.96975 110.781 0
    endloop
  endfacet
  facet normal 0 0 -1
    outer loop
      vertex 3.20072 110.95 0
      vertex 20 116.786 0
      vertex 3.48659 110.945 0
    endloop
  endfacet
  facet normal 0 0 -1
    outer loop
      vertex 3.4238 111.388 0
      vertex 20 116.786 0
      vertex 3.20072 110.95 0
    endloop
  endfacet
  facet normal 0 0 -1
    outer loop
      vertex 3.6 112.5 0
      vertex 20 116.786 0
      vertex 3.4238 111.388 0
    endloop
  endfacet
  facet normal 0 0 -1
    outer loop
      vertex 3.4238 113.612 0
      vertex 20 116.786 0
      vertex 3.6 112.5 0
    endloop
  endfacet
  facet normal 0 0 -1
    outer loop
      vertex -3.6 112.5 0
      vertex -17.3642 109.633 0
      vertex -3.4238 113.612 0
    endloop
  endfacet
  facet normal 0 0 -1
    outer loop
      vertex 2.11603 115.412 0
      vertex 11.1518 117.974 0
      vertex 14.852 117.566 0
    endloop
  endfacet
  facet normal 0 0 -1
    outer loop
      vertex 1.11246 115.924 0
      vertex 7.44068 118.266 0
      vertex 2.11603 115.412 0
    endloop
  endfacet
  facet normal 0 0 -1
    outer loop
      vertex 0 116.1 0
      vertex 7.44068 118.266 0
      vertex 1.11246 115.924 0
    endloop
  endfacet
  facet normal 0 0 -1
    outer loop
      vertex -1.11246 115.924 0
      vertex 3.72218 118.442 0
      vertex 0 116.1 0
    endloop
  endfacet
  facet normal 0 0 -1
    outer loop
      vertex -2.91246 114.616 0
      vertex -17.3642 109.633 0
      vertex -2.11603 115.412 0
    endloop
  endfacet
  facet normal 0 0 -1
    outer loop
      vertex -17.3642 109.633 0
      vertex 3.72218 118.442 0
      vertex -1.11246 115.924 0
    endloop
  endfacet
  facet normal 0 0 -1
    outer loop
      vertex -17.3642 109.633 0
      vertex -1.11246 115.924 0
      vertex -2.11603 115.412 0
    endloop
  endfacet
  facet normal 0 0 -1
    outer loop
      vertex -13.912 110.125 0
      vertex -17.3642 109.633 0
      vertex -3.6 112.5 0
    endloop
  endfacet
  facet normal 0 0 -1
    outer loop
      vertex -3.4238 113.612 0
      vertex -17.3642 109.633 0
      vertex -2.91246 114.616 0
    endloop
  endfacet
  facet normal 0 0 -1
    outer loop
      vertex -3.4238 111.388 0
      vertex -13.912 110.125 0
      vertex -3.6 112.5 0
    endloop
  endfacet
  facet normal 0 0 -1
    outer loop
      vertex 2.11603 115.412 0
      vertex 14.852 117.566 0
      vertex 2.91246 114.616 0
    endloop
  endfacet
  facet normal 0 0 -1
    outer loop
      vertex -10.446 110.507 0
      vertex -3.4238 111.388 0
      vertex -6.96975 110.781 0
    endloop
  endfacet
  facet normal 0 0 -1
    outer loop
      vertex -3.48659 110.945 0
      vertex -3.4238 111.388 0
      vertex -3.20072 110.95 0
    endloop
  endfacet
  facet normal 0 0 -1
    outer loop
      vertex -6.96975 110.781 0
      vertex -3.4238 111.388 0
      vertex -3.48659 110.945 0
    endloop
  endfacet
  facet normal 0 0 -1
    outer loop
      vertex 2.91246 114.616 0
      vertex 18.5375 117.041 0
      vertex 20 116.786 0
    endloop
  endfacet
  facet normal 0 0 -1
    outer loop
      vertex 2.91246 114.616 0
      vertex 20 116.786 0
      vertex 3.4238 113.612 0
    endloop
  endfacet
  facet normal -0.171929 0.985109 0
    outer loop
      vertex -20 116.786 0
      vertex -20 116.786 10
      vertex -18.5375 117.041 0
    endloop
  endfacet
  facet normal -0.171929 0.985109 0
    outer loop
      vertex -18.5375 117.041 0
      vertex -20 116.786 10
      vertex -18.5375 117.041 10
    endloop
  endfacet
  facet normal -0.140901 0.990024 0
    outer loop
      vertex -18.5375 117.041 0
      vertex -18.5375 117.041 10
      vertex -14.852 117.566 0
    endloop
  endfacet
  facet normal -0.140901 0.990024 0
    outer loop
      vertex -14.852 117.566 0
      vertex -18.5375 117.041 10
      vertex -14.852 117.566 10
    endloop
  endfacet
  facet normal -0.109734 0.993961 0
    outer loop
      vertex -14.852 117.566 0
      vertex -14.852 117.566 10
      vertex -11.1518 117.974 0
    endloop
  endfacet
  facet normal -0.109734 0.993961 0
    outer loop
      vertex -11.1518 117.974 0
      vertex -14.852 117.566 10
      vertex -11.1518 117.974 10
    endloop
  endfacet
  facet normal -0.078459 0.996917 0
    outer loop
      vertex -11.1518 117.974 0
      vertex -11.1518 117.974 10
      vertex -7.44068 118.266 0
    endloop
  endfacet
  facet normal -0.078459 0.996917 0
    outer loop
      vertex -7.44068 118.266 0
      vertex -11.1518 117.974 10
      vertex -7.44068 118.266 10
    endloop
  endfacet
  facet normal -0.0471064 0.99889 0
    outer loop
      vertex -7.44068 118.266 0
      vertex -7.44068 118.266 10
      vertex -3.72218 118.442 0
    endloop
  endfacet
  facet normal -0.0471064 0.99889 0
    outer loop
      vertex -3.72218 118.442 0
      vertex -7.44068 118.266 10
      vertex -3.72218 118.442 10
    endloop
  endfacet
  facet normal -0.0157074 0.999877 0
    outer loop
      vertex -3.72218 118.442 0
      vertex -3.72218 118.442 10
      vertex 0 118.5 0
    endloop
  endfacet
  facet normal -0.0157074 0.999877 0
    outer loop
      vertex 0 118.5 0
      vertex -3.72218 118.442 10
      vertex 0 118.5 10
    endloop
  endfacet
  facet normal 0.0157074 0.999877 0
    outer loop
      vertex 0 118.5 0
      vertex 0 118.5 10
      vertex 3.72218 118.442 0
    endloop
  endfacet
  facet normal 0.0157074 0.999877 0
    outer loop
      vertex 3.72218 118.442 0
      vertex 0 118.5 10
      vertex 3.72218 118.442 10
    endloop
  endfacet
  facet normal 0.0471064 0.99889 0
    outer loop
      vertex 3.72218 118.442 0
      vertex 3.72218 118.442 10
      vertex 7.44068 118.266 0
    endloop
  endfacet
  facet normal 0.0471064 0.99889 0
    outer loop
      vertex 7.44068 118.266 0
      vertex 3.72218 118.442 10
      vertex 7.44068 118.266 10
    endloop
  endfacet
  facet normal 0.078459 0.996917 0
    outer loop
      vertex 7.44068 118.266 0
      vertex 7.44068 118.266 10
      vertex 11.1518 117.974 0
    endloop
  endfacet
  facet normal 0.078459 0.996917 0
    outer loop
      vertex 11.1518 117.974 0
      vertex 7.44068 118.266 10
      vertex 11.1518 117.974 10
    endloop
  endfacet
  facet normal 0.109734 0.993961 0
    outer loop
      vertex 11.1518 117.974 0
      vertex 11.1518 117.974 10
      vertex 14.852 117.566 0
    endloop
  endfacet
  facet normal 0.109734 0.993961 0
    outer loop
      vertex 14.852 117.566 0
      vertex 11.1518 117.974 10
      vertex 14.852 117.566 10
    endloop
  endfacet
  facet normal 0.140901 0.990024 0
    outer loop
      vertex 14.852 117.566 0
      vertex 14.852 117.566 10
      vertex 18.5375 117.041 0
    endloop
  endfacet
  facet normal 0.140901 0.990024 0
    outer loop
      vertex 18.5375 117.041 0
      vertex 14.852 117.566 10
      vertex 18.5375 117.041 10
    endloop
  endfacet
  facet normal 0.171929 0.985109 0
    outer loop
      vertex 18.5375 117.041 0
      vertex 18.5375 117.041 10
      vertex 20 116.786 0
    endloop
  endfacet
  facet normal 0.171929 0.985109 0
    outer loop
      vertex 20 116.786 0
      vertex 18.5375 117.041 10
      vertex 20 116.786 10
    endloop
  endfacet
  facet normal 0.987688 0.156435 0
    outer loop
      vertex -11.54 93 10
      vertex -11.4646 92.5241 10
      vertex -11.4646 92.5241 8.2
    endloop
  endfacet
  facet normal 0.987688 0.156435 0
    outer loop
      vertex -11.54 93 8.2
      vertex -11.54 93 10
      vertex -11.4646 92.5241 8.2
    endloop
  endfacet
  facet normal 0.891006 0.453991 0
    outer loop
      vertex -11.4646 92.5241 10
      vertex -11.2459 92.0948 10
      vertex -11.2459 92.0948 8.2
    endloop
  endfacet
  facet normal 0.891006 0.453991 0
    outer loop
      vertex -11.4646 92.5241 8.2
      vertex -11.4646 92.5241 10
      vertex -11.2459 92.0948 8.2
    endloop
  endfacet
  facet normal 0.707107 0.707107 0
    outer loop
      vertex -10.9052 91.7541 10
      vertex -10.9052 91.7541 8.2
      vertex -11.2459 92.0948 10
    endloop
  endfacet
  facet normal 0.707107 0.707107 0
    outer loop
      vertex -11.2459 92.0948 10
      vertex -10.9052 91.7541 8.2
      vertex -11.2459 92.0948 8.2
    endloop
  endfacet
  facet normal 0.453991 0.891006 0
    outer loop
      vertex -10.4759 91.5354 10
      vertex -10.4759 91.5354 8.2
      vertex -10.9052 91.7541 10
    endloop
  endfacet
  facet normal 0.453991 0.891006 0
    outer loop
      vertex -10.9052 91.7541 10
      vertex -10.4759 91.5354 8.2
      vertex -10.9052 91.7541 8.2
    endloop
  endfacet
  facet normal 0.156435 0.987688 0
    outer loop
      vertex -10 91.46 10
      vertex -10 91.46 8.2
      vertex -10.4759 91.5354 10
    endloop
  endfacet
  facet normal 0.156435 0.987688 0
    outer loop
      vertex -10.4759 91.5354 10
      vertex -10 91.46 8.2
      vertex -10.4759 91.5354 8.2
    endloop
  endfacet
  facet normal -0.156435 0.987688 0
    outer loop
      vertex -9.52411 91.5354 10
      vertex -9.52411 91.5354 8.2
      vertex -10 91.46 10
    endloop
  endfacet
  facet normal -0.156435 0.987688 0
    outer loop
      vertex -10 91.46 10
      vertex -9.52411 91.5354 8.2
      vertex -10 91.46 8.2
    endloop
  endfacet
  facet normal -0.453991 0.891006 0
    outer loop
      vertex -9.09481 91.7541 10
      vertex -9.09481 91.7541 8.2
      vertex -9.52411 91.5354 10
    endloop
  endfacet
  facet normal -0.453991 0.891006 0
    outer loop
      vertex -9.52411 91.5354 10
      vertex -9.09481 91.7541 8.2
      vertex -9.52411 91.5354 8.2
    endloop
  endfacet
  facet normal -0.707107 0.707107 0
    outer loop
      vertex -8.75411 92.0948 10
      vertex -8.75411 92.0948 8.2
      vertex -9.09481 91.7541 10
    endloop
  endfacet
  facet normal -0.707107 0.707107 0
    outer loop
      vertex -9.09481 91.7541 10
      vertex -8.75411 92.0948 8.2
      vertex -9.09481 91.7541 8.2
    endloop
  endfacet
  facet normal -0.891006 0.453991 0
    outer loop
      vertex -8.53537 92.5241 10
      vertex -8.53537 92.5241 8.2
      vertex -8.75411 92.0948 10
    endloop
  endfacet
  facet normal -0.891006 0.453991 0
    outer loop
      vertex -8.75411 92.0948 10
      vertex -8.53537 92.5241 8.2
      vertex -8.75411 92.0948 8.2
    endloop
  endfacet
  facet normal -0.987688 0.156435 0
    outer loop
      vertex -8.46 93 10
      vertex -8.46 93 8.2
      vertex -8.53537 92.5241 10
    endloop
  endfacet
  facet normal -0.987688 0.156435 0
    outer loop
      vertex -8.53537 92.5241 10
      vertex -8.46 93 8.2
      vertex -8.53537 92.5241 8.2
    endloop
  endfacet
  facet normal -0.987688 -0.156435 0
    outer loop
      vertex -8.46 93 10
      vertex -8.53537 93.4759 10
      vertex -8.46 93 8.2
    endloop
  endfacet
  facet normal -0.987688 -0.156435 0
    outer loop
      vertex -8.46 93 8.2
      vertex -8.53537 93.4759 10
      vertex -8.53537 93.4759 8.2
    endloop
  endfacet
  facet normal -0.891006 -0.453991 0
    outer loop
      vertex -8.53537 93.4759 10
      vertex -8.75411 93.9052 10
      vertex -8.53537 93.4759 8.2
    endloop
  endfacet
  facet normal -0.891006 -0.453991 0
    outer loop
      vertex -8.53537 93.4759 8.2
      vertex -8.75411 93.9052 10
      vertex -8.75411 93.9052 8.2
    endloop
  endfacet
  facet normal -0.707107 -0.707107 0
    outer loop
      vertex -8.75411 93.9052 8.2
      vertex -8.75411 93.9052 10
      vertex -9.09481 94.2459 10
    endloop
  endfacet
  facet normal -0.707107 -0.707107 0
    outer loop
      vertex -9.09481 94.2459 8.2
      vertex -8.75411 93.9052 8.2
      vertex -9.09481 94.2459 10
    endloop
  endfacet
  facet normal -0.453991 -0.891006 0
    outer loop
      vertex -9.09481 94.2459 8.2
      vertex -9.09481 94.2459 10
      vertex -9.52411 94.4646 10
    endloop
  endfacet
  facet normal -0.453991 -0.891006 0
    outer loop
      vertex -9.52411 94.4646 8.2
      vertex -9.09481 94.2459 8.2
      vertex -9.52411 94.4646 10
    endloop
  endfacet
  facet normal -0.156435 -0.987688 0
    outer loop
      vertex -9.52411 94.4646 8.2
      vertex -9.52411 94.4646 10
      vertex -10 94.54 10
    endloop
  endfacet
  facet normal -0.156435 -0.987688 0
    outer loop
      vertex -10 94.54 8.2
      vertex -9.52411 94.4646 8.2
      vertex -10 94.54 10
    endloop
  endfacet
  facet normal 0.156435 -0.987688 0
    outer loop
      vertex -10 94.54 8.2
      vertex -10 94.54 10
      vertex -10.4759 94.4646 10
    endloop
  endfacet
  facet normal 0.156435 -0.987688 0
    outer loop
      vertex -10.4759 94.4646 8.2
      vertex -10 94.54 8.2
      vertex -10.4759 94.4646 10
    endloop
  endfacet
  facet normal 0.453991 -0.891006 0
    outer loop
      vertex -10.4759 94.4646 8.2
      vertex -10.4759 94.4646 10
      vertex -10.9052 94.2459 10
    endloop
  endfacet
  facet normal 0.453991 -0.891006 0
    outer loop
      vertex -10.9052 94.2459 8.2
      vertex -10.4759 94.4646 8.2
      vertex -10.9052 94.2459 10
    endloop
  endfacet
  facet normal 0.707107 -0.707107 0
    outer loop
      vertex -10.9052 94.2459 8.2
      vertex -10.9052 94.2459 10
      vertex -11.2459 93.9052 10
    endloop
  endfacet
  facet normal 0.707107 -0.707107 0
    outer loop
      vertex -11.2459 93.9052 8.2
      vertex -10.9052 94.2459 8.2
      vertex -11.2459 93.9052 10
    endloop
  endfacet
  facet normal 0.891006 -0.453991 0
    outer loop
      vertex -11.2459 93.9052 8.2
      vertex -11.2459 93.9052 10
      vertex -11.4646 93.4759 10
    endloop
  endfacet
  facet normal 0.891006 -0.453991 0
    outer loop
      vertex -11.4646 93.4759 8.2
      vertex -11.2459 93.9052 8.2
      vertex -11.4646 93.4759 10
    endloop
  endfacet
  facet normal 0.987688 -0.156435 0
    outer loop
      vertex -11.4646 93.4759 8.2
      vertex -11.4646 93.4759 10
      vertex -11.54 93 10
    endloop
  endfacet
  facet normal 0.987688 -0.156435 0
    outer loop
      vertex -11.54 93 8.2
      vertex -11.4646 93.4759 8.2
      vertex -11.54 93 10
    endloop
  endfacet
  facet normal 0.891007 0.45399 0
    outer loop
      vertex -1.36952 112.055 10
      vertex -1.16498 111.654 10
      vertex -1.16498 111.654 0.35
    endloop
  endfacet
  facet normal 0.891007 0.45399 0
    outer loop
      vertex -1.36952 112.055 0.35
      vertex -1.36952 112.055 10
      vertex -1.16498 111.654 0.35
    endloop
  endfacet
  facet normal 0.987688 0.156435 0
    outer loop
      vertex -1.44 112.5 10
      vertex -1.36952 112.055 10
      vertex -1.36952 112.055 0.35
    endloop
  endfacet
  facet normal 0.987688 0.156435 0
    outer loop
      vertex -1.44 112.5 0.35
      vertex -1.44 112.5 10
      vertex -1.36952 112.055 0.35
    endloop
  endfacet
  facet normal 0.707107 0.707107 0
    outer loop
      vertex -0.846411 111.335 10
      vertex -0.846411 111.335 0.35
      vertex -1.16498 111.654 10
    endloop
  endfacet
  facet normal 0.707107 0.707107 0
    outer loop
      vertex -1.16498 111.654 10
      vertex -0.846411 111.335 0.35
      vertex -1.16498 111.654 0.35
    endloop
  endfacet
  facet normal 0.45399 0.891007 0
    outer loop
      vertex -0.444984 111.13 10
      vertex -0.444984 111.13 0.35
      vertex -0.846411 111.335 10
    endloop
  endfacet
  facet normal 0.45399 0.891007 0
    outer loop
      vertex -0.846411 111.335 10
      vertex -0.444984 111.13 0.35
      vertex -0.846411 111.335 0.35
    endloop
  endfacet
  facet normal 0.156435 0.987688 0
    outer loop
      vertex 0 111.06 10
      vertex 0 111.06 0.35
      vertex -0.444984 111.13 10
    endloop
  endfacet
  facet normal 0.156435 0.987688 0
    outer loop
      vertex -0.444984 111.13 10
      vertex 0 111.06 0.35
      vertex -0.444984 111.13 0.35
    endloop
  endfacet
  facet normal -0.156435 0.987688 0
    outer loop
      vertex 0.444984 111.13 10
      vertex 0.444984 111.13 0.35
      vertex 0 111.06 10
    endloop
  endfacet
  facet normal -0.156435 0.987688 0
    outer loop
      vertex 0 111.06 10
      vertex 0.444984 111.13 0.35
      vertex 0 111.06 0.35
    endloop
  endfacet
  facet normal -0.45399 0.891007 0
    outer loop
      vertex 0.846411 111.335 10
      vertex 0.846411 111.335 0.35
      vertex 0.444984 111.13 10
    endloop
  endfacet
  facet normal -0.45399 0.891007 0
    outer loop
      vertex 0.444984 111.13 10
      vertex 0.846411 111.335 0.35
      vertex 0.444984 111.13 0.35
    endloop
  endfacet
  facet normal -0.707107 0.707107 0
    outer loop
      vertex 1.16498 111.654 10
      vertex 1.16498 111.654 0.35
      vertex 0.846411 111.335 10
    endloop
  endfacet
  facet normal -0.707107 0.707107 0
    outer loop
      vertex 0.846411 111.335 10
      vertex 1.16498 111.654 0.35
      vertex 0.846411 111.335 0.35
    endloop
  endfacet
  facet normal -0.891007 0.45399 0
    outer loop
      vertex 1.36952 112.055 10
      vertex 1.36952 112.055 0.35
      vertex 1.16498 111.654 10
    endloop
  endfacet
  facet normal -0.891007 0.45399 0
    outer loop
      vertex 1.16498 111.654 10
      vertex 1.36952 112.055 0.35
      vertex 1.16498 111.654 0.35
    endloop
  endfacet
  facet normal -0.987688 0.156435 0
    outer loop
      vertex 1.44 112.5 10
      vertex 1.44 112.5 0.35
      vertex 1.36952 112.055 10
    endloop
  endfacet
  facet normal -0.987688 0.156435 0
    outer loop
      vertex 1.36952 112.055 10
      vertex 1.44 112.5 0.35
      vertex 1.36952 112.055 0.35
    endloop
  endfacet
  facet normal -0.987688 -0.156435 0
    outer loop
      vertex 1.44 112.5 10
      vertex 1.36952 112.945 10
      vertex 1.44 112.5 0.35
    endloop
  endfacet
  facet normal -0.987688 -0.156435 0
    outer loop
      vertex 1.44 112.5 0.35
      vertex 1.36952 112.945 10
      vertex 1.36952 112.945 0.35
    endloop
  endfacet
  facet normal -0.891007 -0.45399 0
    outer loop
      vertex 1.36952 112.945 10
      vertex 1.16498 113.346 10
      vertex 1.36952 112.945 0.35
    endloop
  endfacet
  facet normal -0.891007 -0.45399 0
    outer loop
      vertex 1.36952 112.945 0.35
      vertex 1.16498 113.346 10
      vertex 1.16498 113.346 0.35
    endloop
  endfacet
  facet normal -0.707107 -0.707107 0
    outer loop
      vertex 1.16498 113.346 0.35
      vertex 1.16498 113.346 10
      vertex 0.846411 113.665 10
    endloop
  endfacet
  facet normal -0.707107 -0.707107 0
    outer loop
      vertex 0.846411 113.665 0.35
      vertex 1.16498 113.346 0.35
      vertex 0.846411 113.665 10
    endloop
  endfacet
  facet normal -0.45399 -0.891007 0
    outer loop
      vertex 0.846411 113.665 0.35
      vertex 0.846411 113.665 10
      vertex 0.444984 113.87 10
    endloop
  endfacet
  facet normal -0.45399 -0.891007 0
    outer loop
      vertex 0.444984 113.87 0.35
      vertex 0.846411 113.665 0.35
      vertex 0.444984 113.87 10
    endloop
  endfacet
  facet normal -0.156435 -0.987688 0
    outer loop
      vertex 0.444984 113.87 0.35
      vertex 0.444984 113.87 10
      vertex 0 113.94 10
    endloop
  endfacet
  facet normal -0.156435 -0.987688 0
    outer loop
      vertex 0 113.94 0.35
      vertex 0.444984 113.87 0.35
      vertex 0 113.94 10
    endloop
  endfacet
  facet normal 0.156435 -0.987688 0
    outer loop
      vertex 0 113.94 0.35
      vertex 0 113.94 10
      vertex -0.444984 113.87 10
    endloop
  endfacet
  facet normal 0.156435 -0.987688 0
    outer loop
      vertex -0.444984 113.87 0.35
      vertex 0 113.94 0.35
      vertex -0.444984 113.87 10
    endloop
  endfacet
  facet normal 0.45399 -0.891007 0
    outer loop
      vertex -0.444984 113.87 0.35
      vertex -0.444984 113.87 10
      vertex -0.846411 113.665 10
    endloop
  endfacet
  facet normal 0.45399 -0.891007 0
    outer loop
      vertex -0.846411 113.665 0.35
      vertex -0.444984 113.87 0.35
      vertex -0.846411 113.665 10
    endloop
  endfacet
  facet normal 0.707107 -0.707107 0
    outer loop
      vertex -0.846411 113.665 0.35
      vertex -0.846411 113.665 10
      vertex -1.16498 113.346 10
    endloop
  endfacet
  facet normal 0.707107 -0.707107 0
    outer loop
      vertex -1.16498 113.346 0.35
      vertex -0.846411 113.665 0.35
      vertex -1.16498 113.346 10
    endloop
  endfacet
  facet normal 0.891007 -0.45399 0
    outer loop
      vertex -1.16498 113.346 0.35
      vertex -1.16498 113.346 10
      vertex -1.36952 112.945 10
    endloop
  endfacet
  facet normal 0.891007 -0.45399 0
    outer loop
      vertex -1.36952 112.945 0.35
      vertex -1.16498 113.346 0.35
      vertex -1.36952 112.945 10
    endloop
  endfacet
  facet normal 0.987688 -0.156435 0
    outer loop
      vertex -1.36952 112.945 0.35
      vertex -1.36952 112.945 10
      vertex -1.44 112.5 10
    endloop
  endfacet
  facet normal 0.987688 -0.156435 0
    outer loop
      vertex -1.44 112.5 0.35
      vertex -1.36952 112.945 0.35
      vertex -1.44 112.5 10
    endloop
  endfacet
  facet normal 0.891006 0.453991 0
    outer loop
      vertex 8.53537 92.5241 10
      vertex 8.75411 92.0948 10
      vertex 8.75411 92.0948 8.2
    endloop
  endfacet
  facet normal 0.891006 0.453991 0
    outer loop
      vertex 8.53537 92.5241 8.2
      vertex 8.53537 92.5241 10
      vertex 8.75411 92.0948 8.2
    endloop
  endfacet
  facet normal 0.987688 0.156435 0
    outer loop
      vertex 8.46 93 10
      vertex 8.53537 92.5241 10
      vertex 8.53537 92.5241 8.2
    endloop
  endfacet
  facet normal 0.987688 0.156435 0
    outer loop
      vertex 8.46 93 8.2
      vertex 8.46 93 10
      vertex 8.53537 92.5241 8.2
    endloop
  endfacet
  facet normal 0.707107 0.707107 0
    outer loop
      vertex 9.09481 91.7541 10
      vertex 9.09481 91.7541 8.2
      vertex 8.75411 92.0948 10
    endloop
  endfacet
  facet normal 0.707107 0.707107 0
    outer loop
      vertex 8.75411 92.0948 10
      vertex 9.09481 91.7541 8.2
      vertex 8.75411 92.0948 8.2
    endloop
  endfacet
  facet normal 0.453991 0.891006 0
    outer loop
      vertex 9.52411 91.5354 10
      vertex 9.52411 91.5354 8.2
      vertex 9.09481 91.7541 10
    endloop
  endfacet
  facet normal 0.453991 0.891006 0
    outer loop
      vertex 9.09481 91.7541 10
      vertex 9.52411 91.5354 8.2
      vertex 9.09481 91.7541 8.2
    endloop
  endfacet
  facet normal 0.156435 0.987688 0
    outer loop
      vertex 10 91.46 10
      vertex 10 91.46 8.2
      vertex 9.52411 91.5354 10
    endloop
  endfacet
  facet normal 0.156435 0.987688 0
    outer loop
      vertex 9.52411 91.5354 10
      vertex 10 91.46 8.2
      vertex 9.52411 91.5354 8.2
    endloop
  endfacet
  facet normal -0.156435 0.987688 0
    outer loop
      vertex 10.4759 91.5354 10
      vertex 10.4759 91.5354 8.2
      vertex 10 91.46 10
    endloop
  endfacet
  facet normal -0.156435 0.987688 0
    outer loop
      vertex 10 91.46 10
      vertex 10.4759 91.5354 8.2
      vertex 10 91.46 8.2
    endloop
  endfacet
  facet normal -0.453991 0.891006 0
    outer loop
      vertex 10.9052 91.7541 10
      vertex 10.9052 91.7541 8.2
      vertex 10.4759 91.5354 10
    endloop
  endfacet
  facet normal -0.453991 0.891006 0
    outer loop
      vertex 10.4759 91.5354 10
      vertex 10.9052 91.7541 8.2
      vertex 10.4759 91.5354 8.2
    endloop
  endfacet
  facet normal -0.707107 0.707107 0
    outer loop
      vertex 11.2459 92.0948 10
      vertex 11.2459 92.0948 8.2
      vertex 10.9052 91.7541 10
    endloop
  endfacet
  facet normal -0.707107 0.707107 0
    outer loop
      vertex 10.9052 91.7541 10
      vertex 11.2459 92.0948 8.2
      vertex 10.9052 91.7541 8.2
    endloop
  endfacet
  facet normal -0.891006 0.453991 0
    outer loop
      vertex 11.4646 92.5241 10
      vertex 11.4646 92.5241 8.2
      vertex 11.2459 92.0948 10
    endloop
  endfacet
  facet normal -0.891006 0.453991 0
    outer loop
      vertex 11.2459 92.0948 10
      vertex 11.4646 92.5241 8.2
      vertex 11.2459 92.0948 8.2
    endloop
  endfacet
  facet normal -0.987688 0.156435 0
    outer loop
      vertex 11.54 93 10
      vertex 11.54 93 8.2
      vertex 11.4646 92.5241 10
    endloop
  endfacet
  facet normal -0.987688 0.156435 0
    outer loop
      vertex 11.4646 92.5241 10
      vertex 11.54 93 8.2
      vertex 11.4646 92.5241 8.2
    endloop
  endfacet
  facet normal -0.987688 -0.156435 0
    outer loop
      vertex 11.54 93 10
      vertex 11.4646 93.4759 10
      vertex 11.54 93 8.2
    endloop
  endfacet
  facet normal -0.987688 -0.156435 0
    outer loop
      vertex 11.54 93 8.2
      vertex 11.4646 93.4759 10
      vertex 11.4646 93.4759 8.2
    endloop
  endfacet
  facet normal -0.891006 -0.453991 0
    outer loop
      vertex 11.4646 93.4759 10
      vertex 11.2459 93.9052 10
      vertex 11.4646 93.4759 8.2
    endloop
  endfacet
  facet normal -0.891006 -0.453991 0
    outer loop
      vertex 11.4646 93.4759 8.2
      vertex 11.2459 93.9052 10
      vertex 11.2459 93.9052 8.2
    endloop
  endfacet
  facet normal -0.707107 -0.707107 0
    outer loop
      vertex 11.2459 93.9052 8.2
      vertex 11.2459 93.9052 10
      vertex 10.9052 94.2459 10
    endloop
  endfacet
  facet normal -0.707107 -0.707107 0
    outer loop
      vertex 10.9052 94.2459 8.2
      vertex 11.2459 93.9052 8.2
      vertex 10.9052 94.2459 10
    endloop
  endfacet
  facet normal -0.453991 -0.891006 0
    outer loop
      vertex 10.9052 94.2459 8.2
      vertex 10.9052 94.2459 10
      vertex 10.4759 94.4646 10
    endloop
  endfacet
  facet normal -0.453991 -0.891006 0
    outer loop
      vertex 10.4759 94.4646 8.2
      vertex 10.9052 94.2459 8.2
      vertex 10.4759 94.4646 10
    endloop
  endfacet
  facet normal -0.156435 -0.987688 0
    outer loop
      vertex 10.4759 94.4646 8.2
      vertex 10.4759 94.4646 10
      vertex 10 94.54 10
    endloop
  endfacet
  facet normal -0.156435 -0.987688 0
    outer loop
      vertex 10 94.54 8.2
      vertex 10.4759 94.4646 8.2
      vertex 10 94.54 10
    endloop
  endfacet
  facet normal 0.156435 -0.987688 0
    outer loop
      vertex 10 94.54 8.2
      vertex 10 94.54 10
      vertex 9.52411 94.4646 10
    endloop
  endfacet
  facet normal 0.156435 -0.987688 0
    outer loop
      vertex 9.52411 94.4646 8.2
      vertex 10 94.54 8.2
      vertex 9.52411 94.4646 10
    endloop
  endfacet
  facet normal 0.453991 -0.891006 0
    outer loop
      vertex 9.52411 94.4646 8.2
      vertex 9.52411 94.4646 10
      vertex 9.09481 94.2459 10
    endloop
  endfacet
  facet normal 0.453991 -0.891006 0
    outer loop
      vertex 9.09481 94.2459 8.2
      vertex 9.52411 94.4646 8.2
      vertex 9.09481 94.2459 10
    endloop
  endfacet
  facet normal 0.707107 -0.707107 0
    outer loop
      vertex 9.09481 94.2459 8.2
      vertex 9.09481 94.2459 10
      vertex 8.75411 93.9052 10
    endloop
  endfacet
  facet normal 0.707107 -0.707107 0
    outer loop
      vertex 8.75411 93.9052 8.2
      vertex 9.09481 94.2459 8.2
      vertex 8.75411 93.9052 10
    endloop
  endfacet
  facet normal 0.891006 -0.453991 0
    outer loop
      vertex 8.75411 93.9052 8.2
      vertex 8.75411 93.9052 10
      vertex 8.53537 93.4759 10
    endloop
  endfacet
  facet normal 0.891006 -0.453991 0
    outer loop
      vertex 8.53537 93.4759 8.2
      vertex 8.75411 93.9052 8.2
      vertex 8.53537 93.4759 10
    endloop
  endfacet
  facet normal 0.987688 -0.156435 0
    outer loop
      vertex 8.53537 93.4759 8.2
      vertex 8.53537 93.4759 10
      vertex 8.46 93 10
    endloop
  endfacet
  facet normal 0.987688 -0.156435 0
    outer loop
      vertex 8.46 93 8.2
      vertex 8.53537 93.4759 8.2
      vertex 8.46 93 10
    endloop
  endfacet
  facet normal 0 0 -1
    outer loop
      vertex -2.91246 114.616 0.35
      vertex -2.11603 115.412 0.35
      vertex -3.4238 113.612 0.35
    endloop
  endfacet
  facet normal 0 0 -1
    outer loop
      vertex -3.4238 113.612 0.35
      vertex -2.11603 115.412 0.35
      vertex -1.11246 115.924 0.35
    endloop
  endfacet
  facet normal 0 0 -1
    outer loop
      vertex -3.4238 113.612 0.35
      vertex -1.11246 115.924 0.35
      vertex 0 116.1 0.35
    endloop
  endfacet
  facet normal 0 0 -1
    outer loop
      vertex -3.4238 113.612 0.35
      vertex 0 116.1 0.35
      vertex 1.11246 115.924 0.35
    endloop
  endfacet
  facet normal 0 0 -1
    outer loop
      vertex -3.4238 113.612 0.35
      vertex 1.11246 115.924 0.35
      vertex 2.11603 115.412 0.35
    endloop
  endfacet
  facet normal 0 0 -1
    outer loop
      vertex -3.4238 113.612 0.35
      vertex 2.11603 115.412 0.35
      vertex 2.91246 114.616 0.35
    endloop
  endfacet
  facet normal 0 0 -1
    outer loop
      vertex 0.846411 113.665 0.35
      vertex 2.91246 114.616 0.35
      vertex 3.4238 113.612 0.35
    endloop
  endfacet
  facet normal 0 0 -1
    outer loop
      vertex 1.36952 112.945 0.35
      vertex 3.4238 113.612 0.35
      vertex 3.6 112.5 0.35
    endloop
  endfacet
  facet normal 0 0 -1
    outer loop
      vertex 1.36952 112.055 0.35
      vertex 3.6 112.5 0.35
      vertex 3.4238 111.388 0.35
    endloop
  endfacet
  facet normal 0 0 -1
    outer loop
      vertex 0 111.06 0.35
      vertex 3.20072 110.95 0.35
      vertex 0 111 0.35
    endloop
  endfacet
  facet normal 0 0 -1
    outer loop
      vertex -0.444984 111.13 0.35
      vertex 0 111 0.35
      vertex -3.20072 110.95 0.35
    endloop
  endfacet
  facet normal 0 0 -1
    outer loop
      vertex -3.4238 113.612 0.35
      vertex -3.20072 110.95 0.35
      vertex -3.4238 111.388 0.35
    endloop
  endfacet
  facet normal 0 0 -1
    outer loop
      vertex -3.4238 113.612 0.35
      vertex -3.4238 111.388 0.35
      vertex -3.6 112.5 0.35
    endloop
  endfacet
  facet normal 0 0 -1
    outer loop
      vertex 1.36952 112.055 0.35
      vertex 3.4238 111.388 0.35
      vertex 3.20072 110.95 0.35
    endloop
  endfacet
  facet normal 0 0 -1
    outer loop
      vertex 0 111.06 0.35
      vertex 0 111 0.35
      vertex -0.444984 111.13 0.35
    endloop
  endfacet
  facet normal 0 0 -1
    outer loop
      vertex -3.4238 113.612 0.35
      vertex -1.16498 111.654 0.35
      vertex -3.20072 110.95 0.35
    endloop
  endfacet
  facet normal 0 0 -1
    outer loop
      vertex -1.16498 111.654 0.35
      vertex -0.846411 111.335 0.35
      vertex -3.20072 110.95 0.35
    endloop
  endfacet
  facet normal 0 0 -1
    outer loop
      vertex -1.44 112.5 0.35
      vertex -3.4238 113.612 0.35
      vertex -1.36952 112.945 0.35
    endloop
  endfacet
  facet normal 0 0 -1
    outer loop
      vertex -0.846411 111.335 0.35
      vertex -0.444984 111.13 0.35
      vertex -3.20072 110.95 0.35
    endloop
  endfacet
  facet normal 0 0 -1
    outer loop
      vertex 0.444984 111.13 0.35
      vertex 3.20072 110.95 0.35
      vertex 0 111.06 0.35
    endloop
  endfacet
  facet normal 0 0 -1
    outer loop
      vertex 1.16498 111.654 0.35
      vertex 3.20072 110.95 0.35
      vertex 0.846411 111.335 0.35
    endloop
  endfacet
  facet normal 0 0 -1
    outer loop
      vertex 0.846411 111.335 0.35
      vertex 3.20072 110.95 0.35
      vertex 0.444984 111.13 0.35
    endloop
  endfacet
  facet normal 0 0 -1
    outer loop
      vertex 1.36952 112.055 0.35
      vertex 3.20072 110.95 0.35
      vertex 1.16498 111.654 0.35
    endloop
  endfacet
  facet normal 0 0 -1
    outer loop
      vertex 1.44 112.5 0.35
      vertex 3.6 112.5 0.35
      vertex 1.36952 112.055 0.35
    endloop
  endfacet
  facet normal 0 0 -1
    outer loop
      vertex 1.36952 112.945 0.35
      vertex 3.6 112.5 0.35
      vertex 1.44 112.5 0.35
    endloop
  endfacet
  facet normal 0 0 -1
    outer loop
      vertex 1.16498 113.346 0.35
      vertex 3.4238 113.612 0.35
      vertex 1.36952 112.945 0.35
    endloop
  endfacet
  facet normal 0 0 -1
    outer loop
      vertex 0.846411 113.665 0.35
      vertex 3.4238 113.612 0.35
      vertex 1.16498 113.346 0.35
    endloop
  endfacet
  facet normal 0 0 -1
    outer loop
      vertex 0.444984 113.87 0.35
      vertex 2.91246 114.616 0.35
      vertex 0.846411 113.665 0.35
    endloop
  endfacet
  facet normal 0 0 -1
    outer loop
      vertex -0.846411 113.665 0.35
      vertex -3.4238 113.612 0.35
      vertex -0.444984 113.87 0.35
    endloop
  endfacet
  facet normal 0 0 -1
    outer loop
      vertex 0 113.94 0.35
      vertex 2.91246 114.616 0.35
      vertex 0.444984 113.87 0.35
    endloop
  endfacet
  facet normal 0 0 -1
    outer loop
      vertex -3.4238 113.612 0.35
      vertex 2.91246 114.616 0.35
      vertex 0 113.94 0.35
    endloop
  endfacet
  facet normal 0 0 -1
    outer loop
      vertex -3.4238 113.612 0.35
      vertex 0 113.94 0.35
      vertex -0.444984 113.87 0.35
    endloop
  endfacet
  facet normal 0 0 -1
    outer loop
      vertex -1.16498 113.346 0.35
      vertex -3.4238 113.612 0.35
      vertex -0.846411 113.665 0.35
    endloop
  endfacet
  facet normal 0 0 -1
    outer loop
      vertex -1.36952 112.945 0.35
      vertex -3.4238 113.612 0.35
      vertex -1.16498 113.346 0.35
    endloop
  endfacet
  facet normal 0 0 -1
    outer loop
      vertex -3.4238 113.612 0.35
      vertex -1.44 112.5 0.35
      vertex -1.36952 112.055 0.35
    endloop
  endfacet
  facet normal 0 0 -1
    outer loop
      vertex -1.16498 111.654 0.35
      vertex -3.4238 113.612 0.35
      vertex -1.36952 112.055 0.35
    endloop
  endfacet
  facet normal -0.891007 0.45399 0
    outer loop
      vertex 3.4238 111.388 0.35
      vertex 3.4238 111.388 0
      vertex 3.20072 110.95 0.35
    endloop
  endfacet
  facet normal -0.891007 0.45399 0
    outer loop
      vertex 3.20072 110.95 0.35
      vertex 3.4238 111.388 0
      vertex 3.20072 110.95 0
    endloop
  endfacet
  facet normal 0.891007 0.45399 0
    outer loop
      vertex -3.4238 111.388 0.35
      vertex -3.20072 110.95 0.35
      vertex -3.20072 110.95 0
    endloop
  endfacet
  facet normal 0.891007 0.45399 0
    outer loop
      vertex -3.4238 111.388 0
      vertex -3.4238 111.388 0.35
      vertex -3.20072 110.95 0
    endloop
  endfacet
  facet normal 0 0 -1
    outer loop
      vertex -12.9125 95.116 8.2
      vertex -12.116 95.9125 8.2
      vertex -13.4238 94.1125 8.2
    endloop
  endfacet
  facet normal 0 0 -1
    outer loop
      vertex -13.4238 94.1125 8.2
      vertex -12.116 95.9125 8.2
      vertex -11.1125 96.4238 8.2
    endloop
  endfacet
  facet normal 0 0 -1
    outer loop
      vertex -13.4238 94.1125 8.2
      vertex -11.1125 96.4238 8.2
      vertex -10 96.6 8.2
    endloop
  endfacet
  facet normal 0 0 -1
    outer loop
      vertex -13.4238 94.1125 8.2
      vertex -10 96.6 8.2
      vertex -8.88754 96.4238 8.2
    endloop
  endfacet
  facet normal 0 0 -1
    outer loop
      vertex -13.4238 94.1125 8.2
      vertex -8.88754 96.4238 8.2
      vertex -7.88397 95.9125 8.2
    endloop
  endfacet
  facet normal 0 0 -1
    outer loop
      vertex -13.4238 94.1125 8.2
      vertex -7.88397 95.9125 8.2
      vertex -7.08754 95.116 8.2
    endloop
  endfacet
  facet normal 0 0 -1
    outer loop
      vertex -9.09481 94.2459 8.2
      vertex -7.08754 95.116 8.2
      vertex -6.5762 94.1125 8.2
    endloop
  endfacet
  facet normal 0 0 -1
    outer loop
      vertex -8.53537 93.4759 8.2
      vertex -6.5762 94.1125 8.2
      vertex -6.4 93 8.2
    endloop
  endfacet
  facet normal 0 0 -1
    outer loop
      vertex -8.53537 92.5241 8.2
      vertex -6.4 93 8.2
      vertex -6.5762 91.8875 8.2
    endloop
  endfacet
  facet normal 0 0 -1
    outer loop
      vertex -8.75411 92.0948 8.2
      vertex -6.5762 91.8875 8.2
      vertex -7.08754 90.884 8.2
    endloop
  endfacet
  facet normal 0 0 -1
    outer loop
      vertex -9.52411 91.5354 8.2
      vertex -7.08754 90.884 8.2
      vertex -7.88397 90.0875 8.2
    endloop
  endfacet
  facet normal 0 0 -1
    outer loop
      vertex -10.4759 91.5354 8.2
      vertex -7.88397 90.0875 8.2
      vertex -8.88754 89.5762 8.2
    endloop
  endfacet
  facet normal 0 0 -1
    outer loop
      vertex -13.4238 94.1125 8.2
      vertex -8.88754 89.5762 8.2
      vertex -10 89.4 8.2
    endloop
  endfacet
  facet normal 0 0 -1
    outer loop
      vertex -13.4238 94.1125 8.2
      vertex -10 89.4 8.2
      vertex -11.1125 89.5762 8.2
    endloop
  endfacet
  facet normal 0 0 -1
    outer loop
      vertex -13.4238 94.1125 8.2
      vertex -11.1125 89.5762 8.2
      vertex -12.116 90.0875 8.2
    endloop
  endfacet
  facet normal 0 0 -1
    outer loop
      vertex -13.4238 94.1125 8.2
      vertex -12.116 90.0875 8.2
      vertex -12.9125 90.884 8.2
    endloop
  endfacet
  facet normal 0 0 -1
    outer loop
      vertex -13.4238 94.1125 8.2
      vertex -12.9125 90.884 8.2
      vertex -13.4238 91.8875 8.2
    endloop
  endfacet
  facet normal 0 0 -1
    outer loop
      vertex -13.4238 94.1125 8.2
      vertex -13.4238 91.8875 8.2
      vertex -13.6 93 8.2
    endloop
  endfacet
  facet normal 0 0 -1
    outer loop
      vertex -10.4759 91.5354 8.2
      vertex -8.88754 89.5762 8.2
      vertex -10.9052 91.7541 8.2
    endloop
  endfacet
  facet normal 0 0 -1
    outer loop
      vertex -13.4238 94.1125 8.2
      vertex -11.4646 92.5241 8.2
      vertex -11.2459 92.0948 8.2
    endloop
  endfacet
  facet normal 0 0 -1
    outer loop
      vertex -13.4238 94.1125 8.2
      vertex -11.2459 92.0948 8.2
      vertex -8.88754 89.5762 8.2
    endloop
  endfacet
  facet normal 0 0 -1
    outer loop
      vertex -11.2459 92.0948 8.2
      vertex -10.9052 91.7541 8.2
      vertex -8.88754 89.5762 8.2
    endloop
  endfacet
  facet normal 0 0 -1
    outer loop
      vertex -10 91.46 8.2
      vertex -7.88397 90.0875 8.2
      vertex -10.4759 91.5354 8.2
    endloop
  endfacet
  facet normal 0 0 -1
    outer loop
      vertex -9.52411 91.5354 8.2
      vertex -7.88397 90.0875 8.2
      vertex -10 91.46 8.2
    endloop
  endfacet
  facet normal 0 0 -1
    outer loop
      vertex -9.09481 91.7541 8.2
      vertex -7.08754 90.884 8.2
      vertex -9.52411 91.5354 8.2
    endloop
  endfacet
  facet normal 0 0 -1
    outer loop
      vertex -11.54 93 8.2
      vertex -13.4238 94.1125 8.2
      vertex -11.4646 93.4759 8.2
    endloop
  endfacet
  facet normal 0 0 -1
    outer loop
      vertex -8.53537 92.5241 8.2
      vertex -6.5762 91.8875 8.2
      vertex -8.75411 92.0948 8.2
    endloop
  endfacet
  facet normal 0 0 -1
    outer loop
      vertex -8.46 93 8.2
      vertex -6.4 93 8.2
      vertex -8.53537 92.5241 8.2
    endloop
  endfacet
  facet normal 0 0 -1
    outer loop
      vertex -8.53537 93.4759 8.2
      vertex -6.4 93 8.2
      vertex -8.46 93 8.2
    endloop
  endfacet
  facet normal 0 0 -1
    outer loop
      vertex -8.75411 93.9052 8.2
      vertex -6.5762 94.1125 8.2
      vertex -8.53537 93.4759 8.2
    endloop
  endfacet
  facet normal 0 0 -1
    outer loop
      vertex -9.09481 94.2459 8.2
      vertex -6.5762 94.1125 8.2
      vertex -8.75411 93.9052 8.2
    endloop
  endfacet
  facet normal 0 0 -1
    outer loop
      vertex -9.52411 94.4646 8.2
      vertex -7.08754 95.116 8.2
      vertex -9.09481 94.2459 8.2
    endloop
  endfacet
  facet normal 0 0 -1
    outer loop
      vertex -10.9052 94.2459 8.2
      vertex -13.4238 94.1125 8.2
      vertex -10.4759 94.4646 8.2
    endloop
  endfacet
  facet normal 0 0 -1
    outer loop
      vertex -10 94.54 8.2
      vertex -7.08754 95.116 8.2
      vertex -9.52411 94.4646 8.2
    endloop
  endfacet
  facet normal 0 0 -1
    outer loop
      vertex -13.4238 94.1125 8.2
      vertex -7.08754 95.116 8.2
      vertex -10 94.54 8.2
    endloop
  endfacet
  facet normal 0 0 -1
    outer loop
      vertex -13.4238 94.1125 8.2
      vertex -10 94.54 8.2
      vertex -10.4759 94.4646 8.2
    endloop
  endfacet
  facet normal 0 0 -1
    outer loop
      vertex -11.2459 93.9052 8.2
      vertex -13.4238 94.1125 8.2
      vertex -10.9052 94.2459 8.2
    endloop
  endfacet
  facet normal 0 0 -1
    outer loop
      vertex -11.4646 93.4759 8.2
      vertex -13.4238 94.1125 8.2
      vertex -11.2459 93.9052 8.2
    endloop
  endfacet
  facet normal 0 0 -1
    outer loop
      vertex -11.4646 92.5241 8.2
      vertex -13.4238 94.1125 8.2
      vertex -11.54 93 8.2
    endloop
  endfacet
  facet normal 0 0 -1
    outer loop
      vertex -8.75411 92.0948 8.2
      vertex -7.08754 90.884 8.2
      vertex -9.09481 91.7541 8.2
    endloop
  endfacet
  facet normal 0 0 -1
    outer loop
      vertex 7.08754 95.116 8.2
      vertex 7.88397 95.9125 8.2
      vertex 6.5762 94.1125 8.2
    endloop
  endfacet
  facet normal 0 0 -1
    outer loop
      vertex 6.5762 94.1125 8.2
      vertex 7.88397 95.9125 8.2
      vertex 8.88754 96.4238 8.2
    endloop
  endfacet
  facet normal 0 0 -1
    outer loop
      vertex 6.5762 94.1125 8.2
      vertex 8.88754 96.4238 8.2
      vertex 10 96.6 8.2
    endloop
  endfacet
  facet normal 0 0 -1
    outer loop
      vertex 6.5762 94.1125 8.2
      vertex 10 96.6 8.2
      vertex 11.1125 96.4238 8.2
    endloop
  endfacet
  facet normal 0 0 -1
    outer loop
      vertex 6.5762 94.1125 8.2
      vertex 11.1125 96.4238 8.2
      vertex 12.116 95.9125 8.2
    endloop
  endfacet
  facet normal 0 0 -1
    outer loop
      vertex 6.5762 94.1125 8.2
      vertex 12.116 95.9125 8.2
      vertex 12.9125 95.116 8.2
    endloop
  endfacet
  facet normal 0 0 -1
    outer loop
      vertex 10.9052 94.2459 8.2
      vertex 12.9125 95.116 8.2
      vertex 13.4238 94.1125 8.2
    endloop
  endfacet
  facet normal 0 0 -1
    outer loop
      vertex 11.4646 93.4759 8.2
      vertex 13.4238 94.1125 8.2
      vertex 13.6 93 8.2
    endloop
  endfacet
  facet normal 0 0 -1
    outer loop
      vertex 11.4646 92.5241 8.2
      vertex 13.6 93 8.2
      vertex 13.4238 91.8875 8.2
    endloop
  endfacet
  facet normal 0 0 -1
    outer loop
      vertex 11.2459 92.0948 8.2
      vertex 13.4238 91.8875 8.2
      vertex 12.9125 90.884 8.2
    endloop
  endfacet
  facet normal 0 0 -1
    outer loop
      vertex 10.4759 91.5354 8.2
      vertex 12.9125 90.884 8.2
      vertex 12.116 90.0875 8.2
    endloop
  endfacet
  facet normal 0 0 -1
    outer loop
      vertex 9.52411 91.5354 8.2
      vertex 12.116 90.0875 8.2
      vertex 11.1125 89.5762 8.2
    endloop
  endfacet
  facet normal 0 0 -1
    outer loop
      vertex 6.5762 94.1125 8.2
      vertex 11.1125 89.5762 8.2
      vertex 10 89.4 8.2
    endloop
  endfacet
  facet normal 0 0 -1
    outer loop
      vertex 6.5762 94.1125 8.2
      vertex 10 89.4 8.2
      vertex 8.88754 89.5762 8.2
    endloop
  endfacet
  facet normal 0 0 -1
    outer loop
      vertex 6.5762 94.1125 8.2
      vertex 8.88754 89.5762 8.2
      vertex 7.88397 90.0875 8.2
    endloop
  endfacet
  facet normal 0 0 -1
    outer loop
      vertex 6.5762 94.1125 8.2
      vertex 7.88397 90.0875 8.2
      vertex 7.08754 90.884 8.2
    endloop
  endfacet
  facet normal 0 0 -1
    outer loop
      vertex 6.5762 94.1125 8.2
      vertex 7.08754 90.884 8.2
      vertex 6.5762 91.8875 8.2
    endloop
  endfacet
  facet normal 0 0 -1
    outer loop
      vertex 6.5762 94.1125 8.2
      vertex 6.5762 91.8875 8.2
      vertex 6.4 93 8.2
    endloop
  endfacet
  facet normal 0 0 -1
    outer loop
      vertex 9.52411 91.5354 8.2
      vertex 11.1125 89.5762 8.2
      vertex 9.09481 91.7541 8.2
    endloop
  endfacet
  facet normal 0 0 -1
    outer loop
      vertex 6.5762 94.1125 8.2
      vertex 8.53537 92.5241 8.2
      vertex 8.75411 92.0948 8.2
    endloop
  endfacet
  facet normal 0 0 -1
    outer loop
      vertex 6.5762 94.1125 8.2
      vertex 8.75411 92.0948 8.2
      vertex 11.1125 89.5762 8.2
    endloop
  endfacet
  facet normal 0 0 -1
    outer loop
      vertex 8.75411 92.0948 8.2
      vertex 9.09481 91.7541 8.2
      vertex 11.1125 89.5762 8.2
    endloop
  endfacet
  facet normal 0 0 -1
    outer loop
      vertex 10 91.46 8.2
      vertex 12.116 90.0875 8.2
      vertex 9.52411 91.5354 8.2
    endloop
  endfacet
  facet normal 0 0 -1
    outer loop
      vertex 10.4759 91.5354 8.2
      vertex 12.116 90.0875 8.2
      vertex 10 91.46 8.2
    endloop
  endfacet
  facet normal 0 0 -1
    outer loop
      vertex 10.9052 91.7541 8.2
      vertex 12.9125 90.884 8.2
      vertex 10.4759 91.5354 8.2
    endloop
  endfacet
  facet normal 0 0 -1
    outer loop
      vertex 8.46 93 8.2
      vertex 6.5762 94.1125 8.2
      vertex 8.53537 93.4759 8.2
    endloop
  endfacet
  facet normal 0 0 -1
    outer loop
      vertex 11.4646 92.5241 8.2
      vertex 13.4238 91.8875 8.2
      vertex 11.2459 92.0948 8.2
    endloop
  endfacet
  facet normal 0 0 -1
    outer loop
      vertex 11.54 93 8.2
      vertex 13.6 93 8.2
      vertex 11.4646 92.5241 8.2
    endloop
  endfacet
  facet normal 0 0 -1
    outer loop
      vertex 11.4646 93.4759 8.2
      vertex 13.6 93 8.2
      vertex 11.54 93 8.2
    endloop
  endfacet
  facet normal 0 0 -1
    outer loop
      vertex 11.2459 93.9052 8.2
      vertex 13.4238 94.1125 8.2
      vertex 11.4646 93.4759 8.2
    endloop
  endfacet
  facet normal 0 0 -1
    outer loop
      vertex 10.9052 94.2459 8.2
      vertex 13.4238 94.1125 8.2
      vertex 11.2459 93.9052 8.2
    endloop
  endfacet
  facet normal 0 0 -1
    outer loop
      vertex 10.4759 94.4646 8.2
      vertex 12.9125 95.116 8.2
      vertex 10.9052 94.2459 8.2
    endloop
  endfacet
  facet normal 0 0 -1
    outer loop
      vertex 9.09481 94.2459 8.2
      vertex 6.5762 94.1125 8.2
      vertex 9.52411 94.4646 8.2
    endloop
  endfacet
  facet normal 0 0 -1
    outer loop
      vertex 10 94.54 8.2
      vertex 12.9125 95.116 8.2
      vertex 10.4759 94.4646 8.2
    endloop
  endfacet
  facet normal 0 0 -1
    outer loop
      vertex 6.5762 94.1125 8.2
      vertex 12.9125 95.116 8.2
      vertex 10 94.54 8.2
    endloop
  endfacet
  facet normal 0 0 -1
    outer loop
      vertex 6.5762 94.1125 8.2
      vertex 10 94.54 8.2
      vertex 9.52411 94.4646 8.2
    endloop
  endfacet
  facet normal 0 0 -1
    outer loop
      vertex 8.75411 93.9052 8.2
      vertex 6.5762 94.1125 8.2
      vertex 9.09481 94.2459 8.2
    endloop
  endfacet
  facet normal 0 0 -1
    outer loop
      vertex 8.53537 93.4759 8.2
      vertex 6.5762 94.1125 8.2
      vertex 8.75411 93.9052 8.2
    endloop
  endfacet
  facet normal 0 0 -1
    outer loop
      vertex 8.53537 92.5241 8.2
      vertex 6.5762 94.1125 8.2
      vertex 8.46 93 8.2
    endloop
  endfacet
  facet normal 0 0 -1
    outer loop
      vertex 11.2459 92.0948 8.2
      vertex 12.9125 90.884 8.2
      vertex 10.9052 91.7541 8.2
    endloop
  endfacet
  facet normal 0.987688 0.156435 0
    outer loop
      vertex -3.6 112.5 0.35
      vertex -3.4238 111.388 0.35
      vertex -3.4238 111.388 0
    endloop
  endfacet
  facet normal 0.987688 0.156435 0
    outer loop
      vertex -3.6 112.5 0
      vertex -3.6 112.5 0.35
      vertex -3.4238 111.388 0
    endloop
  endfacet
  facet normal 0.987688 -0.156435 0
    outer loop
      vertex -3.4238 113.612 0
      vertex -3.4238 113.612 0.35
      vertex -3.6 112.5 0.35
    endloop
  endfacet
  facet normal 0.987688 -0.156435 0
    outer loop
      vertex -3.6 112.5 0
      vertex -3.4238 113.612 0
      vertex -3.6 112.5 0.35
    endloop
  endfacet
  facet normal 0.891007 -0.45399 0
    outer loop
      vertex -2.91246 114.616 0
      vertex -2.91246 114.616 0.35
      vertex -3.4238 113.612 0.35
    endloop
  endfacet
  facet normal 0.891007 -0.45399 0
    outer loop
      vertex -3.4238 113.612 0
      vertex -2.91246 114.616 0
      vertex -3.4238 113.612 0.35
    endloop
  endfacet
  facet normal 0.707107 -0.707107 0
    outer loop
      vertex -2.11603 115.412 0
      vertex -2.11603 115.412 0.35
      vertex -2.91246 114.616 0.35
    endloop
  endfacet
  facet normal 0.707107 -0.707107 0
    outer loop
      vertex -2.91246 114.616 0
      vertex -2.11603 115.412 0
      vertex -2.91246 114.616 0.35
    endloop
  endfacet
  facet normal 0.45399 -0.891007 0
    outer loop
      vertex -1.11246 115.924 0
      vertex -1.11246 115.924 0.35
      vertex -2.11603 115.412 0.35
    endloop
  endfacet
  facet normal 0.45399 -0.891007 0
    outer loop
      vertex -2.11603 115.412 0
      vertex -1.11246 115.924 0
      vertex -2.11603 115.412 0.35
    endloop
  endfacet
  facet normal 0.156435 -0.987688 0
    outer loop
      vertex 0 116.1 0
      vertex 0 116.1 0.35
      vertex -1.11246 115.924 0.35
    endloop
  endfacet
  facet normal 0.156435 -0.987688 0
    outer loop
      vertex -1.11246 115.924 0
      vertex 0 116.1 0
      vertex -1.11246 115.924 0.35
    endloop
  endfacet
  facet normal -0.156435 -0.987688 0
    outer loop
      vertex 1.11246 115.924 0
      vertex 1.11246 115.924 0.35
      vertex 0 116.1 0.35
    endloop
  endfacet
  facet normal -0.156435 -0.987688 0
    outer loop
      vertex 0 116.1 0
      vertex 1.11246 115.924 0
      vertex 0 116.1 0.35
    endloop
  endfacet
  facet normal -0.45399 -0.891007 0
    outer loop
      vertex 2.11603 115.412 0
      vertex 2.11603 115.412 0.35
      vertex 1.11246 115.924 0.35
    endloop
  endfacet
  facet normal -0.45399 -0.891007 0
    outer loop
      vertex 1.11246 115.924 0
      vertex 2.11603 115.412 0
      vertex 1.11246 115.924 0.35
    endloop
  endfacet
  facet normal -0.707107 -0.707107 0
    outer loop
      vertex 2.91246 114.616 0
      vertex 2.91246 114.616 0.35
      vertex 2.11603 115.412 0.35
    endloop
  endfacet
  facet normal -0.707107 -0.707107 0
    outer loop
      vertex 2.11603 115.412 0
      vertex 2.91246 114.616 0
      vertex 2.11603 115.412 0.35
    endloop
  endfacet
  facet normal -0.891007 -0.45399 0
    outer loop
      vertex 3.4238 113.612 0.35
      vertex 2.91246 114.616 0.35
      vertex 3.4238 113.612 0
    endloop
  endfacet
  facet normal -0.891007 -0.45399 0
    outer loop
      vertex 3.4238 113.612 0
      vertex 2.91246 114.616 0.35
      vertex 2.91246 114.616 0
    endloop
  endfacet
  facet normal -0.987688 -0.156435 0
    outer loop
      vertex 3.6 112.5 0.35
      vertex 3.4238 113.612 0.35
      vertex 3.6 112.5 0
    endloop
  endfacet
  facet normal -0.987688 -0.156435 0
    outer loop
      vertex 3.6 112.5 0
      vertex 3.4238 113.612 0.35
      vertex 3.4238 113.612 0
    endloop
  endfacet
  facet normal -0.987688 0.156435 0
    outer loop
      vertex 3.6 112.5 0.35
      vertex 3.6 112.5 0
      vertex 3.4238 111.388 0.35
    endloop
  endfacet
  facet normal -0.987688 0.156435 0
    outer loop
      vertex 3.4238 111.388 0.35
      vertex 3.6 112.5 0
      vertex 3.4238 111.388 0
    endloop
  endfacet
endsolid OpenSCAD_Model
